<?xml version="1.0" encoding="utf-8" standalone="no"?>
<!DOCTYPE svg PUBLIC "-//W3C//DTD SVG 1.1//EN"
  "http://www.w3.org/Graphics/SVG/1.1/DTD/svg11.dtd">
<svg xmlns:xlink="http://www.w3.org/1999/xlink" width="720pt" height="360pt" viewBox="0 0 720 360" xmlns="http://www.w3.org/2000/svg" version="1.1">
 <metadata>
  <rdf:RDF xmlns:dc="http://purl.org/dc/elements/1.1/" xmlns:cc="http://creativecommons.org/ns#" xmlns:rdf="http://www.w3.org/1999/02/22-rdf-syntax-ns#">
   <cc:Work>
    <dc:type rdf:resource="http://purl.org/dc/dcmitype/StillImage"/>
    <dc:date>2025-07-16T13:41:10.187344</dc:date>
    <dc:format>image/svg+xml</dc:format>
    <dc:creator>
     <cc:Agent>
      <dc:title>Matplotlib v3.10.3, https://matplotlib.org/</dc:title>
     </cc:Agent>
    </dc:creator>
   </cc:Work>
  </rdf:RDF>
 </metadata>
 <defs>
  <style type="text/css">*{stroke-linejoin: round; stroke-linecap: butt}</style>
 </defs>
 <g id="figure_1">
  <g id="patch_1">
   <path d="M 0 360 
L 720 360 
L 720 0 
L 0 0 
z
" style="fill: #ffffff"/>
  </g>
  <g id="axes_1">
   <g id="patch_2">
    <path d="M 90 320.4 
L 648 320.4 
L 648 43.2 
L 90 43.2 
z
" style="fill: #ffffff"/>
   </g>
   <g id="matplotlib.axis_1">
    <g id="xtick_1">
     <g id="line2d_1">
      <defs>
       <path id="mbb6cd24d1b" d="M 0 0 
L 0 3.5 
" style="stroke: #000000; stroke-width: 0.8"/>
      </defs>
      <g>
       <use xlink:href="#mbb6cd24d1b" x="110.239669" y="320.4" style="stroke: #000000; stroke-width: 0.8"/>
      </g>
     </g>
     <g id="text_1">
      <!-- 0 -->
      <g transform="translate(107.058419 334.998438) scale(0.1 -0.1)">
       <defs>
        <path id="DejaVuSans-30" d="M 2034 4250 
Q 1547 4250 1301 3770 
Q 1056 3291 1056 2328 
Q 1056 1369 1301 889 
Q 1547 409 2034 409 
Q 2525 409 2770 889 
Q 3016 1369 3016 2328 
Q 3016 3291 2770 3770 
Q 2525 4250 2034 4250 
z
M 2034 4750 
Q 2819 4750 3233 4129 
Q 3647 3509 3647 2328 
Q 3647 1150 3233 529 
Q 2819 -91 2034 -91 
Q 1250 -91 836 529 
Q 422 1150 422 2328 
Q 422 3509 836 4129 
Q 1250 4750 2034 4750 
z
" transform="scale(0.015625)"/>
       </defs>
       <use xlink:href="#DejaVuSans-30"/>
      </g>
     </g>
    </g>
    <g id="xtick_2">
     <g id="line2d_2">
      <g>
       <use xlink:href="#mbb6cd24d1b" x="212.719008" y="320.4" style="stroke: #000000; stroke-width: 0.8"/>
      </g>
     </g>
     <g id="text_2">
      <!-- 20 -->
      <g transform="translate(206.356508 334.998438) scale(0.1 -0.1)">
       <defs>
        <path id="DejaVuSans-32" d="M 1228 531 
L 3431 531 
L 3431 0 
L 469 0 
L 469 531 
Q 828 903 1448 1529 
Q 2069 2156 2228 2338 
Q 2531 2678 2651 2914 
Q 2772 3150 2772 3378 
Q 2772 3750 2511 3984 
Q 2250 4219 1831 4219 
Q 1534 4219 1204 4116 
Q 875 4013 500 3803 
L 500 4441 
Q 881 4594 1212 4672 
Q 1544 4750 1819 4750 
Q 2544 4750 2975 4387 
Q 3406 4025 3406 3419 
Q 3406 3131 3298 2873 
Q 3191 2616 2906 2266 
Q 2828 2175 2409 1742 
Q 1991 1309 1228 531 
z
" transform="scale(0.015625)"/>
       </defs>
       <use xlink:href="#DejaVuSans-32"/>
       <use xlink:href="#DejaVuSans-30" transform="translate(63.623047 0)"/>
      </g>
     </g>
    </g>
    <g id="xtick_3">
     <g id="line2d_3">
      <g>
       <use xlink:href="#mbb6cd24d1b" x="315.198347" y="320.4" style="stroke: #000000; stroke-width: 0.8"/>
      </g>
     </g>
     <g id="text_3">
      <!-- 40 -->
      <g transform="translate(308.835847 334.998438) scale(0.1 -0.1)">
       <defs>
        <path id="DejaVuSans-34" d="M 2419 4116 
L 825 1625 
L 2419 1625 
L 2419 4116 
z
M 2253 4666 
L 3047 4666 
L 3047 1625 
L 3713 1625 
L 3713 1100 
L 3047 1100 
L 3047 0 
L 2419 0 
L 2419 1100 
L 313 1100 
L 313 1709 
L 2253 4666 
z
" transform="scale(0.015625)"/>
       </defs>
       <use xlink:href="#DejaVuSans-34"/>
       <use xlink:href="#DejaVuSans-30" transform="translate(63.623047 0)"/>
      </g>
     </g>
    </g>
    <g id="xtick_4">
     <g id="line2d_4">
      <g>
       <use xlink:href="#mbb6cd24d1b" x="417.677686" y="320.4" style="stroke: #000000; stroke-width: 0.8"/>
      </g>
     </g>
     <g id="text_4">
      <!-- 60 -->
      <g transform="translate(411.315186 334.998438) scale(0.1 -0.1)">
       <defs>
        <path id="DejaVuSans-36" d="M 2113 2584 
Q 1688 2584 1439 2293 
Q 1191 2003 1191 1497 
Q 1191 994 1439 701 
Q 1688 409 2113 409 
Q 2538 409 2786 701 
Q 3034 994 3034 1497 
Q 3034 2003 2786 2293 
Q 2538 2584 2113 2584 
z
M 3366 4563 
L 3366 3988 
Q 3128 4100 2886 4159 
Q 2644 4219 2406 4219 
Q 1781 4219 1451 3797 
Q 1122 3375 1075 2522 
Q 1259 2794 1537 2939 
Q 1816 3084 2150 3084 
Q 2853 3084 3261 2657 
Q 3669 2231 3669 1497 
Q 3669 778 3244 343 
Q 2819 -91 2113 -91 
Q 1303 -91 875 529 
Q 447 1150 447 2328 
Q 447 3434 972 4092 
Q 1497 4750 2381 4750 
Q 2619 4750 2861 4703 
Q 3103 4656 3366 4563 
z
" transform="scale(0.015625)"/>
       </defs>
       <use xlink:href="#DejaVuSans-36"/>
       <use xlink:href="#DejaVuSans-30" transform="translate(63.623047 0)"/>
      </g>
     </g>
    </g>
    <g id="xtick_5">
     <g id="line2d_5">
      <g>
       <use xlink:href="#mbb6cd24d1b" x="520.157025" y="320.4" style="stroke: #000000; stroke-width: 0.8"/>
      </g>
     </g>
     <g id="text_5">
      <!-- 80 -->
      <g transform="translate(513.794525 334.998438) scale(0.1 -0.1)">
       <defs>
        <path id="DejaVuSans-38" d="M 2034 2216 
Q 1584 2216 1326 1975 
Q 1069 1734 1069 1313 
Q 1069 891 1326 650 
Q 1584 409 2034 409 
Q 2484 409 2743 651 
Q 3003 894 3003 1313 
Q 3003 1734 2745 1975 
Q 2488 2216 2034 2216 
z
M 1403 2484 
Q 997 2584 770 2862 
Q 544 3141 544 3541 
Q 544 4100 942 4425 
Q 1341 4750 2034 4750 
Q 2731 4750 3128 4425 
Q 3525 4100 3525 3541 
Q 3525 3141 3298 2862 
Q 3072 2584 2669 2484 
Q 3125 2378 3379 2068 
Q 3634 1759 3634 1313 
Q 3634 634 3220 271 
Q 2806 -91 2034 -91 
Q 1263 -91 848 271 
Q 434 634 434 1313 
Q 434 1759 690 2068 
Q 947 2378 1403 2484 
z
M 1172 3481 
Q 1172 3119 1398 2916 
Q 1625 2713 2034 2713 
Q 2441 2713 2670 2916 
Q 2900 3119 2900 3481 
Q 2900 3844 2670 4047 
Q 2441 4250 2034 4250 
Q 1625 4250 1398 4047 
Q 1172 3844 1172 3481 
z
" transform="scale(0.015625)"/>
       </defs>
       <use xlink:href="#DejaVuSans-38"/>
       <use xlink:href="#DejaVuSans-30" transform="translate(63.623047 0)"/>
      </g>
     </g>
    </g>
    <g id="xtick_6">
     <g id="line2d_6">
      <g>
       <use xlink:href="#mbb6cd24d1b" x="622.636364" y="320.4" style="stroke: #000000; stroke-width: 0.8"/>
      </g>
     </g>
     <g id="text_6">
      <!-- 100 -->
      <g transform="translate(613.092614 334.998438) scale(0.1 -0.1)">
       <defs>
        <path id="DejaVuSans-31" d="M 794 531 
L 1825 531 
L 1825 4091 
L 703 3866 
L 703 4441 
L 1819 4666 
L 2450 4666 
L 2450 531 
L 3481 531 
L 3481 0 
L 794 0 
L 794 531 
z
" transform="scale(0.015625)"/>
       </defs>
       <use xlink:href="#DejaVuSans-31"/>
       <use xlink:href="#DejaVuSans-30" transform="translate(63.623047 0)"/>
       <use xlink:href="#DejaVuSans-30" transform="translate(127.246094 0)"/>
      </g>
     </g>
    </g>
    <g id="text_7">
     <!-- Epoch -->
     <g transform="translate(353.689062 348.676562) scale(0.1 -0.1)">
      <defs>
       <path id="DejaVuSans-45" d="M 628 4666 
L 3578 4666 
L 3578 4134 
L 1259 4134 
L 1259 2753 
L 3481 2753 
L 3481 2222 
L 1259 2222 
L 1259 531 
L 3634 531 
L 3634 0 
L 628 0 
L 628 4666 
z
" transform="scale(0.015625)"/>
       <path id="DejaVuSans-70" d="M 1159 525 
L 1159 -1331 
L 581 -1331 
L 581 3500 
L 1159 3500 
L 1159 2969 
Q 1341 3281 1617 3432 
Q 1894 3584 2278 3584 
Q 2916 3584 3314 3078 
Q 3713 2572 3713 1747 
Q 3713 922 3314 415 
Q 2916 -91 2278 -91 
Q 1894 -91 1617 61 
Q 1341 213 1159 525 
z
M 3116 1747 
Q 3116 2381 2855 2742 
Q 2594 3103 2138 3103 
Q 1681 3103 1420 2742 
Q 1159 2381 1159 1747 
Q 1159 1113 1420 752 
Q 1681 391 2138 391 
Q 2594 391 2855 752 
Q 3116 1113 3116 1747 
z
" transform="scale(0.015625)"/>
       <path id="DejaVuSans-6f" d="M 1959 3097 
Q 1497 3097 1228 2736 
Q 959 2375 959 1747 
Q 959 1119 1226 758 
Q 1494 397 1959 397 
Q 2419 397 2687 759 
Q 2956 1122 2956 1747 
Q 2956 2369 2687 2733 
Q 2419 3097 1959 3097 
z
M 1959 3584 
Q 2709 3584 3137 3096 
Q 3566 2609 3566 1747 
Q 3566 888 3137 398 
Q 2709 -91 1959 -91 
Q 1206 -91 779 398 
Q 353 888 353 1747 
Q 353 2609 779 3096 
Q 1206 3584 1959 3584 
z
" transform="scale(0.015625)"/>
       <path id="DejaVuSans-63" d="M 3122 3366 
L 3122 2828 
Q 2878 2963 2633 3030 
Q 2388 3097 2138 3097 
Q 1578 3097 1268 2742 
Q 959 2388 959 1747 
Q 959 1106 1268 751 
Q 1578 397 2138 397 
Q 2388 397 2633 464 
Q 2878 531 3122 666 
L 3122 134 
Q 2881 22 2623 -34 
Q 2366 -91 2075 -91 
Q 1284 -91 818 406 
Q 353 903 353 1747 
Q 353 2603 823 3093 
Q 1294 3584 2113 3584 
Q 2378 3584 2631 3529 
Q 2884 3475 3122 3366 
z
" transform="scale(0.015625)"/>
       <path id="DejaVuSans-68" d="M 3513 2113 
L 3513 0 
L 2938 0 
L 2938 2094 
Q 2938 2591 2744 2837 
Q 2550 3084 2163 3084 
Q 1697 3084 1428 2787 
Q 1159 2491 1159 1978 
L 1159 0 
L 581 0 
L 581 4863 
L 1159 4863 
L 1159 2956 
Q 1366 3272 1645 3428 
Q 1925 3584 2291 3584 
Q 2894 3584 3203 3211 
Q 3513 2838 3513 2113 
z
" transform="scale(0.015625)"/>
      </defs>
      <use xlink:href="#DejaVuSans-45"/>
      <use xlink:href="#DejaVuSans-70" transform="translate(63.183594 0)"/>
      <use xlink:href="#DejaVuSans-6f" transform="translate(126.660156 0)"/>
      <use xlink:href="#DejaVuSans-63" transform="translate(187.841797 0)"/>
      <use xlink:href="#DejaVuSans-68" transform="translate(242.822266 0)"/>
     </g>
    </g>
   </g>
   <g id="matplotlib.axis_2">
    <g id="ytick_1">
     <g id="line2d_7">
      <defs>
       <path id="mad5a89249d" d="M 0 0 
L -3.5 0 
" style="stroke: #000000; stroke-width: 0.8"/>
      </defs>
      <g>
       <use xlink:href="#mad5a89249d" x="90" y="280.424461" style="stroke: #000000; stroke-width: 0.8"/>
      </g>
     </g>
     <g id="text_8">
      <!-- 0.80 -->
      <g transform="translate(60.734375 284.22368) scale(0.1 -0.1)">
       <defs>
        <path id="DejaVuSans-2e" d="M 684 794 
L 1344 794 
L 1344 0 
L 684 0 
L 684 794 
z
" transform="scale(0.015625)"/>
       </defs>
       <use xlink:href="#DejaVuSans-30"/>
       <use xlink:href="#DejaVuSans-2e" transform="translate(63.623047 0)"/>
       <use xlink:href="#DejaVuSans-38" transform="translate(95.410156 0)"/>
       <use xlink:href="#DejaVuSans-30" transform="translate(159.033203 0)"/>
      </g>
     </g>
    </g>
    <g id="ytick_2">
     <g id="line2d_8">
      <g>
       <use xlink:href="#mad5a89249d" x="90" y="223.552565" style="stroke: #000000; stroke-width: 0.8"/>
      </g>
     </g>
     <g id="text_9">
      <!-- 0.82 -->
      <g transform="translate(60.734375 227.351784) scale(0.1 -0.1)">
       <use xlink:href="#DejaVuSans-30"/>
       <use xlink:href="#DejaVuSans-2e" transform="translate(63.623047 0)"/>
       <use xlink:href="#DejaVuSans-38" transform="translate(95.410156 0)"/>
       <use xlink:href="#DejaVuSans-32" transform="translate(159.033203 0)"/>
      </g>
     </g>
    </g>
    <g id="ytick_3">
     <g id="line2d_9">
      <g>
       <use xlink:href="#mad5a89249d" x="90" y="166.680669" style="stroke: #000000; stroke-width: 0.8"/>
      </g>
     </g>
     <g id="text_10">
      <!-- 0.84 -->
      <g transform="translate(60.734375 170.479888) scale(0.1 -0.1)">
       <use xlink:href="#DejaVuSans-30"/>
       <use xlink:href="#DejaVuSans-2e" transform="translate(63.623047 0)"/>
       <use xlink:href="#DejaVuSans-38" transform="translate(95.410156 0)"/>
       <use xlink:href="#DejaVuSans-34" transform="translate(159.033203 0)"/>
      </g>
     </g>
    </g>
    <g id="ytick_4">
     <g id="line2d_10">
      <g>
       <use xlink:href="#mad5a89249d" x="90" y="109.808773" style="stroke: #000000; stroke-width: 0.8"/>
      </g>
     </g>
     <g id="text_11">
      <!-- 0.86 -->
      <g transform="translate(60.734375 113.607992) scale(0.1 -0.1)">
       <use xlink:href="#DejaVuSans-30"/>
       <use xlink:href="#DejaVuSans-2e" transform="translate(63.623047 0)"/>
       <use xlink:href="#DejaVuSans-38" transform="translate(95.410156 0)"/>
       <use xlink:href="#DejaVuSans-36" transform="translate(159.033203 0)"/>
      </g>
     </g>
    </g>
    <g id="ytick_5">
     <g id="line2d_11">
      <g>
       <use xlink:href="#mad5a89249d" x="90" y="52.936877" style="stroke: #000000; stroke-width: 0.8"/>
      </g>
     </g>
     <g id="text_12">
      <!-- 0.88 -->
      <g transform="translate(60.734375 56.736095) scale(0.1 -0.1)">
       <use xlink:href="#DejaVuSans-30"/>
       <use xlink:href="#DejaVuSans-2e" transform="translate(63.623047 0)"/>
       <use xlink:href="#DejaVuSans-38" transform="translate(95.410156 0)"/>
       <use xlink:href="#DejaVuSans-38" transform="translate(159.033203 0)"/>
      </g>
     </g>
    </g>
    <g id="text_13">
     <!-- RMSE -->
     <g transform="translate(54.654688 195.921875) rotate(-90) scale(0.1 -0.1)">
      <defs>
       <path id="DejaVuSans-52" d="M 2841 2188 
Q 3044 2119 3236 1894 
Q 3428 1669 3622 1275 
L 4263 0 
L 3584 0 
L 2988 1197 
Q 2756 1666 2539 1819 
Q 2322 1972 1947 1972 
L 1259 1972 
L 1259 0 
L 628 0 
L 628 4666 
L 2053 4666 
Q 2853 4666 3247 4331 
Q 3641 3997 3641 3322 
Q 3641 2881 3436 2590 
Q 3231 2300 2841 2188 
z
M 1259 4147 
L 1259 2491 
L 2053 2491 
Q 2509 2491 2742 2702 
Q 2975 2913 2975 3322 
Q 2975 3731 2742 3939 
Q 2509 4147 2053 4147 
L 1259 4147 
z
" transform="scale(0.015625)"/>
       <path id="DejaVuSans-4d" d="M 628 4666 
L 1569 4666 
L 2759 1491 
L 3956 4666 
L 4897 4666 
L 4897 0 
L 4281 0 
L 4281 4097 
L 3078 897 
L 2444 897 
L 1241 4097 
L 1241 0 
L 628 0 
L 628 4666 
z
" transform="scale(0.015625)"/>
       <path id="DejaVuSans-53" d="M 3425 4513 
L 3425 3897 
Q 3066 4069 2747 4153 
Q 2428 4238 2131 4238 
Q 1616 4238 1336 4038 
Q 1056 3838 1056 3469 
Q 1056 3159 1242 3001 
Q 1428 2844 1947 2747 
L 2328 2669 
Q 3034 2534 3370 2195 
Q 3706 1856 3706 1288 
Q 3706 609 3251 259 
Q 2797 -91 1919 -91 
Q 1588 -91 1214 -16 
Q 841 59 441 206 
L 441 856 
Q 825 641 1194 531 
Q 1563 422 1919 422 
Q 2459 422 2753 634 
Q 3047 847 3047 1241 
Q 3047 1584 2836 1778 
Q 2625 1972 2144 2069 
L 1759 2144 
Q 1053 2284 737 2584 
Q 422 2884 422 3419 
Q 422 4038 858 4394 
Q 1294 4750 2059 4750 
Q 2388 4750 2728 4690 
Q 3069 4631 3425 4513 
z
" transform="scale(0.015625)"/>
      </defs>
      <use xlink:href="#DejaVuSans-52"/>
      <use xlink:href="#DejaVuSans-4d" transform="translate(69.482422 0)"/>
      <use xlink:href="#DejaVuSans-53" transform="translate(155.761719 0)"/>
      <use xlink:href="#DejaVuSans-45" transform="translate(219.238281 0)"/>
     </g>
    </g>
   </g>
   <g id="line2d_12">
    <path d="M 115.363636 264.821414 
L 120.487603 303.877932 
L 125.61157 306.923608 
L 130.735537 307.522098 
L 135.859504 307.729798 
L 140.983471 307.8 
L 146.107438 307.798109 
L 151.231405 307.750955 
L 156.355372 307.67307 
L 161.479339 307.573848 
L 166.603306 307.460009 
L 171.727273 307.336618 
L 176.85124 307.207582 
L 181.975207 307.075939 
L 187.099174 306.944043 
L 192.22314 306.813705 
L 197.347107 306.686294 
L 202.471074 306.562828 
L 207.595041 306.444037 
L 212.719008 306.330421 
L 217.842975 306.222299 
L 222.966942 306.119842 
L 228.090909 306.023108 
L 233.214876 305.932066 
L 238.338843 305.846616 
L 243.46281 305.766607 
L 248.586777 305.691851 
L 253.710744 305.622134 
L 258.834711 305.557223 
L 263.958678 305.496876 
L 269.082645 305.440846 
L 274.206612 305.388885 
L 279.330579 305.340747 
L 284.454545 305.296195 
L 289.578512 305.254995 
L 294.702479 305.216925 
L 299.826446 305.181772 
L 304.950413 305.149331 
L 310.07438 305.119411 
L 315.198347 305.091831 
L 320.322314 305.066418 
L 325.446281 305.043012 
L 330.570248 305.021464 
L 335.694215 305.001633 
L 340.818182 304.983387 
L 345.942149 304.966605 
L 351.066116 304.951173 
L 356.190083 304.936987 
L 361.31405 304.923948 
L 366.438017 304.911967 
L 371.561983 304.900959 
L 376.68595 304.890847 
L 381.809917 304.881559 
L 386.933884 304.87303 
L 392.057851 304.865199 
L 397.181818 304.858008 
L 402.305785 304.851408 
L 407.429752 304.845349 
L 412.553719 304.839788 
L 417.677686 304.834684 
L 422.801653 304.83 
L 427.92562 304.825702 
L 433.049587 304.821759 
L 438.173554 304.81814 
L 443.297521 304.814821 
L 448.421488 304.811775 
L 453.545455 304.808981 
L 458.669421 304.806418 
L 463.793388 304.804066 
L 468.917355 304.80191 
L 474.041322 304.799931 
L 479.165289 304.798117 
L 484.289256 304.796452 
L 489.413223 304.794926 
L 494.53719 304.793526 
L 499.661157 304.792242 
L 504.785124 304.791064 
L 509.909091 304.789984 
L 515.033058 304.788994 
L 520.157025 304.788085 
L 525.280992 304.787252 
L 530.404959 304.786488 
L 535.528926 304.785787 
L 540.652893 304.785145 
L 545.77686 304.784556 
L 550.900826 304.784015 
L 556.024793 304.78352 
L 561.14876 304.783066 
L 566.272727 304.782649 
L 571.396694 304.782267 
L 576.520661 304.781916 
L 581.644628 304.781595 
L 586.768595 304.781301 
L 591.892562 304.78103 
L 597.016529 304.780783 
L 602.140496 304.780556 
L 607.264463 304.780347 
L 612.38843 304.780156 
L 617.512397 304.779981 
L 622.636364 304.77982 
" clip-path="url(#pd2db08d3b2)" style="fill: none; stroke: #1f77b4; stroke-width: 1.5; stroke-linecap: square"/>
    <defs>
     <path id="m6b815244d7" d="M 0 3 
C 0.795609 3 1.55874 2.683901 2.12132 2.12132 
C 2.683901 1.55874 3 0.795609 3 0 
C 3 -0.795609 2.683901 -1.55874 2.12132 -2.12132 
C 1.55874 -2.683901 0.795609 -3 0 -3 
C -0.795609 -3 -1.55874 -2.683901 -2.12132 -2.12132 
C -2.683901 -1.55874 -3 -0.795609 -3 0 
C -3 0.795609 -2.683901 1.55874 -2.12132 2.12132 
C -1.55874 2.683901 -0.795609 3 0 3 
z
" style="stroke: #1f77b4"/>
    </defs>
    <g clip-path="url(#pd2db08d3b2)">
     <use xlink:href="#m6b815244d7" x="115.363636" y="264.821414" style="fill: #1f77b4; stroke: #1f77b4"/>
     <use xlink:href="#m6b815244d7" x="120.487603" y="303.877932" style="fill: #1f77b4; stroke: #1f77b4"/>
     <use xlink:href="#m6b815244d7" x="125.61157" y="306.923608" style="fill: #1f77b4; stroke: #1f77b4"/>
     <use xlink:href="#m6b815244d7" x="130.735537" y="307.522098" style="fill: #1f77b4; stroke: #1f77b4"/>
     <use xlink:href="#m6b815244d7" x="135.859504" y="307.729798" style="fill: #1f77b4; stroke: #1f77b4"/>
     <use xlink:href="#m6b815244d7" x="140.983471" y="307.8" style="fill: #1f77b4; stroke: #1f77b4"/>
     <use xlink:href="#m6b815244d7" x="146.107438" y="307.798109" style="fill: #1f77b4; stroke: #1f77b4"/>
     <use xlink:href="#m6b815244d7" x="151.231405" y="307.750955" style="fill: #1f77b4; stroke: #1f77b4"/>
     <use xlink:href="#m6b815244d7" x="156.355372" y="307.67307" style="fill: #1f77b4; stroke: #1f77b4"/>
     <use xlink:href="#m6b815244d7" x="161.479339" y="307.573848" style="fill: #1f77b4; stroke: #1f77b4"/>
     <use xlink:href="#m6b815244d7" x="166.603306" y="307.460009" style="fill: #1f77b4; stroke: #1f77b4"/>
     <use xlink:href="#m6b815244d7" x="171.727273" y="307.336618" style="fill: #1f77b4; stroke: #1f77b4"/>
     <use xlink:href="#m6b815244d7" x="176.85124" y="307.207582" style="fill: #1f77b4; stroke: #1f77b4"/>
     <use xlink:href="#m6b815244d7" x="181.975207" y="307.075939" style="fill: #1f77b4; stroke: #1f77b4"/>
     <use xlink:href="#m6b815244d7" x="187.099174" y="306.944043" style="fill: #1f77b4; stroke: #1f77b4"/>
     <use xlink:href="#m6b815244d7" x="192.22314" y="306.813705" style="fill: #1f77b4; stroke: #1f77b4"/>
     <use xlink:href="#m6b815244d7" x="197.347107" y="306.686294" style="fill: #1f77b4; stroke: #1f77b4"/>
     <use xlink:href="#m6b815244d7" x="202.471074" y="306.562828" style="fill: #1f77b4; stroke: #1f77b4"/>
     <use xlink:href="#m6b815244d7" x="207.595041" y="306.444037" style="fill: #1f77b4; stroke: #1f77b4"/>
     <use xlink:href="#m6b815244d7" x="212.719008" y="306.330421" style="fill: #1f77b4; stroke: #1f77b4"/>
     <use xlink:href="#m6b815244d7" x="217.842975" y="306.222299" style="fill: #1f77b4; stroke: #1f77b4"/>
     <use xlink:href="#m6b815244d7" x="222.966942" y="306.119842" style="fill: #1f77b4; stroke: #1f77b4"/>
     <use xlink:href="#m6b815244d7" x="228.090909" y="306.023108" style="fill: #1f77b4; stroke: #1f77b4"/>
     <use xlink:href="#m6b815244d7" x="233.214876" y="305.932066" style="fill: #1f77b4; stroke: #1f77b4"/>
     <use xlink:href="#m6b815244d7" x="238.338843" y="305.846616" style="fill: #1f77b4; stroke: #1f77b4"/>
     <use xlink:href="#m6b815244d7" x="243.46281" y="305.766607" style="fill: #1f77b4; stroke: #1f77b4"/>
     <use xlink:href="#m6b815244d7" x="248.586777" y="305.691851" style="fill: #1f77b4; stroke: #1f77b4"/>
     <use xlink:href="#m6b815244d7" x="253.710744" y="305.622134" style="fill: #1f77b4; stroke: #1f77b4"/>
     <use xlink:href="#m6b815244d7" x="258.834711" y="305.557223" style="fill: #1f77b4; stroke: #1f77b4"/>
     <use xlink:href="#m6b815244d7" x="263.958678" y="305.496876" style="fill: #1f77b4; stroke: #1f77b4"/>
     <use xlink:href="#m6b815244d7" x="269.082645" y="305.440846" style="fill: #1f77b4; stroke: #1f77b4"/>
     <use xlink:href="#m6b815244d7" x="274.206612" y="305.388885" style="fill: #1f77b4; stroke: #1f77b4"/>
     <use xlink:href="#m6b815244d7" x="279.330579" y="305.340747" style="fill: #1f77b4; stroke: #1f77b4"/>
     <use xlink:href="#m6b815244d7" x="284.454545" y="305.296195" style="fill: #1f77b4; stroke: #1f77b4"/>
     <use xlink:href="#m6b815244d7" x="289.578512" y="305.254995" style="fill: #1f77b4; stroke: #1f77b4"/>
     <use xlink:href="#m6b815244d7" x="294.702479" y="305.216925" style="fill: #1f77b4; stroke: #1f77b4"/>
     <use xlink:href="#m6b815244d7" x="299.826446" y="305.181772" style="fill: #1f77b4; stroke: #1f77b4"/>
     <use xlink:href="#m6b815244d7" x="304.950413" y="305.149331" style="fill: #1f77b4; stroke: #1f77b4"/>
     <use xlink:href="#m6b815244d7" x="310.07438" y="305.119411" style="fill: #1f77b4; stroke: #1f77b4"/>
     <use xlink:href="#m6b815244d7" x="315.198347" y="305.091831" style="fill: #1f77b4; stroke: #1f77b4"/>
     <use xlink:href="#m6b815244d7" x="320.322314" y="305.066418" style="fill: #1f77b4; stroke: #1f77b4"/>
     <use xlink:href="#m6b815244d7" x="325.446281" y="305.043012" style="fill: #1f77b4; stroke: #1f77b4"/>
     <use xlink:href="#m6b815244d7" x="330.570248" y="305.021464" style="fill: #1f77b4; stroke: #1f77b4"/>
     <use xlink:href="#m6b815244d7" x="335.694215" y="305.001633" style="fill: #1f77b4; stroke: #1f77b4"/>
     <use xlink:href="#m6b815244d7" x="340.818182" y="304.983387" style="fill: #1f77b4; stroke: #1f77b4"/>
     <use xlink:href="#m6b815244d7" x="345.942149" y="304.966605" style="fill: #1f77b4; stroke: #1f77b4"/>
     <use xlink:href="#m6b815244d7" x="351.066116" y="304.951173" style="fill: #1f77b4; stroke: #1f77b4"/>
     <use xlink:href="#m6b815244d7" x="356.190083" y="304.936987" style="fill: #1f77b4; stroke: #1f77b4"/>
     <use xlink:href="#m6b815244d7" x="361.31405" y="304.923948" style="fill: #1f77b4; stroke: #1f77b4"/>
     <use xlink:href="#m6b815244d7" x="366.438017" y="304.911967" style="fill: #1f77b4; stroke: #1f77b4"/>
     <use xlink:href="#m6b815244d7" x="371.561983" y="304.900959" style="fill: #1f77b4; stroke: #1f77b4"/>
     <use xlink:href="#m6b815244d7" x="376.68595" y="304.890847" style="fill: #1f77b4; stroke: #1f77b4"/>
     <use xlink:href="#m6b815244d7" x="381.809917" y="304.881559" style="fill: #1f77b4; stroke: #1f77b4"/>
     <use xlink:href="#m6b815244d7" x="386.933884" y="304.87303" style="fill: #1f77b4; stroke: #1f77b4"/>
     <use xlink:href="#m6b815244d7" x="392.057851" y="304.865199" style="fill: #1f77b4; stroke: #1f77b4"/>
     <use xlink:href="#m6b815244d7" x="397.181818" y="304.858008" style="fill: #1f77b4; stroke: #1f77b4"/>
     <use xlink:href="#m6b815244d7" x="402.305785" y="304.851408" style="fill: #1f77b4; stroke: #1f77b4"/>
     <use xlink:href="#m6b815244d7" x="407.429752" y="304.845349" style="fill: #1f77b4; stroke: #1f77b4"/>
     <use xlink:href="#m6b815244d7" x="412.553719" y="304.839788" style="fill: #1f77b4; stroke: #1f77b4"/>
     <use xlink:href="#m6b815244d7" x="417.677686" y="304.834684" style="fill: #1f77b4; stroke: #1f77b4"/>
     <use xlink:href="#m6b815244d7" x="422.801653" y="304.83" style="fill: #1f77b4; stroke: #1f77b4"/>
     <use xlink:href="#m6b815244d7" x="427.92562" y="304.825702" style="fill: #1f77b4; stroke: #1f77b4"/>
     <use xlink:href="#m6b815244d7" x="433.049587" y="304.821759" style="fill: #1f77b4; stroke: #1f77b4"/>
     <use xlink:href="#m6b815244d7" x="438.173554" y="304.81814" style="fill: #1f77b4; stroke: #1f77b4"/>
     <use xlink:href="#m6b815244d7" x="443.297521" y="304.814821" style="fill: #1f77b4; stroke: #1f77b4"/>
     <use xlink:href="#m6b815244d7" x="448.421488" y="304.811775" style="fill: #1f77b4; stroke: #1f77b4"/>
     <use xlink:href="#m6b815244d7" x="453.545455" y="304.808981" style="fill: #1f77b4; stroke: #1f77b4"/>
     <use xlink:href="#m6b815244d7" x="458.669421" y="304.806418" style="fill: #1f77b4; stroke: #1f77b4"/>
     <use xlink:href="#m6b815244d7" x="463.793388" y="304.804066" style="fill: #1f77b4; stroke: #1f77b4"/>
     <use xlink:href="#m6b815244d7" x="468.917355" y="304.80191" style="fill: #1f77b4; stroke: #1f77b4"/>
     <use xlink:href="#m6b815244d7" x="474.041322" y="304.799931" style="fill: #1f77b4; stroke: #1f77b4"/>
     <use xlink:href="#m6b815244d7" x="479.165289" y="304.798117" style="fill: #1f77b4; stroke: #1f77b4"/>
     <use xlink:href="#m6b815244d7" x="484.289256" y="304.796452" style="fill: #1f77b4; stroke: #1f77b4"/>
     <use xlink:href="#m6b815244d7" x="489.413223" y="304.794926" style="fill: #1f77b4; stroke: #1f77b4"/>
     <use xlink:href="#m6b815244d7" x="494.53719" y="304.793526" style="fill: #1f77b4; stroke: #1f77b4"/>
     <use xlink:href="#m6b815244d7" x="499.661157" y="304.792242" style="fill: #1f77b4; stroke: #1f77b4"/>
     <use xlink:href="#m6b815244d7" x="504.785124" y="304.791064" style="fill: #1f77b4; stroke: #1f77b4"/>
     <use xlink:href="#m6b815244d7" x="509.909091" y="304.789984" style="fill: #1f77b4; stroke: #1f77b4"/>
     <use xlink:href="#m6b815244d7" x="515.033058" y="304.788994" style="fill: #1f77b4; stroke: #1f77b4"/>
     <use xlink:href="#m6b815244d7" x="520.157025" y="304.788085" style="fill: #1f77b4; stroke: #1f77b4"/>
     <use xlink:href="#m6b815244d7" x="525.280992" y="304.787252" style="fill: #1f77b4; stroke: #1f77b4"/>
     <use xlink:href="#m6b815244d7" x="530.404959" y="304.786488" style="fill: #1f77b4; stroke: #1f77b4"/>
     <use xlink:href="#m6b815244d7" x="535.528926" y="304.785787" style="fill: #1f77b4; stroke: #1f77b4"/>
     <use xlink:href="#m6b815244d7" x="540.652893" y="304.785145" style="fill: #1f77b4; stroke: #1f77b4"/>
     <use xlink:href="#m6b815244d7" x="545.77686" y="304.784556" style="fill: #1f77b4; stroke: #1f77b4"/>
     <use xlink:href="#m6b815244d7" x="550.900826" y="304.784015" style="fill: #1f77b4; stroke: #1f77b4"/>
     <use xlink:href="#m6b815244d7" x="556.024793" y="304.78352" style="fill: #1f77b4; stroke: #1f77b4"/>
     <use xlink:href="#m6b815244d7" x="561.14876" y="304.783066" style="fill: #1f77b4; stroke: #1f77b4"/>
     <use xlink:href="#m6b815244d7" x="566.272727" y="304.782649" style="fill: #1f77b4; stroke: #1f77b4"/>
     <use xlink:href="#m6b815244d7" x="571.396694" y="304.782267" style="fill: #1f77b4; stroke: #1f77b4"/>
     <use xlink:href="#m6b815244d7" x="576.520661" y="304.781916" style="fill: #1f77b4; stroke: #1f77b4"/>
     <use xlink:href="#m6b815244d7" x="581.644628" y="304.781595" style="fill: #1f77b4; stroke: #1f77b4"/>
     <use xlink:href="#m6b815244d7" x="586.768595" y="304.781301" style="fill: #1f77b4; stroke: #1f77b4"/>
     <use xlink:href="#m6b815244d7" x="591.892562" y="304.78103" style="fill: #1f77b4; stroke: #1f77b4"/>
     <use xlink:href="#m6b815244d7" x="597.016529" y="304.780783" style="fill: #1f77b4; stroke: #1f77b4"/>
     <use xlink:href="#m6b815244d7" x="602.140496" y="304.780556" style="fill: #1f77b4; stroke: #1f77b4"/>
     <use xlink:href="#m6b815244d7" x="607.264463" y="304.780347" style="fill: #1f77b4; stroke: #1f77b4"/>
     <use xlink:href="#m6b815244d7" x="612.38843" y="304.780156" style="fill: #1f77b4; stroke: #1f77b4"/>
     <use xlink:href="#m6b815244d7" x="617.512397" y="304.779981" style="fill: #1f77b4; stroke: #1f77b4"/>
     <use xlink:href="#m6b815244d7" x="622.636364" y="304.77982" style="fill: #1f77b4; stroke: #1f77b4"/>
    </g>
   </g>
   <g id="line2d_13">
    <path d="M 115.363636 55.8 
L 120.487603 90.939572 
L 125.61157 92.665952 
L 130.735537 92.859093 
L 135.859504 92.84098 
L 140.983471 92.684803 
L 146.107438 92.423926 
L 151.231405 92.086962 
L 156.355372 91.696708 
L 161.479339 91.270996 
L 166.603306 90.823788 
L 171.727273 90.366019 
L 176.85124 89.906211 
L 181.975207 89.450939 
L 187.099174 89.005205 
L 192.22314 88.572732 
L 197.347107 88.156212 
L 202.471074 87.757508 
L 207.595041 87.377817 
L 212.719008 87.017812 
L 217.842975 86.677748 
L 222.966942 86.357558 
L 228.090909 86.056926 
L 233.214876 85.775351 
L 238.338843 85.512192 
L 243.46281 85.266713 
L 248.586777 85.038111 
L 253.710744 84.825544 
L 258.834711 84.62815 
L 263.958678 84.445066 
L 269.082645 84.275435 
L 274.206612 84.118419 
L 279.330579 83.973205 
L 284.454545 83.83901 
L 289.578512 83.715086 
L 294.702479 83.600718 
L 299.826446 83.49523 
L 304.950413 83.397982 
L 310.07438 83.308375 
L 315.198347 83.225842 
L 320.322314 83.149855 
L 325.446281 83.079919 
L 330.570248 83.015573 
L 335.694215 82.956387 
L 340.818182 82.901963 
L 345.942149 82.851929 
L 351.066116 82.805941 
L 356.190083 82.763681 
L 361.31405 82.724854 
L 366.438017 82.689187 
L 371.561983 82.656427 
L 376.68595 82.626342 
L 381.809917 82.598718 
L 386.933884 82.573355 
L 392.057851 82.550072 
L 397.181818 82.528699 
L 402.305785 82.509082 
L 407.429752 82.491078 
L 412.553719 82.474556 
L 417.677686 82.459395 
L 422.801653 82.445483 
L 427.92562 82.432719 
L 433.049587 82.421008 
L 438.173554 82.410264 
L 443.297521 82.400407 
L 448.421488 82.391365 
L 453.545455 82.38307 
L 458.669421 82.375462 
L 463.793388 82.368483 
L 468.917355 82.362082 
L 474.041322 82.35621 
L 479.165289 82.350825 
L 484.289256 82.345886 
L 489.413223 82.341356 
L 494.53719 82.337201 
L 499.661157 82.333391 
L 504.785124 82.329897 
L 509.909091 82.326692 
L 515.033058 82.323753 
L 520.157025 82.321058 
L 525.280992 82.318586 
L 530.404959 82.31632 
L 535.528926 82.314241 
L 540.652893 82.312335 
L 545.77686 82.310587 
L 550.900826 82.308984 
L 556.024793 82.307514 
L 561.14876 82.306166 
L 566.272727 82.30493 
L 571.396694 82.303797 
L 576.520661 82.302757 
L 581.644628 82.301804 
L 586.768595 82.30093 
L 591.892562 82.300129 
L 597.016529 82.299394 
L 602.140496 82.29872 
L 607.264463 82.298102 
L 612.38843 82.297536 
L 617.512397 82.297016 
L 622.636364 82.29654 
" clip-path="url(#pd2db08d3b2)" style="fill: none; stroke: #ff7f0e; stroke-width: 1.5; stroke-linecap: square"/>
    <defs>
     <path id="m6f2ff9399f" d="M -3 3 
L 3 -3 
M -3 -3 
L 3 3 
" style="stroke: #ff7f0e"/>
    </defs>
    <g clip-path="url(#pd2db08d3b2)">
     <use xlink:href="#m6f2ff9399f" x="115.363636" y="55.8" style="fill: #ff7f0e; stroke: #ff7f0e"/>
     <use xlink:href="#m6f2ff9399f" x="120.487603" y="90.939572" style="fill: #ff7f0e; stroke: #ff7f0e"/>
     <use xlink:href="#m6f2ff9399f" x="125.61157" y="92.665952" style="fill: #ff7f0e; stroke: #ff7f0e"/>
     <use xlink:href="#m6f2ff9399f" x="130.735537" y="92.859093" style="fill: #ff7f0e; stroke: #ff7f0e"/>
     <use xlink:href="#m6f2ff9399f" x="135.859504" y="92.84098" style="fill: #ff7f0e; stroke: #ff7f0e"/>
     <use xlink:href="#m6f2ff9399f" x="140.983471" y="92.684803" style="fill: #ff7f0e; stroke: #ff7f0e"/>
     <use xlink:href="#m6f2ff9399f" x="146.107438" y="92.423926" style="fill: #ff7f0e; stroke: #ff7f0e"/>
     <use xlink:href="#m6f2ff9399f" x="151.231405" y="92.086962" style="fill: #ff7f0e; stroke: #ff7f0e"/>
     <use xlink:href="#m6f2ff9399f" x="156.355372" y="91.696708" style="fill: #ff7f0e; stroke: #ff7f0e"/>
     <use xlink:href="#m6f2ff9399f" x="161.479339" y="91.270996" style="fill: #ff7f0e; stroke: #ff7f0e"/>
     <use xlink:href="#m6f2ff9399f" x="166.603306" y="90.823788" style="fill: #ff7f0e; stroke: #ff7f0e"/>
     <use xlink:href="#m6f2ff9399f" x="171.727273" y="90.366019" style="fill: #ff7f0e; stroke: #ff7f0e"/>
     <use xlink:href="#m6f2ff9399f" x="176.85124" y="89.906211" style="fill: #ff7f0e; stroke: #ff7f0e"/>
     <use xlink:href="#m6f2ff9399f" x="181.975207" y="89.450939" style="fill: #ff7f0e; stroke: #ff7f0e"/>
     <use xlink:href="#m6f2ff9399f" x="187.099174" y="89.005205" style="fill: #ff7f0e; stroke: #ff7f0e"/>
     <use xlink:href="#m6f2ff9399f" x="192.22314" y="88.572732" style="fill: #ff7f0e; stroke: #ff7f0e"/>
     <use xlink:href="#m6f2ff9399f" x="197.347107" y="88.156212" style="fill: #ff7f0e; stroke: #ff7f0e"/>
     <use xlink:href="#m6f2ff9399f" x="202.471074" y="87.757508" style="fill: #ff7f0e; stroke: #ff7f0e"/>
     <use xlink:href="#m6f2ff9399f" x="207.595041" y="87.377817" style="fill: #ff7f0e; stroke: #ff7f0e"/>
     <use xlink:href="#m6f2ff9399f" x="212.719008" y="87.017812" style="fill: #ff7f0e; stroke: #ff7f0e"/>
     <use xlink:href="#m6f2ff9399f" x="217.842975" y="86.677748" style="fill: #ff7f0e; stroke: #ff7f0e"/>
     <use xlink:href="#m6f2ff9399f" x="222.966942" y="86.357558" style="fill: #ff7f0e; stroke: #ff7f0e"/>
     <use xlink:href="#m6f2ff9399f" x="228.090909" y="86.056926" style="fill: #ff7f0e; stroke: #ff7f0e"/>
     <use xlink:href="#m6f2ff9399f" x="233.214876" y="85.775351" style="fill: #ff7f0e; stroke: #ff7f0e"/>
     <use xlink:href="#m6f2ff9399f" x="238.338843" y="85.512192" style="fill: #ff7f0e; stroke: #ff7f0e"/>
     <use xlink:href="#m6f2ff9399f" x="243.46281" y="85.266713" style="fill: #ff7f0e; stroke: #ff7f0e"/>
     <use xlink:href="#m6f2ff9399f" x="248.586777" y="85.038111" style="fill: #ff7f0e; stroke: #ff7f0e"/>
     <use xlink:href="#m6f2ff9399f" x="253.710744" y="84.825544" style="fill: #ff7f0e; stroke: #ff7f0e"/>
     <use xlink:href="#m6f2ff9399f" x="258.834711" y="84.62815" style="fill: #ff7f0e; stroke: #ff7f0e"/>
     <use xlink:href="#m6f2ff9399f" x="263.958678" y="84.445066" style="fill: #ff7f0e; stroke: #ff7f0e"/>
     <use xlink:href="#m6f2ff9399f" x="269.082645" y="84.275435" style="fill: #ff7f0e; stroke: #ff7f0e"/>
     <use xlink:href="#m6f2ff9399f" x="274.206612" y="84.118419" style="fill: #ff7f0e; stroke: #ff7f0e"/>
     <use xlink:href="#m6f2ff9399f" x="279.330579" y="83.973205" style="fill: #ff7f0e; stroke: #ff7f0e"/>
     <use xlink:href="#m6f2ff9399f" x="284.454545" y="83.83901" style="fill: #ff7f0e; stroke: #ff7f0e"/>
     <use xlink:href="#m6f2ff9399f" x="289.578512" y="83.715086" style="fill: #ff7f0e; stroke: #ff7f0e"/>
     <use xlink:href="#m6f2ff9399f" x="294.702479" y="83.600718" style="fill: #ff7f0e; stroke: #ff7f0e"/>
     <use xlink:href="#m6f2ff9399f" x="299.826446" y="83.49523" style="fill: #ff7f0e; stroke: #ff7f0e"/>
     <use xlink:href="#m6f2ff9399f" x="304.950413" y="83.397982" style="fill: #ff7f0e; stroke: #ff7f0e"/>
     <use xlink:href="#m6f2ff9399f" x="310.07438" y="83.308375" style="fill: #ff7f0e; stroke: #ff7f0e"/>
     <use xlink:href="#m6f2ff9399f" x="315.198347" y="83.225842" style="fill: #ff7f0e; stroke: #ff7f0e"/>
     <use xlink:href="#m6f2ff9399f" x="320.322314" y="83.149855" style="fill: #ff7f0e; stroke: #ff7f0e"/>
     <use xlink:href="#m6f2ff9399f" x="325.446281" y="83.079919" style="fill: #ff7f0e; stroke: #ff7f0e"/>
     <use xlink:href="#m6f2ff9399f" x="330.570248" y="83.015573" style="fill: #ff7f0e; stroke: #ff7f0e"/>
     <use xlink:href="#m6f2ff9399f" x="335.694215" y="82.956387" style="fill: #ff7f0e; stroke: #ff7f0e"/>
     <use xlink:href="#m6f2ff9399f" x="340.818182" y="82.901963" style="fill: #ff7f0e; stroke: #ff7f0e"/>
     <use xlink:href="#m6f2ff9399f" x="345.942149" y="82.851929" style="fill: #ff7f0e; stroke: #ff7f0e"/>
     <use xlink:href="#m6f2ff9399f" x="351.066116" y="82.805941" style="fill: #ff7f0e; stroke: #ff7f0e"/>
     <use xlink:href="#m6f2ff9399f" x="356.190083" y="82.763681" style="fill: #ff7f0e; stroke: #ff7f0e"/>
     <use xlink:href="#m6f2ff9399f" x="361.31405" y="82.724854" style="fill: #ff7f0e; stroke: #ff7f0e"/>
     <use xlink:href="#m6f2ff9399f" x="366.438017" y="82.689187" style="fill: #ff7f0e; stroke: #ff7f0e"/>
     <use xlink:href="#m6f2ff9399f" x="371.561983" y="82.656427" style="fill: #ff7f0e; stroke: #ff7f0e"/>
     <use xlink:href="#m6f2ff9399f" x="376.68595" y="82.626342" style="fill: #ff7f0e; stroke: #ff7f0e"/>
     <use xlink:href="#m6f2ff9399f" x="381.809917" y="82.598718" style="fill: #ff7f0e; stroke: #ff7f0e"/>
     <use xlink:href="#m6f2ff9399f" x="386.933884" y="82.573355" style="fill: #ff7f0e; stroke: #ff7f0e"/>
     <use xlink:href="#m6f2ff9399f" x="392.057851" y="82.550072" style="fill: #ff7f0e; stroke: #ff7f0e"/>
     <use xlink:href="#m6f2ff9399f" x="397.181818" y="82.528699" style="fill: #ff7f0e; stroke: #ff7f0e"/>
     <use xlink:href="#m6f2ff9399f" x="402.305785" y="82.509082" style="fill: #ff7f0e; stroke: #ff7f0e"/>
     <use xlink:href="#m6f2ff9399f" x="407.429752" y="82.491078" style="fill: #ff7f0e; stroke: #ff7f0e"/>
     <use xlink:href="#m6f2ff9399f" x="412.553719" y="82.474556" style="fill: #ff7f0e; stroke: #ff7f0e"/>
     <use xlink:href="#m6f2ff9399f" x="417.677686" y="82.459395" style="fill: #ff7f0e; stroke: #ff7f0e"/>
     <use xlink:href="#m6f2ff9399f" x="422.801653" y="82.445483" style="fill: #ff7f0e; stroke: #ff7f0e"/>
     <use xlink:href="#m6f2ff9399f" x="427.92562" y="82.432719" style="fill: #ff7f0e; stroke: #ff7f0e"/>
     <use xlink:href="#m6f2ff9399f" x="433.049587" y="82.421008" style="fill: #ff7f0e; stroke: #ff7f0e"/>
     <use xlink:href="#m6f2ff9399f" x="438.173554" y="82.410264" style="fill: #ff7f0e; stroke: #ff7f0e"/>
     <use xlink:href="#m6f2ff9399f" x="443.297521" y="82.400407" style="fill: #ff7f0e; stroke: #ff7f0e"/>
     <use xlink:href="#m6f2ff9399f" x="448.421488" y="82.391365" style="fill: #ff7f0e; stroke: #ff7f0e"/>
     <use xlink:href="#m6f2ff9399f" x="453.545455" y="82.38307" style="fill: #ff7f0e; stroke: #ff7f0e"/>
     <use xlink:href="#m6f2ff9399f" x="458.669421" y="82.375462" style="fill: #ff7f0e; stroke: #ff7f0e"/>
     <use xlink:href="#m6f2ff9399f" x="463.793388" y="82.368483" style="fill: #ff7f0e; stroke: #ff7f0e"/>
     <use xlink:href="#m6f2ff9399f" x="468.917355" y="82.362082" style="fill: #ff7f0e; stroke: #ff7f0e"/>
     <use xlink:href="#m6f2ff9399f" x="474.041322" y="82.35621" style="fill: #ff7f0e; stroke: #ff7f0e"/>
     <use xlink:href="#m6f2ff9399f" x="479.165289" y="82.350825" style="fill: #ff7f0e; stroke: #ff7f0e"/>
     <use xlink:href="#m6f2ff9399f" x="484.289256" y="82.345886" style="fill: #ff7f0e; stroke: #ff7f0e"/>
     <use xlink:href="#m6f2ff9399f" x="489.413223" y="82.341356" style="fill: #ff7f0e; stroke: #ff7f0e"/>
     <use xlink:href="#m6f2ff9399f" x="494.53719" y="82.337201" style="fill: #ff7f0e; stroke: #ff7f0e"/>
     <use xlink:href="#m6f2ff9399f" x="499.661157" y="82.333391" style="fill: #ff7f0e; stroke: #ff7f0e"/>
     <use xlink:href="#m6f2ff9399f" x="504.785124" y="82.329897" style="fill: #ff7f0e; stroke: #ff7f0e"/>
     <use xlink:href="#m6f2ff9399f" x="509.909091" y="82.326692" style="fill: #ff7f0e; stroke: #ff7f0e"/>
     <use xlink:href="#m6f2ff9399f" x="515.033058" y="82.323753" style="fill: #ff7f0e; stroke: #ff7f0e"/>
     <use xlink:href="#m6f2ff9399f" x="520.157025" y="82.321058" style="fill: #ff7f0e; stroke: #ff7f0e"/>
     <use xlink:href="#m6f2ff9399f" x="525.280992" y="82.318586" style="fill: #ff7f0e; stroke: #ff7f0e"/>
     <use xlink:href="#m6f2ff9399f" x="530.404959" y="82.31632" style="fill: #ff7f0e; stroke: #ff7f0e"/>
     <use xlink:href="#m6f2ff9399f" x="535.528926" y="82.314241" style="fill: #ff7f0e; stroke: #ff7f0e"/>
     <use xlink:href="#m6f2ff9399f" x="540.652893" y="82.312335" style="fill: #ff7f0e; stroke: #ff7f0e"/>
     <use xlink:href="#m6f2ff9399f" x="545.77686" y="82.310587" style="fill: #ff7f0e; stroke: #ff7f0e"/>
     <use xlink:href="#m6f2ff9399f" x="550.900826" y="82.308984" style="fill: #ff7f0e; stroke: #ff7f0e"/>
     <use xlink:href="#m6f2ff9399f" x="556.024793" y="82.307514" style="fill: #ff7f0e; stroke: #ff7f0e"/>
     <use xlink:href="#m6f2ff9399f" x="561.14876" y="82.306166" style="fill: #ff7f0e; stroke: #ff7f0e"/>
     <use xlink:href="#m6f2ff9399f" x="566.272727" y="82.30493" style="fill: #ff7f0e; stroke: #ff7f0e"/>
     <use xlink:href="#m6f2ff9399f" x="571.396694" y="82.303797" style="fill: #ff7f0e; stroke: #ff7f0e"/>
     <use xlink:href="#m6f2ff9399f" x="576.520661" y="82.302757" style="fill: #ff7f0e; stroke: #ff7f0e"/>
     <use xlink:href="#m6f2ff9399f" x="581.644628" y="82.301804" style="fill: #ff7f0e; stroke: #ff7f0e"/>
     <use xlink:href="#m6f2ff9399f" x="586.768595" y="82.30093" style="fill: #ff7f0e; stroke: #ff7f0e"/>
     <use xlink:href="#m6f2ff9399f" x="591.892562" y="82.300129" style="fill: #ff7f0e; stroke: #ff7f0e"/>
     <use xlink:href="#m6f2ff9399f" x="597.016529" y="82.299394" style="fill: #ff7f0e; stroke: #ff7f0e"/>
     <use xlink:href="#m6f2ff9399f" x="602.140496" y="82.29872" style="fill: #ff7f0e; stroke: #ff7f0e"/>
     <use xlink:href="#m6f2ff9399f" x="607.264463" y="82.298102" style="fill: #ff7f0e; stroke: #ff7f0e"/>
     <use xlink:href="#m6f2ff9399f" x="612.38843" y="82.297536" style="fill: #ff7f0e; stroke: #ff7f0e"/>
     <use xlink:href="#m6f2ff9399f" x="617.512397" y="82.297016" style="fill: #ff7f0e; stroke: #ff7f0e"/>
     <use xlink:href="#m6f2ff9399f" x="622.636364" y="82.29654" style="fill: #ff7f0e; stroke: #ff7f0e"/>
    </g>
   </g>
   <g id="patch_3">
    <path d="M 90 320.4 
L 90 43.2 
" style="fill: none; stroke: #000000; stroke-width: 0.8; stroke-linejoin: miter; stroke-linecap: square"/>
   </g>
   <g id="patch_4">
    <path d="M 648 320.4 
L 648 43.2 
" style="fill: none; stroke: #000000; stroke-width: 0.8; stroke-linejoin: miter; stroke-linecap: square"/>
   </g>
   <g id="patch_5">
    <path d="M 90 320.4 
L 648 320.4 
" style="fill: none; stroke: #000000; stroke-width: 0.8; stroke-linejoin: miter; stroke-linecap: square"/>
   </g>
   <g id="patch_6">
    <path d="M 90 43.2 
L 648 43.2 
" style="fill: none; stroke: #000000; stroke-width: 0.8; stroke-linejoin: miter; stroke-linecap: square"/>
   </g>
   <g id="text_14">
    <!-- RMSE Over Epochs -->
    <g transform="translate(312.308438 37.2) scale(0.12 -0.12)">
     <defs>
      <path id="DejaVuSans-20" transform="scale(0.015625)"/>
      <path id="DejaVuSans-4f" d="M 2522 4238 
Q 1834 4238 1429 3725 
Q 1025 3213 1025 2328 
Q 1025 1447 1429 934 
Q 1834 422 2522 422 
Q 3209 422 3611 934 
Q 4013 1447 4013 2328 
Q 4013 3213 3611 3725 
Q 3209 4238 2522 4238 
z
M 2522 4750 
Q 3503 4750 4090 4092 
Q 4678 3434 4678 2328 
Q 4678 1225 4090 567 
Q 3503 -91 2522 -91 
Q 1538 -91 948 565 
Q 359 1222 359 2328 
Q 359 3434 948 4092 
Q 1538 4750 2522 4750 
z
" transform="scale(0.015625)"/>
      <path id="DejaVuSans-76" d="M 191 3500 
L 800 3500 
L 1894 563 
L 2988 3500 
L 3597 3500 
L 2284 0 
L 1503 0 
L 191 3500 
z
" transform="scale(0.015625)"/>
      <path id="DejaVuSans-65" d="M 3597 1894 
L 3597 1613 
L 953 1613 
Q 991 1019 1311 708 
Q 1631 397 2203 397 
Q 2534 397 2845 478 
Q 3156 559 3463 722 
L 3463 178 
Q 3153 47 2828 -22 
Q 2503 -91 2169 -91 
Q 1331 -91 842 396 
Q 353 884 353 1716 
Q 353 2575 817 3079 
Q 1281 3584 2069 3584 
Q 2775 3584 3186 3129 
Q 3597 2675 3597 1894 
z
M 3022 2063 
Q 3016 2534 2758 2815 
Q 2500 3097 2075 3097 
Q 1594 3097 1305 2825 
Q 1016 2553 972 2059 
L 3022 2063 
z
" transform="scale(0.015625)"/>
      <path id="DejaVuSans-72" d="M 2631 2963 
Q 2534 3019 2420 3045 
Q 2306 3072 2169 3072 
Q 1681 3072 1420 2755 
Q 1159 2438 1159 1844 
L 1159 0 
L 581 0 
L 581 3500 
L 1159 3500 
L 1159 2956 
Q 1341 3275 1631 3429 
Q 1922 3584 2338 3584 
Q 2397 3584 2469 3576 
Q 2541 3569 2628 3553 
L 2631 2963 
z
" transform="scale(0.015625)"/>
      <path id="DejaVuSans-73" d="M 2834 3397 
L 2834 2853 
Q 2591 2978 2328 3040 
Q 2066 3103 1784 3103 
Q 1356 3103 1142 2972 
Q 928 2841 928 2578 
Q 928 2378 1081 2264 
Q 1234 2150 1697 2047 
L 1894 2003 
Q 2506 1872 2764 1633 
Q 3022 1394 3022 966 
Q 3022 478 2636 193 
Q 2250 -91 1575 -91 
Q 1294 -91 989 -36 
Q 684 19 347 128 
L 347 722 
Q 666 556 975 473 
Q 1284 391 1588 391 
Q 1994 391 2212 530 
Q 2431 669 2431 922 
Q 2431 1156 2273 1281 
Q 2116 1406 1581 1522 
L 1381 1569 
Q 847 1681 609 1914 
Q 372 2147 372 2553 
Q 372 3047 722 3315 
Q 1072 3584 1716 3584 
Q 2034 3584 2315 3537 
Q 2597 3491 2834 3397 
z
" transform="scale(0.015625)"/>
     </defs>
     <use xlink:href="#DejaVuSans-52"/>
     <use xlink:href="#DejaVuSans-4d" transform="translate(69.482422 0)"/>
     <use xlink:href="#DejaVuSans-53" transform="translate(155.761719 0)"/>
     <use xlink:href="#DejaVuSans-45" transform="translate(219.238281 0)"/>
     <use xlink:href="#DejaVuSans-20" transform="translate(282.421875 0)"/>
     <use xlink:href="#DejaVuSans-4f" transform="translate(314.208984 0)"/>
     <use xlink:href="#DejaVuSans-76" transform="translate(392.919922 0)"/>
     <use xlink:href="#DejaVuSans-65" transform="translate(452.099609 0)"/>
     <use xlink:href="#DejaVuSans-72" transform="translate(513.623047 0)"/>
     <use xlink:href="#DejaVuSans-20" transform="translate(554.736328 0)"/>
     <use xlink:href="#DejaVuSans-45" transform="translate(586.523438 0)"/>
     <use xlink:href="#DejaVuSans-70" transform="translate(649.707031 0)"/>
     <use xlink:href="#DejaVuSans-6f" transform="translate(713.183594 0)"/>
     <use xlink:href="#DejaVuSans-63" transform="translate(774.365234 0)"/>
     <use xlink:href="#DejaVuSans-68" transform="translate(829.345703 0)"/>
     <use xlink:href="#DejaVuSans-73" transform="translate(892.724609 0)"/>
    </g>
   </g>
   <g id="legend_1">
    <g id="patch_7">
     <path d="M 538.126562 80.55625 
L 641 80.55625 
Q 643 80.55625 643 78.55625 
L 643 50.2 
Q 643 48.2 641 48.2 
L 538.126562 48.2 
Q 536.126562 48.2 536.126562 50.2 
L 536.126562 78.55625 
Q 536.126562 80.55625 538.126562 80.55625 
z
" style="fill: #ffffff; opacity: 0.8; stroke: #cccccc; stroke-linejoin: miter"/>
    </g>
    <g id="line2d_14">
     <path d="M 540.126562 56.298437 
L 550.126562 56.298437 
L 560.126562 56.298437 
" style="fill: none; stroke: #1f77b4; stroke-width: 1.5; stroke-linecap: square"/>
     <g>
      <use xlink:href="#m6b815244d7" x="550.126562" y="56.298437" style="fill: #1f77b4; stroke: #1f77b4"/>
     </g>
    </g>
    <g id="text_15">
     <!-- Training RMSE -->
     <g transform="translate(568.126562 59.798437) scale(0.1 -0.1)">
      <defs>
       <path id="DejaVuSans-54" d="M -19 4666 
L 3928 4666 
L 3928 4134 
L 2272 4134 
L 2272 0 
L 1638 0 
L 1638 4134 
L -19 4134 
L -19 4666 
z
" transform="scale(0.015625)"/>
       <path id="DejaVuSans-61" d="M 2194 1759 
Q 1497 1759 1228 1600 
Q 959 1441 959 1056 
Q 959 750 1161 570 
Q 1363 391 1709 391 
Q 2188 391 2477 730 
Q 2766 1069 2766 1631 
L 2766 1759 
L 2194 1759 
z
M 3341 1997 
L 3341 0 
L 2766 0 
L 2766 531 
Q 2569 213 2275 61 
Q 1981 -91 1556 -91 
Q 1019 -91 701 211 
Q 384 513 384 1019 
Q 384 1609 779 1909 
Q 1175 2209 1959 2209 
L 2766 2209 
L 2766 2266 
Q 2766 2663 2505 2880 
Q 2244 3097 1772 3097 
Q 1472 3097 1187 3025 
Q 903 2953 641 2809 
L 641 3341 
Q 956 3463 1253 3523 
Q 1550 3584 1831 3584 
Q 2591 3584 2966 3190 
Q 3341 2797 3341 1997 
z
" transform="scale(0.015625)"/>
       <path id="DejaVuSans-69" d="M 603 3500 
L 1178 3500 
L 1178 0 
L 603 0 
L 603 3500 
z
M 603 4863 
L 1178 4863 
L 1178 4134 
L 603 4134 
L 603 4863 
z
" transform="scale(0.015625)"/>
       <path id="DejaVuSans-6e" d="M 3513 2113 
L 3513 0 
L 2938 0 
L 2938 2094 
Q 2938 2591 2744 2837 
Q 2550 3084 2163 3084 
Q 1697 3084 1428 2787 
Q 1159 2491 1159 1978 
L 1159 0 
L 581 0 
L 581 3500 
L 1159 3500 
L 1159 2956 
Q 1366 3272 1645 3428 
Q 1925 3584 2291 3584 
Q 2894 3584 3203 3211 
Q 3513 2838 3513 2113 
z
" transform="scale(0.015625)"/>
       <path id="DejaVuSans-67" d="M 2906 1791 
Q 2906 2416 2648 2759 
Q 2391 3103 1925 3103 
Q 1463 3103 1205 2759 
Q 947 2416 947 1791 
Q 947 1169 1205 825 
Q 1463 481 1925 481 
Q 2391 481 2648 825 
Q 2906 1169 2906 1791 
z
M 3481 434 
Q 3481 -459 3084 -895 
Q 2688 -1331 1869 -1331 
Q 1566 -1331 1297 -1286 
Q 1028 -1241 775 -1147 
L 775 -588 
Q 1028 -725 1275 -790 
Q 1522 -856 1778 -856 
Q 2344 -856 2625 -561 
Q 2906 -266 2906 331 
L 2906 616 
Q 2728 306 2450 153 
Q 2172 0 1784 0 
Q 1141 0 747 490 
Q 353 981 353 1791 
Q 353 2603 747 3093 
Q 1141 3584 1784 3584 
Q 2172 3584 2450 3431 
Q 2728 3278 2906 2969 
L 2906 3500 
L 3481 3500 
L 3481 434 
z
" transform="scale(0.015625)"/>
      </defs>
      <use xlink:href="#DejaVuSans-54"/>
      <use xlink:href="#DejaVuSans-72" transform="translate(46.333984 0)"/>
      <use xlink:href="#DejaVuSans-61" transform="translate(87.447266 0)"/>
      <use xlink:href="#DejaVuSans-69" transform="translate(148.726562 0)"/>
      <use xlink:href="#DejaVuSans-6e" transform="translate(176.509766 0)"/>
      <use xlink:href="#DejaVuSans-69" transform="translate(239.888672 0)"/>
      <use xlink:href="#DejaVuSans-6e" transform="translate(267.671875 0)"/>
      <use xlink:href="#DejaVuSans-67" transform="translate(331.050781 0)"/>
      <use xlink:href="#DejaVuSans-20" transform="translate(394.527344 0)"/>
      <use xlink:href="#DejaVuSans-52" transform="translate(426.314453 0)"/>
      <use xlink:href="#DejaVuSans-4d" transform="translate(495.796875 0)"/>
      <use xlink:href="#DejaVuSans-53" transform="translate(582.076172 0)"/>
      <use xlink:href="#DejaVuSans-45" transform="translate(645.552734 0)"/>
     </g>
    </g>
    <g id="line2d_15">
     <path d="M 540.126562 70.976562 
L 550.126562 70.976562 
L 560.126562 70.976562 
" style="fill: none; stroke: #ff7f0e; stroke-width: 1.5; stroke-linecap: square"/>
     <g>
      <use xlink:href="#m6f2ff9399f" x="550.126562" y="70.976562" style="fill: #ff7f0e; stroke: #ff7f0e"/>
     </g>
    </g>
    <g id="text_16">
     <!-- Testing RMSE -->
     <g transform="translate(568.126562 74.476562) scale(0.1 -0.1)">
      <defs>
       <path id="DejaVuSans-74" d="M 1172 4494 
L 1172 3500 
L 2356 3500 
L 2356 3053 
L 1172 3053 
L 1172 1153 
Q 1172 725 1289 603 
Q 1406 481 1766 481 
L 2356 481 
L 2356 0 
L 1766 0 
Q 1100 0 847 248 
Q 594 497 594 1153 
L 594 3053 
L 172 3053 
L 172 3500 
L 594 3500 
L 594 4494 
L 1172 4494 
z
" transform="scale(0.015625)"/>
      </defs>
      <use xlink:href="#DejaVuSans-54"/>
      <use xlink:href="#DejaVuSans-65" transform="translate(44.083984 0)"/>
      <use xlink:href="#DejaVuSans-73" transform="translate(105.607422 0)"/>
      <use xlink:href="#DejaVuSans-74" transform="translate(157.707031 0)"/>
      <use xlink:href="#DejaVuSans-69" transform="translate(196.916016 0)"/>
      <use xlink:href="#DejaVuSans-6e" transform="translate(224.699219 0)"/>
      <use xlink:href="#DejaVuSans-67" transform="translate(288.078125 0)"/>
      <use xlink:href="#DejaVuSans-20" transform="translate(351.554688 0)"/>
      <use xlink:href="#DejaVuSans-52" transform="translate(383.341797 0)"/>
      <use xlink:href="#DejaVuSans-4d" transform="translate(452.824219 0)"/>
      <use xlink:href="#DejaVuSans-53" transform="translate(539.103516 0)"/>
      <use xlink:href="#DejaVuSans-45" transform="translate(602.580078 0)"/>
     </g>
    </g>
   </g>
  </g>
 </g>
 <defs>
  <clipPath id="pd2db08d3b2">
   <rect x="90" y="43.2" width="558" height="277.2"/>
  </clipPath>
 </defs>
</svg>
