<?xml version="1.0" encoding="utf-8" standalone="no"?>
<!DOCTYPE svg PUBLIC "-//W3C//DTD SVG 1.1//EN"
  "http://www.w3.org/Graphics/SVG/1.1/DTD/svg11.dtd">
<svg xmlns:xlink="http://www.w3.org/1999/xlink" width="720pt" height="360pt" viewBox="0 0 720 360" xmlns="http://www.w3.org/2000/svg" version="1.1">
 <metadata>
  <rdf:RDF xmlns:dc="http://purl.org/dc/elements/1.1/" xmlns:cc="http://creativecommons.org/ns#" xmlns:rdf="http://www.w3.org/1999/02/22-rdf-syntax-ns#">
   <cc:Work>
    <dc:type rdf:resource="http://purl.org/dc/dcmitype/StillImage"/>
    <dc:date>2025-07-18T09:57:03.686280</dc:date>
    <dc:format>image/svg+xml</dc:format>
    <dc:creator>
     <cc:Agent>
      <dc:title>Matplotlib v3.10.3, https://matplotlib.org/</dc:title>
     </cc:Agent>
    </dc:creator>
   </cc:Work>
  </rdf:RDF>
 </metadata>
 <defs>
  <style type="text/css">*{stroke-linejoin: round; stroke-linecap: butt}</style>
 </defs>
 <g id="figure_1">
  <g id="patch_1">
   <path d="M 0 360 
L 720 360 
L 720 0 
L 0 0 
z
" style="fill: #ffffff"/>
  </g>
  <g id="axes_1">
   <g id="patch_2">
    <path d="M 90 320.4 
L 648 320.4 
L 648 43.2 
L 90 43.2 
z
" style="fill: #ffffff"/>
   </g>
   <g id="matplotlib.axis_1">
    <g id="xtick_1">
     <g id="line2d_1">
      <defs>
       <path id="md5e2a24423" d="M 0 0 
L 0 3.5 
" style="stroke: #000000; stroke-width: 0.8"/>
      </defs>
      <g>
       <use xlink:href="#md5e2a24423" x="110.239669" y="320.4" style="stroke: #000000; stroke-width: 0.8"/>
      </g>
     </g>
     <g id="text_1">
      <!-- 0 -->
      <g transform="translate(107.058419 334.998438) scale(0.1 -0.1)">
       <defs>
        <path id="DejaVuSans-30" d="M 2034 4250 
Q 1547 4250 1301 3770 
Q 1056 3291 1056 2328 
Q 1056 1369 1301 889 
Q 1547 409 2034 409 
Q 2525 409 2770 889 
Q 3016 1369 3016 2328 
Q 3016 3291 2770 3770 
Q 2525 4250 2034 4250 
z
M 2034 4750 
Q 2819 4750 3233 4129 
Q 3647 3509 3647 2328 
Q 3647 1150 3233 529 
Q 2819 -91 2034 -91 
Q 1250 -91 836 529 
Q 422 1150 422 2328 
Q 422 3509 836 4129 
Q 1250 4750 2034 4750 
z
" transform="scale(0.015625)"/>
       </defs>
       <use xlink:href="#DejaVuSans-30"/>
      </g>
     </g>
    </g>
    <g id="xtick_2">
     <g id="line2d_2">
      <g>
       <use xlink:href="#md5e2a24423" x="212.719008" y="320.4" style="stroke: #000000; stroke-width: 0.8"/>
      </g>
     </g>
     <g id="text_2">
      <!-- 20 -->
      <g transform="translate(206.356508 334.998438) scale(0.1 -0.1)">
       <defs>
        <path id="DejaVuSans-32" d="M 1228 531 
L 3431 531 
L 3431 0 
L 469 0 
L 469 531 
Q 828 903 1448 1529 
Q 2069 2156 2228 2338 
Q 2531 2678 2651 2914 
Q 2772 3150 2772 3378 
Q 2772 3750 2511 3984 
Q 2250 4219 1831 4219 
Q 1534 4219 1204 4116 
Q 875 4013 500 3803 
L 500 4441 
Q 881 4594 1212 4672 
Q 1544 4750 1819 4750 
Q 2544 4750 2975 4387 
Q 3406 4025 3406 3419 
Q 3406 3131 3298 2873 
Q 3191 2616 2906 2266 
Q 2828 2175 2409 1742 
Q 1991 1309 1228 531 
z
" transform="scale(0.015625)"/>
       </defs>
       <use xlink:href="#DejaVuSans-32"/>
       <use xlink:href="#DejaVuSans-30" transform="translate(63.623047 0)"/>
      </g>
     </g>
    </g>
    <g id="xtick_3">
     <g id="line2d_3">
      <g>
       <use xlink:href="#md5e2a24423" x="315.198347" y="320.4" style="stroke: #000000; stroke-width: 0.8"/>
      </g>
     </g>
     <g id="text_3">
      <!-- 40 -->
      <g transform="translate(308.835847 334.998438) scale(0.1 -0.1)">
       <defs>
        <path id="DejaVuSans-34" d="M 2419 4116 
L 825 1625 
L 2419 1625 
L 2419 4116 
z
M 2253 4666 
L 3047 4666 
L 3047 1625 
L 3713 1625 
L 3713 1100 
L 3047 1100 
L 3047 0 
L 2419 0 
L 2419 1100 
L 313 1100 
L 313 1709 
L 2253 4666 
z
" transform="scale(0.015625)"/>
       </defs>
       <use xlink:href="#DejaVuSans-34"/>
       <use xlink:href="#DejaVuSans-30" transform="translate(63.623047 0)"/>
      </g>
     </g>
    </g>
    <g id="xtick_4">
     <g id="line2d_4">
      <g>
       <use xlink:href="#md5e2a24423" x="417.677686" y="320.4" style="stroke: #000000; stroke-width: 0.8"/>
      </g>
     </g>
     <g id="text_4">
      <!-- 60 -->
      <g transform="translate(411.315186 334.998438) scale(0.1 -0.1)">
       <defs>
        <path id="DejaVuSans-36" d="M 2113 2584 
Q 1688 2584 1439 2293 
Q 1191 2003 1191 1497 
Q 1191 994 1439 701 
Q 1688 409 2113 409 
Q 2538 409 2786 701 
Q 3034 994 3034 1497 
Q 3034 2003 2786 2293 
Q 2538 2584 2113 2584 
z
M 3366 4563 
L 3366 3988 
Q 3128 4100 2886 4159 
Q 2644 4219 2406 4219 
Q 1781 4219 1451 3797 
Q 1122 3375 1075 2522 
Q 1259 2794 1537 2939 
Q 1816 3084 2150 3084 
Q 2853 3084 3261 2657 
Q 3669 2231 3669 1497 
Q 3669 778 3244 343 
Q 2819 -91 2113 -91 
Q 1303 -91 875 529 
Q 447 1150 447 2328 
Q 447 3434 972 4092 
Q 1497 4750 2381 4750 
Q 2619 4750 2861 4703 
Q 3103 4656 3366 4563 
z
" transform="scale(0.015625)"/>
       </defs>
       <use xlink:href="#DejaVuSans-36"/>
       <use xlink:href="#DejaVuSans-30" transform="translate(63.623047 0)"/>
      </g>
     </g>
    </g>
    <g id="xtick_5">
     <g id="line2d_5">
      <g>
       <use xlink:href="#md5e2a24423" x="520.157025" y="320.4" style="stroke: #000000; stroke-width: 0.8"/>
      </g>
     </g>
     <g id="text_5">
      <!-- 80 -->
      <g transform="translate(513.794525 334.998438) scale(0.1 -0.1)">
       <defs>
        <path id="DejaVuSans-38" d="M 2034 2216 
Q 1584 2216 1326 1975 
Q 1069 1734 1069 1313 
Q 1069 891 1326 650 
Q 1584 409 2034 409 
Q 2484 409 2743 651 
Q 3003 894 3003 1313 
Q 3003 1734 2745 1975 
Q 2488 2216 2034 2216 
z
M 1403 2484 
Q 997 2584 770 2862 
Q 544 3141 544 3541 
Q 544 4100 942 4425 
Q 1341 4750 2034 4750 
Q 2731 4750 3128 4425 
Q 3525 4100 3525 3541 
Q 3525 3141 3298 2862 
Q 3072 2584 2669 2484 
Q 3125 2378 3379 2068 
Q 3634 1759 3634 1313 
Q 3634 634 3220 271 
Q 2806 -91 2034 -91 
Q 1263 -91 848 271 
Q 434 634 434 1313 
Q 434 1759 690 2068 
Q 947 2378 1403 2484 
z
M 1172 3481 
Q 1172 3119 1398 2916 
Q 1625 2713 2034 2713 
Q 2441 2713 2670 2916 
Q 2900 3119 2900 3481 
Q 2900 3844 2670 4047 
Q 2441 4250 2034 4250 
Q 1625 4250 1398 4047 
Q 1172 3844 1172 3481 
z
" transform="scale(0.015625)"/>
       </defs>
       <use xlink:href="#DejaVuSans-38"/>
       <use xlink:href="#DejaVuSans-30" transform="translate(63.623047 0)"/>
      </g>
     </g>
    </g>
    <g id="xtick_6">
     <g id="line2d_6">
      <g>
       <use xlink:href="#md5e2a24423" x="622.636364" y="320.4" style="stroke: #000000; stroke-width: 0.8"/>
      </g>
     </g>
     <g id="text_6">
      <!-- 100 -->
      <g transform="translate(613.092614 334.998438) scale(0.1 -0.1)">
       <defs>
        <path id="DejaVuSans-31" d="M 794 531 
L 1825 531 
L 1825 4091 
L 703 3866 
L 703 4441 
L 1819 4666 
L 2450 4666 
L 2450 531 
L 3481 531 
L 3481 0 
L 794 0 
L 794 531 
z
" transform="scale(0.015625)"/>
       </defs>
       <use xlink:href="#DejaVuSans-31"/>
       <use xlink:href="#DejaVuSans-30" transform="translate(63.623047 0)"/>
       <use xlink:href="#DejaVuSans-30" transform="translate(127.246094 0)"/>
      </g>
     </g>
    </g>
    <g id="text_7">
     <!-- Epoch -->
     <g transform="translate(353.689062 348.676562) scale(0.1 -0.1)">
      <defs>
       <path id="DejaVuSans-45" d="M 628 4666 
L 3578 4666 
L 3578 4134 
L 1259 4134 
L 1259 2753 
L 3481 2753 
L 3481 2222 
L 1259 2222 
L 1259 531 
L 3634 531 
L 3634 0 
L 628 0 
L 628 4666 
z
" transform="scale(0.015625)"/>
       <path id="DejaVuSans-70" d="M 1159 525 
L 1159 -1331 
L 581 -1331 
L 581 3500 
L 1159 3500 
L 1159 2969 
Q 1341 3281 1617 3432 
Q 1894 3584 2278 3584 
Q 2916 3584 3314 3078 
Q 3713 2572 3713 1747 
Q 3713 922 3314 415 
Q 2916 -91 2278 -91 
Q 1894 -91 1617 61 
Q 1341 213 1159 525 
z
M 3116 1747 
Q 3116 2381 2855 2742 
Q 2594 3103 2138 3103 
Q 1681 3103 1420 2742 
Q 1159 2381 1159 1747 
Q 1159 1113 1420 752 
Q 1681 391 2138 391 
Q 2594 391 2855 752 
Q 3116 1113 3116 1747 
z
" transform="scale(0.015625)"/>
       <path id="DejaVuSans-6f" d="M 1959 3097 
Q 1497 3097 1228 2736 
Q 959 2375 959 1747 
Q 959 1119 1226 758 
Q 1494 397 1959 397 
Q 2419 397 2687 759 
Q 2956 1122 2956 1747 
Q 2956 2369 2687 2733 
Q 2419 3097 1959 3097 
z
M 1959 3584 
Q 2709 3584 3137 3096 
Q 3566 2609 3566 1747 
Q 3566 888 3137 398 
Q 2709 -91 1959 -91 
Q 1206 -91 779 398 
Q 353 888 353 1747 
Q 353 2609 779 3096 
Q 1206 3584 1959 3584 
z
" transform="scale(0.015625)"/>
       <path id="DejaVuSans-63" d="M 3122 3366 
L 3122 2828 
Q 2878 2963 2633 3030 
Q 2388 3097 2138 3097 
Q 1578 3097 1268 2742 
Q 959 2388 959 1747 
Q 959 1106 1268 751 
Q 1578 397 2138 397 
Q 2388 397 2633 464 
Q 2878 531 3122 666 
L 3122 134 
Q 2881 22 2623 -34 
Q 2366 -91 2075 -91 
Q 1284 -91 818 406 
Q 353 903 353 1747 
Q 353 2603 823 3093 
Q 1294 3584 2113 3584 
Q 2378 3584 2631 3529 
Q 2884 3475 3122 3366 
z
" transform="scale(0.015625)"/>
       <path id="DejaVuSans-68" d="M 3513 2113 
L 3513 0 
L 2938 0 
L 2938 2094 
Q 2938 2591 2744 2837 
Q 2550 3084 2163 3084 
Q 1697 3084 1428 2787 
Q 1159 2491 1159 1978 
L 1159 0 
L 581 0 
L 581 4863 
L 1159 4863 
L 1159 2956 
Q 1366 3272 1645 3428 
Q 1925 3584 2291 3584 
Q 2894 3584 3203 3211 
Q 3513 2838 3513 2113 
z
" transform="scale(0.015625)"/>
      </defs>
      <use xlink:href="#DejaVuSans-45"/>
      <use xlink:href="#DejaVuSans-70" transform="translate(63.183594 0)"/>
      <use xlink:href="#DejaVuSans-6f" transform="translate(126.660156 0)"/>
      <use xlink:href="#DejaVuSans-63" transform="translate(187.841797 0)"/>
      <use xlink:href="#DejaVuSans-68" transform="translate(242.822266 0)"/>
     </g>
    </g>
   </g>
   <g id="matplotlib.axis_2">
    <g id="ytick_1">
     <g id="line2d_7">
      <defs>
       <path id="m2c7b25193b" d="M 0 0 
L -3.5 0 
" style="stroke: #000000; stroke-width: 0.8"/>
      </defs>
      <g>
       <use xlink:href="#m2c7b25193b" x="90" y="281.844465" style="stroke: #000000; stroke-width: 0.8"/>
      </g>
     </g>
     <g id="text_8">
      <!-- 0.80 -->
      <g transform="translate(60.734375 285.643684) scale(0.1 -0.1)">
       <defs>
        <path id="DejaVuSans-2e" d="M 684 794 
L 1344 794 
L 1344 0 
L 684 0 
L 684 794 
z
" transform="scale(0.015625)"/>
       </defs>
       <use xlink:href="#DejaVuSans-30"/>
       <use xlink:href="#DejaVuSans-2e" transform="translate(63.623047 0)"/>
       <use xlink:href="#DejaVuSans-38" transform="translate(95.410156 0)"/>
       <use xlink:href="#DejaVuSans-30" transform="translate(159.033203 0)"/>
      </g>
     </g>
    </g>
    <g id="ytick_2">
     <g id="line2d_8">
      <g>
       <use xlink:href="#m2c7b25193b" x="90" y="221.116729" style="stroke: #000000; stroke-width: 0.8"/>
      </g>
     </g>
     <g id="text_9">
      <!-- 0.82 -->
      <g transform="translate(60.734375 224.915948) scale(0.1 -0.1)">
       <use xlink:href="#DejaVuSans-30"/>
       <use xlink:href="#DejaVuSans-2e" transform="translate(63.623047 0)"/>
       <use xlink:href="#DejaVuSans-38" transform="translate(95.410156 0)"/>
       <use xlink:href="#DejaVuSans-32" transform="translate(159.033203 0)"/>
      </g>
     </g>
    </g>
    <g id="ytick_3">
     <g id="line2d_9">
      <g>
       <use xlink:href="#m2c7b25193b" x="90" y="160.388993" style="stroke: #000000; stroke-width: 0.8"/>
      </g>
     </g>
     <g id="text_10">
      <!-- 0.84 -->
      <g transform="translate(60.734375 164.188212) scale(0.1 -0.1)">
       <use xlink:href="#DejaVuSans-30"/>
       <use xlink:href="#DejaVuSans-2e" transform="translate(63.623047 0)"/>
       <use xlink:href="#DejaVuSans-38" transform="translate(95.410156 0)"/>
       <use xlink:href="#DejaVuSans-34" transform="translate(159.033203 0)"/>
      </g>
     </g>
    </g>
    <g id="ytick_4">
     <g id="line2d_10">
      <g>
       <use xlink:href="#m2c7b25193b" x="90" y="99.661257" style="stroke: #000000; stroke-width: 0.8"/>
      </g>
     </g>
     <g id="text_11">
      <!-- 0.86 -->
      <g transform="translate(60.734375 103.460476) scale(0.1 -0.1)">
       <use xlink:href="#DejaVuSans-30"/>
       <use xlink:href="#DejaVuSans-2e" transform="translate(63.623047 0)"/>
       <use xlink:href="#DejaVuSans-38" transform="translate(95.410156 0)"/>
       <use xlink:href="#DejaVuSans-36" transform="translate(159.033203 0)"/>
      </g>
     </g>
    </g>
    <g id="text_12">
     <!-- RMSE -->
     <g transform="translate(54.654688 195.921875) rotate(-90) scale(0.1 -0.1)">
      <defs>
       <path id="DejaVuSans-52" d="M 2841 2188 
Q 3044 2119 3236 1894 
Q 3428 1669 3622 1275 
L 4263 0 
L 3584 0 
L 2988 1197 
Q 2756 1666 2539 1819 
Q 2322 1972 1947 1972 
L 1259 1972 
L 1259 0 
L 628 0 
L 628 4666 
L 2053 4666 
Q 2853 4666 3247 4331 
Q 3641 3997 3641 3322 
Q 3641 2881 3436 2590 
Q 3231 2300 2841 2188 
z
M 1259 4147 
L 1259 2491 
L 2053 2491 
Q 2509 2491 2742 2702 
Q 2975 2913 2975 3322 
Q 2975 3731 2742 3939 
Q 2509 4147 2053 4147 
L 1259 4147 
z
" transform="scale(0.015625)"/>
       <path id="DejaVuSans-4d" d="M 628 4666 
L 1569 4666 
L 2759 1491 
L 3956 4666 
L 4897 4666 
L 4897 0 
L 4281 0 
L 4281 4097 
L 3078 897 
L 2444 897 
L 1241 4097 
L 1241 0 
L 628 0 
L 628 4666 
z
" transform="scale(0.015625)"/>
       <path id="DejaVuSans-53" d="M 3425 4513 
L 3425 3897 
Q 3066 4069 2747 4153 
Q 2428 4238 2131 4238 
Q 1616 4238 1336 4038 
Q 1056 3838 1056 3469 
Q 1056 3159 1242 3001 
Q 1428 2844 1947 2747 
L 2328 2669 
Q 3034 2534 3370 2195 
Q 3706 1856 3706 1288 
Q 3706 609 3251 259 
Q 2797 -91 1919 -91 
Q 1588 -91 1214 -16 
Q 841 59 441 206 
L 441 856 
Q 825 641 1194 531 
Q 1563 422 1919 422 
Q 2459 422 2753 634 
Q 3047 847 3047 1241 
Q 3047 1584 2836 1778 
Q 2625 1972 2144 2069 
L 1759 2144 
Q 1053 2284 737 2584 
Q 422 2884 422 3419 
Q 422 4038 858 4394 
Q 1294 4750 2059 4750 
Q 2388 4750 2728 4690 
Q 3069 4631 3425 4513 
z
" transform="scale(0.015625)"/>
      </defs>
      <use xlink:href="#DejaVuSans-52"/>
      <use xlink:href="#DejaVuSans-4d" transform="translate(69.482422 0)"/>
      <use xlink:href="#DejaVuSans-53" transform="translate(155.761719 0)"/>
      <use xlink:href="#DejaVuSans-45" transform="translate(219.238281 0)"/>
     </g>
    </g>
   </g>
   <g id="line2d_11">
    <path d="M 115.363636 263.040238 
L 120.487603 303.893199 
L 125.61157 306.973351 
L 130.735537 307.557317 
L 135.859504 307.747775 
L 140.983471 307.8 
L 146.107438 307.7798 
L 151.231405 307.714266 
L 156.355372 307.61816 
L 161.479339 307.501071 
L 166.603306 307.369879 
L 171.727273 307.229766 
L 176.85124 307.084726 
L 181.975207 306.937851 
L 187.099174 306.791527 
L 192.22314 306.647577 
L 197.347107 306.50737 
L 202.471074 306.37191 
L 207.595041 306.241906 
L 212.719008 306.117834 
L 217.842975 305.999978 
L 222.966942 305.888476 
L 228.090909 305.783352 
L 233.214876 305.684536 
L 238.338843 305.591894 
L 243.46281 305.505237 
L 248.586777 305.424343 
L 253.710744 305.348963 
L 258.834711 305.278833 
L 263.958678 305.213678 
L 269.082645 305.153222 
L 274.206612 305.097189 
L 279.330579 305.045308 
L 284.454545 304.997314 
L 289.578512 304.952953 
L 294.702479 304.911979 
L 299.826446 304.87416 
L 304.950413 304.839274 
L 310.07438 304.80711 
L 315.198347 304.777471 
L 320.322314 304.75017 
L 325.446281 304.725035 
L 330.570248 304.7019 
L 335.694215 304.680615 
L 340.818182 304.661037 
L 345.942149 304.643035 
L 351.066116 304.626486 
L 356.190083 304.611275 
L 361.31405 304.597299 
L 366.438017 304.584459 
L 371.561983 304.572664 
L 376.68595 304.561832 
L 381.809917 304.551886 
L 386.933884 304.542753 
L 392.057851 304.534369 
L 397.181818 304.526674 
L 402.305785 304.51961 
L 407.429752 304.513128 
L 412.553719 304.507179 
L 417.677686 304.501721 
L 422.801653 304.496713 
L 427.92562 304.492118 
L 433.049587 304.487903 
L 438.173554 304.484036 
L 443.297521 304.480488 
L 448.421488 304.477234 
L 453.545455 304.47425 
L 458.669421 304.471513 
L 463.793388 304.469002 
L 468.917355 304.466699 
L 474.041322 304.464588 
L 479.165289 304.462651 
L 484.289256 304.460875 
L 489.413223 304.459246 
L 494.53719 304.457753 
L 499.661157 304.456383 
L 504.785124 304.455127 
L 509.909091 304.453976 
L 515.033058 304.45292 
L 520.157025 304.451952 
L 525.280992 304.451064 
L 530.404959 304.45025 
L 535.528926 304.449503 
L 540.652893 304.448819 
L 545.77686 304.448191 
L 550.900826 304.447616 
L 556.024793 304.447089 
L 561.14876 304.446605 
L 566.272727 304.446161 
L 571.396694 304.445755 
L 576.520661 304.445382 
L 581.644628 304.44504 
L 586.768595 304.444727 
L 591.892562 304.444439 
L 597.016529 304.444176 
L 602.140496 304.443934 
L 607.264463 304.443713 
L 612.38843 304.44351 
L 617.512397 304.443324 
L 622.636364 304.443153 
" clip-path="url(#p2ef59297ec)" style="fill: none; stroke: #1f77b4; stroke-width: 1.5; stroke-linecap: square"/>
    <defs>
     <path id="m49e103d1f7" d="M 0 3 
C 0.795609 3 1.55874 2.683901 2.12132 2.12132 
C 2.683901 1.55874 3 0.795609 3 0 
C 3 -0.795609 2.683901 -1.55874 2.12132 -2.12132 
C 1.55874 -2.683901 0.795609 -3 0 -3 
C -0.795609 -3 -1.55874 -2.683901 -2.12132 -2.12132 
C -2.683901 -1.55874 -3 -0.795609 -3 0 
C -3 0.795609 -2.683901 1.55874 -2.12132 2.12132 
C -1.55874 2.683901 -0.795609 3 0 3 
z
" style="stroke: #1f77b4"/>
    </defs>
    <g clip-path="url(#p2ef59297ec)">
     <use xlink:href="#m49e103d1f7" x="115.363636" y="263.040238" style="fill: #1f77b4; stroke: #1f77b4"/>
     <use xlink:href="#m49e103d1f7" x="120.487603" y="303.893199" style="fill: #1f77b4; stroke: #1f77b4"/>
     <use xlink:href="#m49e103d1f7" x="125.61157" y="306.973351" style="fill: #1f77b4; stroke: #1f77b4"/>
     <use xlink:href="#m49e103d1f7" x="130.735537" y="307.557317" style="fill: #1f77b4; stroke: #1f77b4"/>
     <use xlink:href="#m49e103d1f7" x="135.859504" y="307.747775" style="fill: #1f77b4; stroke: #1f77b4"/>
     <use xlink:href="#m49e103d1f7" x="140.983471" y="307.8" style="fill: #1f77b4; stroke: #1f77b4"/>
     <use xlink:href="#m49e103d1f7" x="146.107438" y="307.7798" style="fill: #1f77b4; stroke: #1f77b4"/>
     <use xlink:href="#m49e103d1f7" x="151.231405" y="307.714266" style="fill: #1f77b4; stroke: #1f77b4"/>
     <use xlink:href="#m49e103d1f7" x="156.355372" y="307.61816" style="fill: #1f77b4; stroke: #1f77b4"/>
     <use xlink:href="#m49e103d1f7" x="161.479339" y="307.501071" style="fill: #1f77b4; stroke: #1f77b4"/>
     <use xlink:href="#m49e103d1f7" x="166.603306" y="307.369879" style="fill: #1f77b4; stroke: #1f77b4"/>
     <use xlink:href="#m49e103d1f7" x="171.727273" y="307.229766" style="fill: #1f77b4; stroke: #1f77b4"/>
     <use xlink:href="#m49e103d1f7" x="176.85124" y="307.084726" style="fill: #1f77b4; stroke: #1f77b4"/>
     <use xlink:href="#m49e103d1f7" x="181.975207" y="306.937851" style="fill: #1f77b4; stroke: #1f77b4"/>
     <use xlink:href="#m49e103d1f7" x="187.099174" y="306.791527" style="fill: #1f77b4; stroke: #1f77b4"/>
     <use xlink:href="#m49e103d1f7" x="192.22314" y="306.647577" style="fill: #1f77b4; stroke: #1f77b4"/>
     <use xlink:href="#m49e103d1f7" x="197.347107" y="306.50737" style="fill: #1f77b4; stroke: #1f77b4"/>
     <use xlink:href="#m49e103d1f7" x="202.471074" y="306.37191" style="fill: #1f77b4; stroke: #1f77b4"/>
     <use xlink:href="#m49e103d1f7" x="207.595041" y="306.241906" style="fill: #1f77b4; stroke: #1f77b4"/>
     <use xlink:href="#m49e103d1f7" x="212.719008" y="306.117834" style="fill: #1f77b4; stroke: #1f77b4"/>
     <use xlink:href="#m49e103d1f7" x="217.842975" y="305.999978" style="fill: #1f77b4; stroke: #1f77b4"/>
     <use xlink:href="#m49e103d1f7" x="222.966942" y="305.888476" style="fill: #1f77b4; stroke: #1f77b4"/>
     <use xlink:href="#m49e103d1f7" x="228.090909" y="305.783352" style="fill: #1f77b4; stroke: #1f77b4"/>
     <use xlink:href="#m49e103d1f7" x="233.214876" y="305.684536" style="fill: #1f77b4; stroke: #1f77b4"/>
     <use xlink:href="#m49e103d1f7" x="238.338843" y="305.591894" style="fill: #1f77b4; stroke: #1f77b4"/>
     <use xlink:href="#m49e103d1f7" x="243.46281" y="305.505237" style="fill: #1f77b4; stroke: #1f77b4"/>
     <use xlink:href="#m49e103d1f7" x="248.586777" y="305.424343" style="fill: #1f77b4; stroke: #1f77b4"/>
     <use xlink:href="#m49e103d1f7" x="253.710744" y="305.348963" style="fill: #1f77b4; stroke: #1f77b4"/>
     <use xlink:href="#m49e103d1f7" x="258.834711" y="305.278833" style="fill: #1f77b4; stroke: #1f77b4"/>
     <use xlink:href="#m49e103d1f7" x="263.958678" y="305.213678" style="fill: #1f77b4; stroke: #1f77b4"/>
     <use xlink:href="#m49e103d1f7" x="269.082645" y="305.153222" style="fill: #1f77b4; stroke: #1f77b4"/>
     <use xlink:href="#m49e103d1f7" x="274.206612" y="305.097189" style="fill: #1f77b4; stroke: #1f77b4"/>
     <use xlink:href="#m49e103d1f7" x="279.330579" y="305.045308" style="fill: #1f77b4; stroke: #1f77b4"/>
     <use xlink:href="#m49e103d1f7" x="284.454545" y="304.997314" style="fill: #1f77b4; stroke: #1f77b4"/>
     <use xlink:href="#m49e103d1f7" x="289.578512" y="304.952953" style="fill: #1f77b4; stroke: #1f77b4"/>
     <use xlink:href="#m49e103d1f7" x="294.702479" y="304.911979" style="fill: #1f77b4; stroke: #1f77b4"/>
     <use xlink:href="#m49e103d1f7" x="299.826446" y="304.87416" style="fill: #1f77b4; stroke: #1f77b4"/>
     <use xlink:href="#m49e103d1f7" x="304.950413" y="304.839274" style="fill: #1f77b4; stroke: #1f77b4"/>
     <use xlink:href="#m49e103d1f7" x="310.07438" y="304.80711" style="fill: #1f77b4; stroke: #1f77b4"/>
     <use xlink:href="#m49e103d1f7" x="315.198347" y="304.777471" style="fill: #1f77b4; stroke: #1f77b4"/>
     <use xlink:href="#m49e103d1f7" x="320.322314" y="304.75017" style="fill: #1f77b4; stroke: #1f77b4"/>
     <use xlink:href="#m49e103d1f7" x="325.446281" y="304.725035" style="fill: #1f77b4; stroke: #1f77b4"/>
     <use xlink:href="#m49e103d1f7" x="330.570248" y="304.7019" style="fill: #1f77b4; stroke: #1f77b4"/>
     <use xlink:href="#m49e103d1f7" x="335.694215" y="304.680615" style="fill: #1f77b4; stroke: #1f77b4"/>
     <use xlink:href="#m49e103d1f7" x="340.818182" y="304.661037" style="fill: #1f77b4; stroke: #1f77b4"/>
     <use xlink:href="#m49e103d1f7" x="345.942149" y="304.643035" style="fill: #1f77b4; stroke: #1f77b4"/>
     <use xlink:href="#m49e103d1f7" x="351.066116" y="304.626486" style="fill: #1f77b4; stroke: #1f77b4"/>
     <use xlink:href="#m49e103d1f7" x="356.190083" y="304.611275" style="fill: #1f77b4; stroke: #1f77b4"/>
     <use xlink:href="#m49e103d1f7" x="361.31405" y="304.597299" style="fill: #1f77b4; stroke: #1f77b4"/>
     <use xlink:href="#m49e103d1f7" x="366.438017" y="304.584459" style="fill: #1f77b4; stroke: #1f77b4"/>
     <use xlink:href="#m49e103d1f7" x="371.561983" y="304.572664" style="fill: #1f77b4; stroke: #1f77b4"/>
     <use xlink:href="#m49e103d1f7" x="376.68595" y="304.561832" style="fill: #1f77b4; stroke: #1f77b4"/>
     <use xlink:href="#m49e103d1f7" x="381.809917" y="304.551886" style="fill: #1f77b4; stroke: #1f77b4"/>
     <use xlink:href="#m49e103d1f7" x="386.933884" y="304.542753" style="fill: #1f77b4; stroke: #1f77b4"/>
     <use xlink:href="#m49e103d1f7" x="392.057851" y="304.534369" style="fill: #1f77b4; stroke: #1f77b4"/>
     <use xlink:href="#m49e103d1f7" x="397.181818" y="304.526674" style="fill: #1f77b4; stroke: #1f77b4"/>
     <use xlink:href="#m49e103d1f7" x="402.305785" y="304.51961" style="fill: #1f77b4; stroke: #1f77b4"/>
     <use xlink:href="#m49e103d1f7" x="407.429752" y="304.513128" style="fill: #1f77b4; stroke: #1f77b4"/>
     <use xlink:href="#m49e103d1f7" x="412.553719" y="304.507179" style="fill: #1f77b4; stroke: #1f77b4"/>
     <use xlink:href="#m49e103d1f7" x="417.677686" y="304.501721" style="fill: #1f77b4; stroke: #1f77b4"/>
     <use xlink:href="#m49e103d1f7" x="422.801653" y="304.496713" style="fill: #1f77b4; stroke: #1f77b4"/>
     <use xlink:href="#m49e103d1f7" x="427.92562" y="304.492118" style="fill: #1f77b4; stroke: #1f77b4"/>
     <use xlink:href="#m49e103d1f7" x="433.049587" y="304.487903" style="fill: #1f77b4; stroke: #1f77b4"/>
     <use xlink:href="#m49e103d1f7" x="438.173554" y="304.484036" style="fill: #1f77b4; stroke: #1f77b4"/>
     <use xlink:href="#m49e103d1f7" x="443.297521" y="304.480488" style="fill: #1f77b4; stroke: #1f77b4"/>
     <use xlink:href="#m49e103d1f7" x="448.421488" y="304.477234" style="fill: #1f77b4; stroke: #1f77b4"/>
     <use xlink:href="#m49e103d1f7" x="453.545455" y="304.47425" style="fill: #1f77b4; stroke: #1f77b4"/>
     <use xlink:href="#m49e103d1f7" x="458.669421" y="304.471513" style="fill: #1f77b4; stroke: #1f77b4"/>
     <use xlink:href="#m49e103d1f7" x="463.793388" y="304.469002" style="fill: #1f77b4; stroke: #1f77b4"/>
     <use xlink:href="#m49e103d1f7" x="468.917355" y="304.466699" style="fill: #1f77b4; stroke: #1f77b4"/>
     <use xlink:href="#m49e103d1f7" x="474.041322" y="304.464588" style="fill: #1f77b4; stroke: #1f77b4"/>
     <use xlink:href="#m49e103d1f7" x="479.165289" y="304.462651" style="fill: #1f77b4; stroke: #1f77b4"/>
     <use xlink:href="#m49e103d1f7" x="484.289256" y="304.460875" style="fill: #1f77b4; stroke: #1f77b4"/>
     <use xlink:href="#m49e103d1f7" x="489.413223" y="304.459246" style="fill: #1f77b4; stroke: #1f77b4"/>
     <use xlink:href="#m49e103d1f7" x="494.53719" y="304.457753" style="fill: #1f77b4; stroke: #1f77b4"/>
     <use xlink:href="#m49e103d1f7" x="499.661157" y="304.456383" style="fill: #1f77b4; stroke: #1f77b4"/>
     <use xlink:href="#m49e103d1f7" x="504.785124" y="304.455127" style="fill: #1f77b4; stroke: #1f77b4"/>
     <use xlink:href="#m49e103d1f7" x="509.909091" y="304.453976" style="fill: #1f77b4; stroke: #1f77b4"/>
     <use xlink:href="#m49e103d1f7" x="515.033058" y="304.45292" style="fill: #1f77b4; stroke: #1f77b4"/>
     <use xlink:href="#m49e103d1f7" x="520.157025" y="304.451952" style="fill: #1f77b4; stroke: #1f77b4"/>
     <use xlink:href="#m49e103d1f7" x="525.280992" y="304.451064" style="fill: #1f77b4; stroke: #1f77b4"/>
     <use xlink:href="#m49e103d1f7" x="530.404959" y="304.45025" style="fill: #1f77b4; stroke: #1f77b4"/>
     <use xlink:href="#m49e103d1f7" x="535.528926" y="304.449503" style="fill: #1f77b4; stroke: #1f77b4"/>
     <use xlink:href="#m49e103d1f7" x="540.652893" y="304.448819" style="fill: #1f77b4; stroke: #1f77b4"/>
     <use xlink:href="#m49e103d1f7" x="545.77686" y="304.448191" style="fill: #1f77b4; stroke: #1f77b4"/>
     <use xlink:href="#m49e103d1f7" x="550.900826" y="304.447616" style="fill: #1f77b4; stroke: #1f77b4"/>
     <use xlink:href="#m49e103d1f7" x="556.024793" y="304.447089" style="fill: #1f77b4; stroke: #1f77b4"/>
     <use xlink:href="#m49e103d1f7" x="561.14876" y="304.446605" style="fill: #1f77b4; stroke: #1f77b4"/>
     <use xlink:href="#m49e103d1f7" x="566.272727" y="304.446161" style="fill: #1f77b4; stroke: #1f77b4"/>
     <use xlink:href="#m49e103d1f7" x="571.396694" y="304.445755" style="fill: #1f77b4; stroke: #1f77b4"/>
     <use xlink:href="#m49e103d1f7" x="576.520661" y="304.445382" style="fill: #1f77b4; stroke: #1f77b4"/>
     <use xlink:href="#m49e103d1f7" x="581.644628" y="304.44504" style="fill: #1f77b4; stroke: #1f77b4"/>
     <use xlink:href="#m49e103d1f7" x="586.768595" y="304.444727" style="fill: #1f77b4; stroke: #1f77b4"/>
     <use xlink:href="#m49e103d1f7" x="591.892562" y="304.444439" style="fill: #1f77b4; stroke: #1f77b4"/>
     <use xlink:href="#m49e103d1f7" x="597.016529" y="304.444176" style="fill: #1f77b4; stroke: #1f77b4"/>
     <use xlink:href="#m49e103d1f7" x="602.140496" y="304.443934" style="fill: #1f77b4; stroke: #1f77b4"/>
     <use xlink:href="#m49e103d1f7" x="607.264463" y="304.443713" style="fill: #1f77b4; stroke: #1f77b4"/>
     <use xlink:href="#m49e103d1f7" x="612.38843" y="304.44351" style="fill: #1f77b4; stroke: #1f77b4"/>
     <use xlink:href="#m49e103d1f7" x="617.512397" y="304.443324" style="fill: #1f77b4; stroke: #1f77b4"/>
     <use xlink:href="#m49e103d1f7" x="622.636364" y="304.443153" style="fill: #1f77b4; stroke: #1f77b4"/>
    </g>
   </g>
   <g id="line2d_12">
    <path d="M 115.363636 55.8 
L 120.487603 92.360493 
L 125.61157 94.892828 
L 130.735537 95.710228 
L 135.859504 96.171865 
L 140.983471 96.409953 
L 146.107438 96.489587 
L 151.231405 96.454718 
L 156.355372 96.336102 
L 161.479339 96.156276 
L 166.603306 95.932413 
L 171.727273 95.677904 
L 176.85124 95.403294 
L 181.975207 95.116899 
L 187.099174 94.825255 
L 192.22314 94.533451 
L 197.347107 94.245406 
L 202.471074 93.964087 
L 207.595041 93.691687 
L 212.719008 93.42978 
L 217.842975 93.179435 
L 222.966942 92.941324 
L 228.090909 92.715802 
L 233.214876 92.502974 
L 238.338843 92.302754 
L 243.46281 92.114905 
L 248.586777 91.939084 
L 253.710744 91.774864 
L 258.834711 91.621763 
L 263.958678 91.479262 
L 269.082645 91.34682 
L 274.206612 91.223887 
L 279.330579 91.109913 
L 284.454545 91.004355 
L 289.578512 90.906683 
L 294.702479 90.816383 
L 299.826446 90.732963 
L 304.950413 90.655951 
L 310.07438 90.584899 
L 315.198347 90.519382 
L 320.322314 90.459 
L 325.446281 90.403376 
L 330.570248 90.352157 
L 335.694215 90.305011 
L 340.818182 90.26163 
L 345.942149 90.221725 
L 351.066116 90.185029 
L 356.190083 90.151292 
L 361.31405 90.120283 
L 366.438017 90.091788 
L 371.561983 90.065608 
L 376.68595 90.04156 
L 381.809917 90.019472 
L 386.933884 89.999189 
L 392.057851 89.980566 
L 397.181818 89.963469 
L 402.305785 89.947775 
L 407.429752 89.93337 
L 412.553719 89.920149 
L 417.677686 89.908017 
L 422.801653 89.896884 
L 427.92562 89.88667 
L 433.049587 89.877298 
L 438.173554 89.8687 
L 443.297521 89.860812 
L 448.421488 89.853577 
L 453.545455 89.84694 
L 458.669421 89.840852 
L 463.793388 89.835268 
L 468.917355 89.830147 
L 474.041322 89.82545 
L 479.165289 89.821142 
L 484.289256 89.817192 
L 489.413223 89.813569 
L 494.53719 89.810247 
L 499.661157 89.8072 
L 504.785124 89.804406 
L 509.909091 89.801844 
L 515.033058 89.799495 
L 520.157025 89.797341 
L 525.280992 89.795366 
L 530.404959 89.793555 
L 535.528926 89.791894 
L 540.652893 89.790372 
L 545.77686 89.788975 
L 550.900826 89.787695 
L 556.024793 89.786522 
L 561.14876 89.785445 
L 566.272727 89.784459 
L 571.396694 89.783554 
L 576.520661 89.782725 
L 581.644628 89.781964 
L 586.768595 89.781267 
L 591.892562 89.780627 
L 597.016529 89.780041 
L 602.140496 89.779504 
L 607.264463 89.779011 
L 612.38843 89.778559 
L 617.512397 89.778145 
L 622.636364 89.777766 
" clip-path="url(#p2ef59297ec)" style="fill: none; stroke: #ff7f0e; stroke-width: 1.5; stroke-linecap: square"/>
    <defs>
     <path id="m0d14640a7b" d="M -3 3 
L 3 -3 
M -3 -3 
L 3 3 
" style="stroke: #ff7f0e"/>
    </defs>
    <g clip-path="url(#p2ef59297ec)">
     <use xlink:href="#m0d14640a7b" x="115.363636" y="55.8" style="fill: #ff7f0e; stroke: #ff7f0e"/>
     <use xlink:href="#m0d14640a7b" x="120.487603" y="92.360493" style="fill: #ff7f0e; stroke: #ff7f0e"/>
     <use xlink:href="#m0d14640a7b" x="125.61157" y="94.892828" style="fill: #ff7f0e; stroke: #ff7f0e"/>
     <use xlink:href="#m0d14640a7b" x="130.735537" y="95.710228" style="fill: #ff7f0e; stroke: #ff7f0e"/>
     <use xlink:href="#m0d14640a7b" x="135.859504" y="96.171865" style="fill: #ff7f0e; stroke: #ff7f0e"/>
     <use xlink:href="#m0d14640a7b" x="140.983471" y="96.409953" style="fill: #ff7f0e; stroke: #ff7f0e"/>
     <use xlink:href="#m0d14640a7b" x="146.107438" y="96.489587" style="fill: #ff7f0e; stroke: #ff7f0e"/>
     <use xlink:href="#m0d14640a7b" x="151.231405" y="96.454718" style="fill: #ff7f0e; stroke: #ff7f0e"/>
     <use xlink:href="#m0d14640a7b" x="156.355372" y="96.336102" style="fill: #ff7f0e; stroke: #ff7f0e"/>
     <use xlink:href="#m0d14640a7b" x="161.479339" y="96.156276" style="fill: #ff7f0e; stroke: #ff7f0e"/>
     <use xlink:href="#m0d14640a7b" x="166.603306" y="95.932413" style="fill: #ff7f0e; stroke: #ff7f0e"/>
     <use xlink:href="#m0d14640a7b" x="171.727273" y="95.677904" style="fill: #ff7f0e; stroke: #ff7f0e"/>
     <use xlink:href="#m0d14640a7b" x="176.85124" y="95.403294" style="fill: #ff7f0e; stroke: #ff7f0e"/>
     <use xlink:href="#m0d14640a7b" x="181.975207" y="95.116899" style="fill: #ff7f0e; stroke: #ff7f0e"/>
     <use xlink:href="#m0d14640a7b" x="187.099174" y="94.825255" style="fill: #ff7f0e; stroke: #ff7f0e"/>
     <use xlink:href="#m0d14640a7b" x="192.22314" y="94.533451" style="fill: #ff7f0e; stroke: #ff7f0e"/>
     <use xlink:href="#m0d14640a7b" x="197.347107" y="94.245406" style="fill: #ff7f0e; stroke: #ff7f0e"/>
     <use xlink:href="#m0d14640a7b" x="202.471074" y="93.964087" style="fill: #ff7f0e; stroke: #ff7f0e"/>
     <use xlink:href="#m0d14640a7b" x="207.595041" y="93.691687" style="fill: #ff7f0e; stroke: #ff7f0e"/>
     <use xlink:href="#m0d14640a7b" x="212.719008" y="93.42978" style="fill: #ff7f0e; stroke: #ff7f0e"/>
     <use xlink:href="#m0d14640a7b" x="217.842975" y="93.179435" style="fill: #ff7f0e; stroke: #ff7f0e"/>
     <use xlink:href="#m0d14640a7b" x="222.966942" y="92.941324" style="fill: #ff7f0e; stroke: #ff7f0e"/>
     <use xlink:href="#m0d14640a7b" x="228.090909" y="92.715802" style="fill: #ff7f0e; stroke: #ff7f0e"/>
     <use xlink:href="#m0d14640a7b" x="233.214876" y="92.502974" style="fill: #ff7f0e; stroke: #ff7f0e"/>
     <use xlink:href="#m0d14640a7b" x="238.338843" y="92.302754" style="fill: #ff7f0e; stroke: #ff7f0e"/>
     <use xlink:href="#m0d14640a7b" x="243.46281" y="92.114905" style="fill: #ff7f0e; stroke: #ff7f0e"/>
     <use xlink:href="#m0d14640a7b" x="248.586777" y="91.939084" style="fill: #ff7f0e; stroke: #ff7f0e"/>
     <use xlink:href="#m0d14640a7b" x="253.710744" y="91.774864" style="fill: #ff7f0e; stroke: #ff7f0e"/>
     <use xlink:href="#m0d14640a7b" x="258.834711" y="91.621763" style="fill: #ff7f0e; stroke: #ff7f0e"/>
     <use xlink:href="#m0d14640a7b" x="263.958678" y="91.479262" style="fill: #ff7f0e; stroke: #ff7f0e"/>
     <use xlink:href="#m0d14640a7b" x="269.082645" y="91.34682" style="fill: #ff7f0e; stroke: #ff7f0e"/>
     <use xlink:href="#m0d14640a7b" x="274.206612" y="91.223887" style="fill: #ff7f0e; stroke: #ff7f0e"/>
     <use xlink:href="#m0d14640a7b" x="279.330579" y="91.109913" style="fill: #ff7f0e; stroke: #ff7f0e"/>
     <use xlink:href="#m0d14640a7b" x="284.454545" y="91.004355" style="fill: #ff7f0e; stroke: #ff7f0e"/>
     <use xlink:href="#m0d14640a7b" x="289.578512" y="90.906683" style="fill: #ff7f0e; stroke: #ff7f0e"/>
     <use xlink:href="#m0d14640a7b" x="294.702479" y="90.816383" style="fill: #ff7f0e; stroke: #ff7f0e"/>
     <use xlink:href="#m0d14640a7b" x="299.826446" y="90.732963" style="fill: #ff7f0e; stroke: #ff7f0e"/>
     <use xlink:href="#m0d14640a7b" x="304.950413" y="90.655951" style="fill: #ff7f0e; stroke: #ff7f0e"/>
     <use xlink:href="#m0d14640a7b" x="310.07438" y="90.584899" style="fill: #ff7f0e; stroke: #ff7f0e"/>
     <use xlink:href="#m0d14640a7b" x="315.198347" y="90.519382" style="fill: #ff7f0e; stroke: #ff7f0e"/>
     <use xlink:href="#m0d14640a7b" x="320.322314" y="90.459" style="fill: #ff7f0e; stroke: #ff7f0e"/>
     <use xlink:href="#m0d14640a7b" x="325.446281" y="90.403376" style="fill: #ff7f0e; stroke: #ff7f0e"/>
     <use xlink:href="#m0d14640a7b" x="330.570248" y="90.352157" style="fill: #ff7f0e; stroke: #ff7f0e"/>
     <use xlink:href="#m0d14640a7b" x="335.694215" y="90.305011" style="fill: #ff7f0e; stroke: #ff7f0e"/>
     <use xlink:href="#m0d14640a7b" x="340.818182" y="90.26163" style="fill: #ff7f0e; stroke: #ff7f0e"/>
     <use xlink:href="#m0d14640a7b" x="345.942149" y="90.221725" style="fill: #ff7f0e; stroke: #ff7f0e"/>
     <use xlink:href="#m0d14640a7b" x="351.066116" y="90.185029" style="fill: #ff7f0e; stroke: #ff7f0e"/>
     <use xlink:href="#m0d14640a7b" x="356.190083" y="90.151292" style="fill: #ff7f0e; stroke: #ff7f0e"/>
     <use xlink:href="#m0d14640a7b" x="361.31405" y="90.120283" style="fill: #ff7f0e; stroke: #ff7f0e"/>
     <use xlink:href="#m0d14640a7b" x="366.438017" y="90.091788" style="fill: #ff7f0e; stroke: #ff7f0e"/>
     <use xlink:href="#m0d14640a7b" x="371.561983" y="90.065608" style="fill: #ff7f0e; stroke: #ff7f0e"/>
     <use xlink:href="#m0d14640a7b" x="376.68595" y="90.04156" style="fill: #ff7f0e; stroke: #ff7f0e"/>
     <use xlink:href="#m0d14640a7b" x="381.809917" y="90.019472" style="fill: #ff7f0e; stroke: #ff7f0e"/>
     <use xlink:href="#m0d14640a7b" x="386.933884" y="89.999189" style="fill: #ff7f0e; stroke: #ff7f0e"/>
     <use xlink:href="#m0d14640a7b" x="392.057851" y="89.980566" style="fill: #ff7f0e; stroke: #ff7f0e"/>
     <use xlink:href="#m0d14640a7b" x="397.181818" y="89.963469" style="fill: #ff7f0e; stroke: #ff7f0e"/>
     <use xlink:href="#m0d14640a7b" x="402.305785" y="89.947775" style="fill: #ff7f0e; stroke: #ff7f0e"/>
     <use xlink:href="#m0d14640a7b" x="407.429752" y="89.93337" style="fill: #ff7f0e; stroke: #ff7f0e"/>
     <use xlink:href="#m0d14640a7b" x="412.553719" y="89.920149" style="fill: #ff7f0e; stroke: #ff7f0e"/>
     <use xlink:href="#m0d14640a7b" x="417.677686" y="89.908017" style="fill: #ff7f0e; stroke: #ff7f0e"/>
     <use xlink:href="#m0d14640a7b" x="422.801653" y="89.896884" style="fill: #ff7f0e; stroke: #ff7f0e"/>
     <use xlink:href="#m0d14640a7b" x="427.92562" y="89.88667" style="fill: #ff7f0e; stroke: #ff7f0e"/>
     <use xlink:href="#m0d14640a7b" x="433.049587" y="89.877298" style="fill: #ff7f0e; stroke: #ff7f0e"/>
     <use xlink:href="#m0d14640a7b" x="438.173554" y="89.8687" style="fill: #ff7f0e; stroke: #ff7f0e"/>
     <use xlink:href="#m0d14640a7b" x="443.297521" y="89.860812" style="fill: #ff7f0e; stroke: #ff7f0e"/>
     <use xlink:href="#m0d14640a7b" x="448.421488" y="89.853577" style="fill: #ff7f0e; stroke: #ff7f0e"/>
     <use xlink:href="#m0d14640a7b" x="453.545455" y="89.84694" style="fill: #ff7f0e; stroke: #ff7f0e"/>
     <use xlink:href="#m0d14640a7b" x="458.669421" y="89.840852" style="fill: #ff7f0e; stroke: #ff7f0e"/>
     <use xlink:href="#m0d14640a7b" x="463.793388" y="89.835268" style="fill: #ff7f0e; stroke: #ff7f0e"/>
     <use xlink:href="#m0d14640a7b" x="468.917355" y="89.830147" style="fill: #ff7f0e; stroke: #ff7f0e"/>
     <use xlink:href="#m0d14640a7b" x="474.041322" y="89.82545" style="fill: #ff7f0e; stroke: #ff7f0e"/>
     <use xlink:href="#m0d14640a7b" x="479.165289" y="89.821142" style="fill: #ff7f0e; stroke: #ff7f0e"/>
     <use xlink:href="#m0d14640a7b" x="484.289256" y="89.817192" style="fill: #ff7f0e; stroke: #ff7f0e"/>
     <use xlink:href="#m0d14640a7b" x="489.413223" y="89.813569" style="fill: #ff7f0e; stroke: #ff7f0e"/>
     <use xlink:href="#m0d14640a7b" x="494.53719" y="89.810247" style="fill: #ff7f0e; stroke: #ff7f0e"/>
     <use xlink:href="#m0d14640a7b" x="499.661157" y="89.8072" style="fill: #ff7f0e; stroke: #ff7f0e"/>
     <use xlink:href="#m0d14640a7b" x="504.785124" y="89.804406" style="fill: #ff7f0e; stroke: #ff7f0e"/>
     <use xlink:href="#m0d14640a7b" x="509.909091" y="89.801844" style="fill: #ff7f0e; stroke: #ff7f0e"/>
     <use xlink:href="#m0d14640a7b" x="515.033058" y="89.799495" style="fill: #ff7f0e; stroke: #ff7f0e"/>
     <use xlink:href="#m0d14640a7b" x="520.157025" y="89.797341" style="fill: #ff7f0e; stroke: #ff7f0e"/>
     <use xlink:href="#m0d14640a7b" x="525.280992" y="89.795366" style="fill: #ff7f0e; stroke: #ff7f0e"/>
     <use xlink:href="#m0d14640a7b" x="530.404959" y="89.793555" style="fill: #ff7f0e; stroke: #ff7f0e"/>
     <use xlink:href="#m0d14640a7b" x="535.528926" y="89.791894" style="fill: #ff7f0e; stroke: #ff7f0e"/>
     <use xlink:href="#m0d14640a7b" x="540.652893" y="89.790372" style="fill: #ff7f0e; stroke: #ff7f0e"/>
     <use xlink:href="#m0d14640a7b" x="545.77686" y="89.788975" style="fill: #ff7f0e; stroke: #ff7f0e"/>
     <use xlink:href="#m0d14640a7b" x="550.900826" y="89.787695" style="fill: #ff7f0e; stroke: #ff7f0e"/>
     <use xlink:href="#m0d14640a7b" x="556.024793" y="89.786522" style="fill: #ff7f0e; stroke: #ff7f0e"/>
     <use xlink:href="#m0d14640a7b" x="561.14876" y="89.785445" style="fill: #ff7f0e; stroke: #ff7f0e"/>
     <use xlink:href="#m0d14640a7b" x="566.272727" y="89.784459" style="fill: #ff7f0e; stroke: #ff7f0e"/>
     <use xlink:href="#m0d14640a7b" x="571.396694" y="89.783554" style="fill: #ff7f0e; stroke: #ff7f0e"/>
     <use xlink:href="#m0d14640a7b" x="576.520661" y="89.782725" style="fill: #ff7f0e; stroke: #ff7f0e"/>
     <use xlink:href="#m0d14640a7b" x="581.644628" y="89.781964" style="fill: #ff7f0e; stroke: #ff7f0e"/>
     <use xlink:href="#m0d14640a7b" x="586.768595" y="89.781267" style="fill: #ff7f0e; stroke: #ff7f0e"/>
     <use xlink:href="#m0d14640a7b" x="591.892562" y="89.780627" style="fill: #ff7f0e; stroke: #ff7f0e"/>
     <use xlink:href="#m0d14640a7b" x="597.016529" y="89.780041" style="fill: #ff7f0e; stroke: #ff7f0e"/>
     <use xlink:href="#m0d14640a7b" x="602.140496" y="89.779504" style="fill: #ff7f0e; stroke: #ff7f0e"/>
     <use xlink:href="#m0d14640a7b" x="607.264463" y="89.779011" style="fill: #ff7f0e; stroke: #ff7f0e"/>
     <use xlink:href="#m0d14640a7b" x="612.38843" y="89.778559" style="fill: #ff7f0e; stroke: #ff7f0e"/>
     <use xlink:href="#m0d14640a7b" x="617.512397" y="89.778145" style="fill: #ff7f0e; stroke: #ff7f0e"/>
     <use xlink:href="#m0d14640a7b" x="622.636364" y="89.777766" style="fill: #ff7f0e; stroke: #ff7f0e"/>
    </g>
   </g>
   <g id="patch_3">
    <path d="M 90 320.4 
L 90 43.2 
" style="fill: none; stroke: #000000; stroke-width: 0.8; stroke-linejoin: miter; stroke-linecap: square"/>
   </g>
   <g id="patch_4">
    <path d="M 648 320.4 
L 648 43.2 
" style="fill: none; stroke: #000000; stroke-width: 0.8; stroke-linejoin: miter; stroke-linecap: square"/>
   </g>
   <g id="patch_5">
    <path d="M 90 320.4 
L 648 320.4 
" style="fill: none; stroke: #000000; stroke-width: 0.8; stroke-linejoin: miter; stroke-linecap: square"/>
   </g>
   <g id="patch_6">
    <path d="M 90 43.2 
L 648 43.2 
" style="fill: none; stroke: #000000; stroke-width: 0.8; stroke-linejoin: miter; stroke-linecap: square"/>
   </g>
   <g id="text_13">
    <!-- RMSE Over Epochs -->
    <g transform="translate(312.308438 37.2) scale(0.12 -0.12)">
     <defs>
      <path id="DejaVuSans-20" transform="scale(0.015625)"/>
      <path id="DejaVuSans-4f" d="M 2522 4238 
Q 1834 4238 1429 3725 
Q 1025 3213 1025 2328 
Q 1025 1447 1429 934 
Q 1834 422 2522 422 
Q 3209 422 3611 934 
Q 4013 1447 4013 2328 
Q 4013 3213 3611 3725 
Q 3209 4238 2522 4238 
z
M 2522 4750 
Q 3503 4750 4090 4092 
Q 4678 3434 4678 2328 
Q 4678 1225 4090 567 
Q 3503 -91 2522 -91 
Q 1538 -91 948 565 
Q 359 1222 359 2328 
Q 359 3434 948 4092 
Q 1538 4750 2522 4750 
z
" transform="scale(0.015625)"/>
      <path id="DejaVuSans-76" d="M 191 3500 
L 800 3500 
L 1894 563 
L 2988 3500 
L 3597 3500 
L 2284 0 
L 1503 0 
L 191 3500 
z
" transform="scale(0.015625)"/>
      <path id="DejaVuSans-65" d="M 3597 1894 
L 3597 1613 
L 953 1613 
Q 991 1019 1311 708 
Q 1631 397 2203 397 
Q 2534 397 2845 478 
Q 3156 559 3463 722 
L 3463 178 
Q 3153 47 2828 -22 
Q 2503 -91 2169 -91 
Q 1331 -91 842 396 
Q 353 884 353 1716 
Q 353 2575 817 3079 
Q 1281 3584 2069 3584 
Q 2775 3584 3186 3129 
Q 3597 2675 3597 1894 
z
M 3022 2063 
Q 3016 2534 2758 2815 
Q 2500 3097 2075 3097 
Q 1594 3097 1305 2825 
Q 1016 2553 972 2059 
L 3022 2063 
z
" transform="scale(0.015625)"/>
      <path id="DejaVuSans-72" d="M 2631 2963 
Q 2534 3019 2420 3045 
Q 2306 3072 2169 3072 
Q 1681 3072 1420 2755 
Q 1159 2438 1159 1844 
L 1159 0 
L 581 0 
L 581 3500 
L 1159 3500 
L 1159 2956 
Q 1341 3275 1631 3429 
Q 1922 3584 2338 3584 
Q 2397 3584 2469 3576 
Q 2541 3569 2628 3553 
L 2631 2963 
z
" transform="scale(0.015625)"/>
      <path id="DejaVuSans-73" d="M 2834 3397 
L 2834 2853 
Q 2591 2978 2328 3040 
Q 2066 3103 1784 3103 
Q 1356 3103 1142 2972 
Q 928 2841 928 2578 
Q 928 2378 1081 2264 
Q 1234 2150 1697 2047 
L 1894 2003 
Q 2506 1872 2764 1633 
Q 3022 1394 3022 966 
Q 3022 478 2636 193 
Q 2250 -91 1575 -91 
Q 1294 -91 989 -36 
Q 684 19 347 128 
L 347 722 
Q 666 556 975 473 
Q 1284 391 1588 391 
Q 1994 391 2212 530 
Q 2431 669 2431 922 
Q 2431 1156 2273 1281 
Q 2116 1406 1581 1522 
L 1381 1569 
Q 847 1681 609 1914 
Q 372 2147 372 2553 
Q 372 3047 722 3315 
Q 1072 3584 1716 3584 
Q 2034 3584 2315 3537 
Q 2597 3491 2834 3397 
z
" transform="scale(0.015625)"/>
     </defs>
     <use xlink:href="#DejaVuSans-52"/>
     <use xlink:href="#DejaVuSans-4d" transform="translate(69.482422 0)"/>
     <use xlink:href="#DejaVuSans-53" transform="translate(155.761719 0)"/>
     <use xlink:href="#DejaVuSans-45" transform="translate(219.238281 0)"/>
     <use xlink:href="#DejaVuSans-20" transform="translate(282.421875 0)"/>
     <use xlink:href="#DejaVuSans-4f" transform="translate(314.208984 0)"/>
     <use xlink:href="#DejaVuSans-76" transform="translate(392.919922 0)"/>
     <use xlink:href="#DejaVuSans-65" transform="translate(452.099609 0)"/>
     <use xlink:href="#DejaVuSans-72" transform="translate(513.623047 0)"/>
     <use xlink:href="#DejaVuSans-20" transform="translate(554.736328 0)"/>
     <use xlink:href="#DejaVuSans-45" transform="translate(586.523438 0)"/>
     <use xlink:href="#DejaVuSans-70" transform="translate(649.707031 0)"/>
     <use xlink:href="#DejaVuSans-6f" transform="translate(713.183594 0)"/>
     <use xlink:href="#DejaVuSans-63" transform="translate(774.365234 0)"/>
     <use xlink:href="#DejaVuSans-68" transform="translate(829.345703 0)"/>
     <use xlink:href="#DejaVuSans-73" transform="translate(892.724609 0)"/>
    </g>
   </g>
   <g id="legend_1">
    <g id="patch_7">
     <path d="M 538.126562 80.55625 
L 641 80.55625 
Q 643 80.55625 643 78.55625 
L 643 50.2 
Q 643 48.2 641 48.2 
L 538.126562 48.2 
Q 536.126562 48.2 536.126562 50.2 
L 536.126562 78.55625 
Q 536.126562 80.55625 538.126562 80.55625 
z
" style="fill: #ffffff; opacity: 0.8; stroke: #cccccc; stroke-linejoin: miter"/>
    </g>
    <g id="line2d_13">
     <path d="M 540.126562 56.298437 
L 550.126562 56.298437 
L 560.126562 56.298437 
" style="fill: none; stroke: #1f77b4; stroke-width: 1.5; stroke-linecap: square"/>
     <g>
      <use xlink:href="#m49e103d1f7" x="550.126562" y="56.298437" style="fill: #1f77b4; stroke: #1f77b4"/>
     </g>
    </g>
    <g id="text_14">
     <!-- Training RMSE -->
     <g transform="translate(568.126562 59.798437) scale(0.1 -0.1)">
      <defs>
       <path id="DejaVuSans-54" d="M -19 4666 
L 3928 4666 
L 3928 4134 
L 2272 4134 
L 2272 0 
L 1638 0 
L 1638 4134 
L -19 4134 
L -19 4666 
z
" transform="scale(0.015625)"/>
       <path id="DejaVuSans-61" d="M 2194 1759 
Q 1497 1759 1228 1600 
Q 959 1441 959 1056 
Q 959 750 1161 570 
Q 1363 391 1709 391 
Q 2188 391 2477 730 
Q 2766 1069 2766 1631 
L 2766 1759 
L 2194 1759 
z
M 3341 1997 
L 3341 0 
L 2766 0 
L 2766 531 
Q 2569 213 2275 61 
Q 1981 -91 1556 -91 
Q 1019 -91 701 211 
Q 384 513 384 1019 
Q 384 1609 779 1909 
Q 1175 2209 1959 2209 
L 2766 2209 
L 2766 2266 
Q 2766 2663 2505 2880 
Q 2244 3097 1772 3097 
Q 1472 3097 1187 3025 
Q 903 2953 641 2809 
L 641 3341 
Q 956 3463 1253 3523 
Q 1550 3584 1831 3584 
Q 2591 3584 2966 3190 
Q 3341 2797 3341 1997 
z
" transform="scale(0.015625)"/>
       <path id="DejaVuSans-69" d="M 603 3500 
L 1178 3500 
L 1178 0 
L 603 0 
L 603 3500 
z
M 603 4863 
L 1178 4863 
L 1178 4134 
L 603 4134 
L 603 4863 
z
" transform="scale(0.015625)"/>
       <path id="DejaVuSans-6e" d="M 3513 2113 
L 3513 0 
L 2938 0 
L 2938 2094 
Q 2938 2591 2744 2837 
Q 2550 3084 2163 3084 
Q 1697 3084 1428 2787 
Q 1159 2491 1159 1978 
L 1159 0 
L 581 0 
L 581 3500 
L 1159 3500 
L 1159 2956 
Q 1366 3272 1645 3428 
Q 1925 3584 2291 3584 
Q 2894 3584 3203 3211 
Q 3513 2838 3513 2113 
z
" transform="scale(0.015625)"/>
       <path id="DejaVuSans-67" d="M 2906 1791 
Q 2906 2416 2648 2759 
Q 2391 3103 1925 3103 
Q 1463 3103 1205 2759 
Q 947 2416 947 1791 
Q 947 1169 1205 825 
Q 1463 481 1925 481 
Q 2391 481 2648 825 
Q 2906 1169 2906 1791 
z
M 3481 434 
Q 3481 -459 3084 -895 
Q 2688 -1331 1869 -1331 
Q 1566 -1331 1297 -1286 
Q 1028 -1241 775 -1147 
L 775 -588 
Q 1028 -725 1275 -790 
Q 1522 -856 1778 -856 
Q 2344 -856 2625 -561 
Q 2906 -266 2906 331 
L 2906 616 
Q 2728 306 2450 153 
Q 2172 0 1784 0 
Q 1141 0 747 490 
Q 353 981 353 1791 
Q 353 2603 747 3093 
Q 1141 3584 1784 3584 
Q 2172 3584 2450 3431 
Q 2728 3278 2906 2969 
L 2906 3500 
L 3481 3500 
L 3481 434 
z
" transform="scale(0.015625)"/>
      </defs>
      <use xlink:href="#DejaVuSans-54"/>
      <use xlink:href="#DejaVuSans-72" transform="translate(46.333984 0)"/>
      <use xlink:href="#DejaVuSans-61" transform="translate(87.447266 0)"/>
      <use xlink:href="#DejaVuSans-69" transform="translate(148.726562 0)"/>
      <use xlink:href="#DejaVuSans-6e" transform="translate(176.509766 0)"/>
      <use xlink:href="#DejaVuSans-69" transform="translate(239.888672 0)"/>
      <use xlink:href="#DejaVuSans-6e" transform="translate(267.671875 0)"/>
      <use xlink:href="#DejaVuSans-67" transform="translate(331.050781 0)"/>
      <use xlink:href="#DejaVuSans-20" transform="translate(394.527344 0)"/>
      <use xlink:href="#DejaVuSans-52" transform="translate(426.314453 0)"/>
      <use xlink:href="#DejaVuSans-4d" transform="translate(495.796875 0)"/>
      <use xlink:href="#DejaVuSans-53" transform="translate(582.076172 0)"/>
      <use xlink:href="#DejaVuSans-45" transform="translate(645.552734 0)"/>
     </g>
    </g>
    <g id="line2d_14">
     <path d="M 540.126562 70.976562 
L 550.126562 70.976562 
L 560.126562 70.976562 
" style="fill: none; stroke: #ff7f0e; stroke-width: 1.5; stroke-linecap: square"/>
     <g>
      <use xlink:href="#m0d14640a7b" x="550.126562" y="70.976562" style="fill: #ff7f0e; stroke: #ff7f0e"/>
     </g>
    </g>
    <g id="text_15">
     <!-- Testing RMSE -->
     <g transform="translate(568.126562 74.476562) scale(0.1 -0.1)">
      <defs>
       <path id="DejaVuSans-74" d="M 1172 4494 
L 1172 3500 
L 2356 3500 
L 2356 3053 
L 1172 3053 
L 1172 1153 
Q 1172 725 1289 603 
Q 1406 481 1766 481 
L 2356 481 
L 2356 0 
L 1766 0 
Q 1100 0 847 248 
Q 594 497 594 1153 
L 594 3053 
L 172 3053 
L 172 3500 
L 594 3500 
L 594 4494 
L 1172 4494 
z
" transform="scale(0.015625)"/>
      </defs>
      <use xlink:href="#DejaVuSans-54"/>
      <use xlink:href="#DejaVuSans-65" transform="translate(44.083984 0)"/>
      <use xlink:href="#DejaVuSans-73" transform="translate(105.607422 0)"/>
      <use xlink:href="#DejaVuSans-74" transform="translate(157.707031 0)"/>
      <use xlink:href="#DejaVuSans-69" transform="translate(196.916016 0)"/>
      <use xlink:href="#DejaVuSans-6e" transform="translate(224.699219 0)"/>
      <use xlink:href="#DejaVuSans-67" transform="translate(288.078125 0)"/>
      <use xlink:href="#DejaVuSans-20" transform="translate(351.554688 0)"/>
      <use xlink:href="#DejaVuSans-52" transform="translate(383.341797 0)"/>
      <use xlink:href="#DejaVuSans-4d" transform="translate(452.824219 0)"/>
      <use xlink:href="#DejaVuSans-53" transform="translate(539.103516 0)"/>
      <use xlink:href="#DejaVuSans-45" transform="translate(602.580078 0)"/>
     </g>
    </g>
   </g>
  </g>
 </g>
 <defs>
  <clipPath id="p2ef59297ec">
   <rect x="90" y="43.2" width="558" height="277.2"/>
  </clipPath>
 </defs>
</svg>
