<?xml version="1.0" encoding="utf-8" standalone="no"?>
<!DOCTYPE svg PUBLIC "-//W3C//DTD SVG 1.1//EN"
  "http://www.w3.org/Graphics/SVG/1.1/DTD/svg11.dtd">
<svg xmlns:xlink="http://www.w3.org/1999/xlink" width="720pt" height="360pt" viewBox="0 0 720 360" xmlns="http://www.w3.org/2000/svg" version="1.1">
 <metadata>
  <rdf:RDF xmlns:dc="http://purl.org/dc/elements/1.1/" xmlns:cc="http://creativecommons.org/ns#" xmlns:rdf="http://www.w3.org/1999/02/22-rdf-syntax-ns#">
   <cc:Work>
    <dc:type rdf:resource="http://purl.org/dc/dcmitype/StillImage"/>
    <dc:date>2025-07-23T21:27:17.720459</dc:date>
    <dc:format>image/svg+xml</dc:format>
    <dc:creator>
     <cc:Agent>
      <dc:title>Matplotlib v3.10.3, https://matplotlib.org/</dc:title>
     </cc:Agent>
    </dc:creator>
   </cc:Work>
  </rdf:RDF>
 </metadata>
 <defs>
  <style type="text/css">*{stroke-linejoin: round; stroke-linecap: butt}</style>
 </defs>
 <g id="figure_1">
  <g id="patch_1">
   <path d="M 0 360 
L 720 360 
L 720 0 
L 0 0 
z
" style="fill: #ffffff"/>
  </g>
  <g id="axes_1">
   <g id="patch_2">
    <path d="M 90 320.4 
L 648 320.4 
L 648 43.2 
L 90 43.2 
z
" style="fill: #ffffff"/>
   </g>
   <g id="matplotlib.axis_1">
    <g id="xtick_1">
     <g id="line2d_1">
      <defs>
       <path id="m499ace27bd" d="M 0 0 
L 0 3.5 
" style="stroke: #000000; stroke-width: 0.8"/>
      </defs>
      <g>
       <use xlink:href="#m499ace27bd" x="110.239669" y="320.4" style="stroke: #000000; stroke-width: 0.8"/>
      </g>
     </g>
     <g id="text_1">
      <!-- 0 -->
      <g transform="translate(107.058419 334.998438) scale(0.1 -0.1)">
       <defs>
        <path id="DejaVuSans-30" d="M 2034 4250 
Q 1547 4250 1301 3770 
Q 1056 3291 1056 2328 
Q 1056 1369 1301 889 
Q 1547 409 2034 409 
Q 2525 409 2770 889 
Q 3016 1369 3016 2328 
Q 3016 3291 2770 3770 
Q 2525 4250 2034 4250 
z
M 2034 4750 
Q 2819 4750 3233 4129 
Q 3647 3509 3647 2328 
Q 3647 1150 3233 529 
Q 2819 -91 2034 -91 
Q 1250 -91 836 529 
Q 422 1150 422 2328 
Q 422 3509 836 4129 
Q 1250 4750 2034 4750 
z
" transform="scale(0.015625)"/>
       </defs>
       <use xlink:href="#DejaVuSans-30"/>
      </g>
     </g>
    </g>
    <g id="xtick_2">
     <g id="line2d_2">
      <g>
       <use xlink:href="#m499ace27bd" x="212.719008" y="320.4" style="stroke: #000000; stroke-width: 0.8"/>
      </g>
     </g>
     <g id="text_2">
      <!-- 20 -->
      <g transform="translate(206.356508 334.998438) scale(0.1 -0.1)">
       <defs>
        <path id="DejaVuSans-32" d="M 1228 531 
L 3431 531 
L 3431 0 
L 469 0 
L 469 531 
Q 828 903 1448 1529 
Q 2069 2156 2228 2338 
Q 2531 2678 2651 2914 
Q 2772 3150 2772 3378 
Q 2772 3750 2511 3984 
Q 2250 4219 1831 4219 
Q 1534 4219 1204 4116 
Q 875 4013 500 3803 
L 500 4441 
Q 881 4594 1212 4672 
Q 1544 4750 1819 4750 
Q 2544 4750 2975 4387 
Q 3406 4025 3406 3419 
Q 3406 3131 3298 2873 
Q 3191 2616 2906 2266 
Q 2828 2175 2409 1742 
Q 1991 1309 1228 531 
z
" transform="scale(0.015625)"/>
       </defs>
       <use xlink:href="#DejaVuSans-32"/>
       <use xlink:href="#DejaVuSans-30" transform="translate(63.623047 0)"/>
      </g>
     </g>
    </g>
    <g id="xtick_3">
     <g id="line2d_3">
      <g>
       <use xlink:href="#m499ace27bd" x="315.198347" y="320.4" style="stroke: #000000; stroke-width: 0.8"/>
      </g>
     </g>
     <g id="text_3">
      <!-- 40 -->
      <g transform="translate(308.835847 334.998438) scale(0.1 -0.1)">
       <defs>
        <path id="DejaVuSans-34" d="M 2419 4116 
L 825 1625 
L 2419 1625 
L 2419 4116 
z
M 2253 4666 
L 3047 4666 
L 3047 1625 
L 3713 1625 
L 3713 1100 
L 3047 1100 
L 3047 0 
L 2419 0 
L 2419 1100 
L 313 1100 
L 313 1709 
L 2253 4666 
z
" transform="scale(0.015625)"/>
       </defs>
       <use xlink:href="#DejaVuSans-34"/>
       <use xlink:href="#DejaVuSans-30" transform="translate(63.623047 0)"/>
      </g>
     </g>
    </g>
    <g id="xtick_4">
     <g id="line2d_4">
      <g>
       <use xlink:href="#m499ace27bd" x="417.677686" y="320.4" style="stroke: #000000; stroke-width: 0.8"/>
      </g>
     </g>
     <g id="text_4">
      <!-- 60 -->
      <g transform="translate(411.315186 334.998438) scale(0.1 -0.1)">
       <defs>
        <path id="DejaVuSans-36" d="M 2113 2584 
Q 1688 2584 1439 2293 
Q 1191 2003 1191 1497 
Q 1191 994 1439 701 
Q 1688 409 2113 409 
Q 2538 409 2786 701 
Q 3034 994 3034 1497 
Q 3034 2003 2786 2293 
Q 2538 2584 2113 2584 
z
M 3366 4563 
L 3366 3988 
Q 3128 4100 2886 4159 
Q 2644 4219 2406 4219 
Q 1781 4219 1451 3797 
Q 1122 3375 1075 2522 
Q 1259 2794 1537 2939 
Q 1816 3084 2150 3084 
Q 2853 3084 3261 2657 
Q 3669 2231 3669 1497 
Q 3669 778 3244 343 
Q 2819 -91 2113 -91 
Q 1303 -91 875 529 
Q 447 1150 447 2328 
Q 447 3434 972 4092 
Q 1497 4750 2381 4750 
Q 2619 4750 2861 4703 
Q 3103 4656 3366 4563 
z
" transform="scale(0.015625)"/>
       </defs>
       <use xlink:href="#DejaVuSans-36"/>
       <use xlink:href="#DejaVuSans-30" transform="translate(63.623047 0)"/>
      </g>
     </g>
    </g>
    <g id="xtick_5">
     <g id="line2d_5">
      <g>
       <use xlink:href="#m499ace27bd" x="520.157025" y="320.4" style="stroke: #000000; stroke-width: 0.8"/>
      </g>
     </g>
     <g id="text_5">
      <!-- 80 -->
      <g transform="translate(513.794525 334.998438) scale(0.1 -0.1)">
       <defs>
        <path id="DejaVuSans-38" d="M 2034 2216 
Q 1584 2216 1326 1975 
Q 1069 1734 1069 1313 
Q 1069 891 1326 650 
Q 1584 409 2034 409 
Q 2484 409 2743 651 
Q 3003 894 3003 1313 
Q 3003 1734 2745 1975 
Q 2488 2216 2034 2216 
z
M 1403 2484 
Q 997 2584 770 2862 
Q 544 3141 544 3541 
Q 544 4100 942 4425 
Q 1341 4750 2034 4750 
Q 2731 4750 3128 4425 
Q 3525 4100 3525 3541 
Q 3525 3141 3298 2862 
Q 3072 2584 2669 2484 
Q 3125 2378 3379 2068 
Q 3634 1759 3634 1313 
Q 3634 634 3220 271 
Q 2806 -91 2034 -91 
Q 1263 -91 848 271 
Q 434 634 434 1313 
Q 434 1759 690 2068 
Q 947 2378 1403 2484 
z
M 1172 3481 
Q 1172 3119 1398 2916 
Q 1625 2713 2034 2713 
Q 2441 2713 2670 2916 
Q 2900 3119 2900 3481 
Q 2900 3844 2670 4047 
Q 2441 4250 2034 4250 
Q 1625 4250 1398 4047 
Q 1172 3844 1172 3481 
z
" transform="scale(0.015625)"/>
       </defs>
       <use xlink:href="#DejaVuSans-38"/>
       <use xlink:href="#DejaVuSans-30" transform="translate(63.623047 0)"/>
      </g>
     </g>
    </g>
    <g id="xtick_6">
     <g id="line2d_6">
      <g>
       <use xlink:href="#m499ace27bd" x="622.636364" y="320.4" style="stroke: #000000; stroke-width: 0.8"/>
      </g>
     </g>
     <g id="text_6">
      <!-- 100 -->
      <g transform="translate(613.092614 334.998438) scale(0.1 -0.1)">
       <defs>
        <path id="DejaVuSans-31" d="M 794 531 
L 1825 531 
L 1825 4091 
L 703 3866 
L 703 4441 
L 1819 4666 
L 2450 4666 
L 2450 531 
L 3481 531 
L 3481 0 
L 794 0 
L 794 531 
z
" transform="scale(0.015625)"/>
       </defs>
       <use xlink:href="#DejaVuSans-31"/>
       <use xlink:href="#DejaVuSans-30" transform="translate(63.623047 0)"/>
       <use xlink:href="#DejaVuSans-30" transform="translate(127.246094 0)"/>
      </g>
     </g>
    </g>
    <g id="text_7">
     <!-- Epoch -->
     <g transform="translate(353.689062 348.676562) scale(0.1 -0.1)">
      <defs>
       <path id="DejaVuSans-45" d="M 628 4666 
L 3578 4666 
L 3578 4134 
L 1259 4134 
L 1259 2753 
L 3481 2753 
L 3481 2222 
L 1259 2222 
L 1259 531 
L 3634 531 
L 3634 0 
L 628 0 
L 628 4666 
z
" transform="scale(0.015625)"/>
       <path id="DejaVuSans-70" d="M 1159 525 
L 1159 -1331 
L 581 -1331 
L 581 3500 
L 1159 3500 
L 1159 2969 
Q 1341 3281 1617 3432 
Q 1894 3584 2278 3584 
Q 2916 3584 3314 3078 
Q 3713 2572 3713 1747 
Q 3713 922 3314 415 
Q 2916 -91 2278 -91 
Q 1894 -91 1617 61 
Q 1341 213 1159 525 
z
M 3116 1747 
Q 3116 2381 2855 2742 
Q 2594 3103 2138 3103 
Q 1681 3103 1420 2742 
Q 1159 2381 1159 1747 
Q 1159 1113 1420 752 
Q 1681 391 2138 391 
Q 2594 391 2855 752 
Q 3116 1113 3116 1747 
z
" transform="scale(0.015625)"/>
       <path id="DejaVuSans-6f" d="M 1959 3097 
Q 1497 3097 1228 2736 
Q 959 2375 959 1747 
Q 959 1119 1226 758 
Q 1494 397 1959 397 
Q 2419 397 2687 759 
Q 2956 1122 2956 1747 
Q 2956 2369 2687 2733 
Q 2419 3097 1959 3097 
z
M 1959 3584 
Q 2709 3584 3137 3096 
Q 3566 2609 3566 1747 
Q 3566 888 3137 398 
Q 2709 -91 1959 -91 
Q 1206 -91 779 398 
Q 353 888 353 1747 
Q 353 2609 779 3096 
Q 1206 3584 1959 3584 
z
" transform="scale(0.015625)"/>
       <path id="DejaVuSans-63" d="M 3122 3366 
L 3122 2828 
Q 2878 2963 2633 3030 
Q 2388 3097 2138 3097 
Q 1578 3097 1268 2742 
Q 959 2388 959 1747 
Q 959 1106 1268 751 
Q 1578 397 2138 397 
Q 2388 397 2633 464 
Q 2878 531 3122 666 
L 3122 134 
Q 2881 22 2623 -34 
Q 2366 -91 2075 -91 
Q 1284 -91 818 406 
Q 353 903 353 1747 
Q 353 2603 823 3093 
Q 1294 3584 2113 3584 
Q 2378 3584 2631 3529 
Q 2884 3475 3122 3366 
z
" transform="scale(0.015625)"/>
       <path id="DejaVuSans-68" d="M 3513 2113 
L 3513 0 
L 2938 0 
L 2938 2094 
Q 2938 2591 2744 2837 
Q 2550 3084 2163 3084 
Q 1697 3084 1428 2787 
Q 1159 2491 1159 1978 
L 1159 0 
L 581 0 
L 581 4863 
L 1159 4863 
L 1159 2956 
Q 1366 3272 1645 3428 
Q 1925 3584 2291 3584 
Q 2894 3584 3203 3211 
Q 3513 2838 3513 2113 
z
" transform="scale(0.015625)"/>
      </defs>
      <use xlink:href="#DejaVuSans-45"/>
      <use xlink:href="#DejaVuSans-70" transform="translate(63.183594 0)"/>
      <use xlink:href="#DejaVuSans-6f" transform="translate(126.660156 0)"/>
      <use xlink:href="#DejaVuSans-63" transform="translate(187.841797 0)"/>
      <use xlink:href="#DejaVuSans-68" transform="translate(242.822266 0)"/>
     </g>
    </g>
   </g>
   <g id="matplotlib.axis_2">
    <g id="ytick_1">
     <g id="line2d_7">
      <defs>
       <path id="m00a2fafb35" d="M 0 0 
L -3.5 0 
" style="stroke: #000000; stroke-width: 0.8"/>
      </defs>
      <g>
       <use xlink:href="#m00a2fafb35" x="90" y="279.967944" style="stroke: #000000; stroke-width: 0.8"/>
      </g>
     </g>
     <g id="text_8">
      <!-- 0.80 -->
      <g transform="translate(60.734375 283.767163) scale(0.1 -0.1)">
       <defs>
        <path id="DejaVuSans-2e" d="M 684 794 
L 1344 794 
L 1344 0 
L 684 0 
L 684 794 
z
" transform="scale(0.015625)"/>
       </defs>
       <use xlink:href="#DejaVuSans-30"/>
       <use xlink:href="#DejaVuSans-2e" transform="translate(63.623047 0)"/>
       <use xlink:href="#DejaVuSans-38" transform="translate(95.410156 0)"/>
       <use xlink:href="#DejaVuSans-30" transform="translate(159.033203 0)"/>
      </g>
     </g>
    </g>
    <g id="ytick_2">
     <g id="line2d_8">
      <g>
       <use xlink:href="#m00a2fafb35" x="90" y="221.723637" style="stroke: #000000; stroke-width: 0.8"/>
      </g>
     </g>
     <g id="text_9">
      <!-- 0.82 -->
      <g transform="translate(60.734375 225.522856) scale(0.1 -0.1)">
       <use xlink:href="#DejaVuSans-30"/>
       <use xlink:href="#DejaVuSans-2e" transform="translate(63.623047 0)"/>
       <use xlink:href="#DejaVuSans-38" transform="translate(95.410156 0)"/>
       <use xlink:href="#DejaVuSans-32" transform="translate(159.033203 0)"/>
      </g>
     </g>
    </g>
    <g id="ytick_3">
     <g id="line2d_9">
      <g>
       <use xlink:href="#m00a2fafb35" x="90" y="163.47933" style="stroke: #000000; stroke-width: 0.8"/>
      </g>
     </g>
     <g id="text_10">
      <!-- 0.84 -->
      <g transform="translate(60.734375 167.278548) scale(0.1 -0.1)">
       <use xlink:href="#DejaVuSans-30"/>
       <use xlink:href="#DejaVuSans-2e" transform="translate(63.623047 0)"/>
       <use xlink:href="#DejaVuSans-38" transform="translate(95.410156 0)"/>
       <use xlink:href="#DejaVuSans-34" transform="translate(159.033203 0)"/>
      </g>
     </g>
    </g>
    <g id="ytick_4">
     <g id="line2d_10">
      <g>
       <use xlink:href="#m00a2fafb35" x="90" y="105.235022" style="stroke: #000000; stroke-width: 0.8"/>
      </g>
     </g>
     <g id="text_11">
      <!-- 0.86 -->
      <g transform="translate(60.734375 109.034241) scale(0.1 -0.1)">
       <use xlink:href="#DejaVuSans-30"/>
       <use xlink:href="#DejaVuSans-2e" transform="translate(63.623047 0)"/>
       <use xlink:href="#DejaVuSans-38" transform="translate(95.410156 0)"/>
       <use xlink:href="#DejaVuSans-36" transform="translate(159.033203 0)"/>
      </g>
     </g>
    </g>
    <g id="ytick_5">
     <g id="line2d_11">
      <g>
       <use xlink:href="#m00a2fafb35" x="90" y="46.990715" style="stroke: #000000; stroke-width: 0.8"/>
      </g>
     </g>
     <g id="text_12">
      <!-- 0.88 -->
      <g transform="translate(60.734375 50.789934) scale(0.1 -0.1)">
       <use xlink:href="#DejaVuSans-30"/>
       <use xlink:href="#DejaVuSans-2e" transform="translate(63.623047 0)"/>
       <use xlink:href="#DejaVuSans-38" transform="translate(95.410156 0)"/>
       <use xlink:href="#DejaVuSans-38" transform="translate(159.033203 0)"/>
      </g>
     </g>
    </g>
    <g id="text_13">
     <!-- RMSE -->
     <g transform="translate(54.654688 195.921875) rotate(-90) scale(0.1 -0.1)">
      <defs>
       <path id="DejaVuSans-52" d="M 2841 2188 
Q 3044 2119 3236 1894 
Q 3428 1669 3622 1275 
L 4263 0 
L 3584 0 
L 2988 1197 
Q 2756 1666 2539 1819 
Q 2322 1972 1947 1972 
L 1259 1972 
L 1259 0 
L 628 0 
L 628 4666 
L 2053 4666 
Q 2853 4666 3247 4331 
Q 3641 3997 3641 3322 
Q 3641 2881 3436 2590 
Q 3231 2300 2841 2188 
z
M 1259 4147 
L 1259 2491 
L 2053 2491 
Q 2509 2491 2742 2702 
Q 2975 2913 2975 3322 
Q 2975 3731 2742 3939 
Q 2509 4147 2053 4147 
L 1259 4147 
z
" transform="scale(0.015625)"/>
       <path id="DejaVuSans-4d" d="M 628 4666 
L 1569 4666 
L 2759 1491 
L 3956 4666 
L 4897 4666 
L 4897 0 
L 4281 0 
L 4281 4097 
L 3078 897 
L 2444 897 
L 1241 4097 
L 1241 0 
L 628 0 
L 628 4666 
z
" transform="scale(0.015625)"/>
       <path id="DejaVuSans-53" d="M 3425 4513 
L 3425 3897 
Q 3066 4069 2747 4153 
Q 2428 4238 2131 4238 
Q 1616 4238 1336 4038 
Q 1056 3838 1056 3469 
Q 1056 3159 1242 3001 
Q 1428 2844 1947 2747 
L 2328 2669 
Q 3034 2534 3370 2195 
Q 3706 1856 3706 1288 
Q 3706 609 3251 259 
Q 2797 -91 1919 -91 
Q 1588 -91 1214 -16 
Q 841 59 441 206 
L 441 856 
Q 825 641 1194 531 
Q 1563 422 1919 422 
Q 2459 422 2753 634 
Q 3047 847 3047 1241 
Q 3047 1584 2836 1778 
Q 2625 1972 2144 2069 
L 1759 2144 
Q 1053 2284 737 2584 
Q 422 2884 422 3419 
Q 422 4038 858 4394 
Q 1294 4750 2059 4750 
Q 2388 4750 2728 4690 
Q 3069 4631 3425 4513 
z
" transform="scale(0.015625)"/>
      </defs>
      <use xlink:href="#DejaVuSans-52"/>
      <use xlink:href="#DejaVuSans-4d" transform="translate(69.482422 0)"/>
      <use xlink:href="#DejaVuSans-53" transform="translate(155.761719 0)"/>
      <use xlink:href="#DejaVuSans-45" transform="translate(219.238281 0)"/>
     </g>
    </g>
   </g>
   <g id="line2d_12">
    <path d="M 115.363636 264.048777 
L 120.487603 303.909621 
L 125.61157 306.935271 
L 130.735537 307.522381 
L 135.859504 307.728658 
L 140.983471 307.8 
L 146.107438 307.799336 
L 151.231405 307.752764 
L 156.355372 307.674692 
L 161.479339 307.574595 
L 166.603306 307.459333 
L 171.727273 307.334116 
L 176.85124 307.202977 
L 181.975207 307.069058 
L 187.099174 306.934794 
L 192.22314 306.802061 
L 197.347107 306.672277 
L 202.471074 306.546495 
L 207.595041 306.425472 
L 212.719008 306.309726 
L 217.842975 306.199586 
L 222.966942 306.095231 
L 228.090909 305.996722 
L 233.214876 305.904028 
L 238.338843 305.817046 
L 243.46281 305.735622 
L 248.586777 305.659564 
L 253.710744 305.588652 
L 258.834711 305.522647 
L 263.958678 305.4613 
L 269.082645 305.404358 
L 274.206612 305.351567 
L 279.330579 305.302677 
L 284.454545 305.257441 
L 289.578512 305.215623 
L 294.702479 305.176994 
L 299.826446 305.141335 
L 304.950413 305.108439 
L 310.07438 305.078109 
L 315.198347 305.050159 
L 320.322314 305.024415 
L 325.446281 305.000711 
L 330.570248 304.978896 
L 335.694215 304.958826 
L 340.818182 304.940366 
L 345.942149 304.923393 
L 351.066116 304.907791 
L 356.190083 304.893452 
L 361.31405 304.880278 
L 366.438017 304.868176 
L 371.561983 304.857061 
L 376.68595 304.846854 
L 381.809917 304.837482 
L 386.933884 304.828879 
L 392.057851 304.820981 
L 397.181818 304.813733 
L 402.305785 304.807081 
L 407.429752 304.800978 
L 412.553719 304.795377 
L 417.677686 304.790239 
L 422.801653 304.785525 
L 427.92562 304.781201 
L 433.049587 304.777235 
L 438.173554 304.773596 
L 443.297521 304.77026 
L 448.421488 304.767199 
L 453.545455 304.764393 
L 458.669421 304.761819 
L 463.793388 304.759459 
L 468.917355 304.757295 
L 474.041322 304.75531 
L 479.165289 304.75349 
L 484.289256 304.751822 
L 489.413223 304.750292 
L 494.53719 304.748889 
L 499.661157 304.747603 
L 504.785124 304.746424 
L 509.909091 304.745343 
L 515.033058 304.744352 
L 520.157025 304.743443 
L 525.280992 304.74261 
L 530.404959 304.741847 
L 535.528926 304.741147 
L 540.652893 304.740505 
L 545.77686 304.739916 
L 550.900826 304.739377 
L 556.024793 304.738883 
L 561.14876 304.738429 
L 566.272727 304.738014 
L 571.396694 304.737633 
L 576.520661 304.737284 
L 581.644628 304.736963 
L 586.768595 304.73667 
L 591.892562 304.736401 
L 597.016529 304.736154 
L 602.140496 304.735928 
L 607.264463 304.735721 
L 612.38843 304.735531 
L 617.512397 304.735357 
L 622.636364 304.735197 
" clip-path="url(#p472459c236)" style="fill: none; stroke: #1f77b4; stroke-width: 1.5; stroke-linecap: square"/>
    <defs>
     <path id="m5ec72c1b8c" d="M 0 3 
C 0.795609 3 1.55874 2.683901 2.12132 2.12132 
C 2.683901 1.55874 3 0.795609 3 0 
C 3 -0.795609 2.683901 -1.55874 2.12132 -2.12132 
C 1.55874 -2.683901 0.795609 -3 0 -3 
C -0.795609 -3 -1.55874 -2.683901 -2.12132 -2.12132 
C -2.683901 -1.55874 -3 -0.795609 -3 0 
C -3 0.795609 -2.683901 1.55874 -2.12132 2.12132 
C -1.55874 2.683901 -0.795609 3 0 3 
z
" style="stroke: #1f77b4"/>
    </defs>
    <g clip-path="url(#p472459c236)">
     <use xlink:href="#m5ec72c1b8c" x="115.363636" y="264.048777" style="fill: #1f77b4; stroke: #1f77b4"/>
     <use xlink:href="#m5ec72c1b8c" x="120.487603" y="303.909621" style="fill: #1f77b4; stroke: #1f77b4"/>
     <use xlink:href="#m5ec72c1b8c" x="125.61157" y="306.935271" style="fill: #1f77b4; stroke: #1f77b4"/>
     <use xlink:href="#m5ec72c1b8c" x="130.735537" y="307.522381" style="fill: #1f77b4; stroke: #1f77b4"/>
     <use xlink:href="#m5ec72c1b8c" x="135.859504" y="307.728658" style="fill: #1f77b4; stroke: #1f77b4"/>
     <use xlink:href="#m5ec72c1b8c" x="140.983471" y="307.8" style="fill: #1f77b4; stroke: #1f77b4"/>
     <use xlink:href="#m5ec72c1b8c" x="146.107438" y="307.799336" style="fill: #1f77b4; stroke: #1f77b4"/>
     <use xlink:href="#m5ec72c1b8c" x="151.231405" y="307.752764" style="fill: #1f77b4; stroke: #1f77b4"/>
     <use xlink:href="#m5ec72c1b8c" x="156.355372" y="307.674692" style="fill: #1f77b4; stroke: #1f77b4"/>
     <use xlink:href="#m5ec72c1b8c" x="161.479339" y="307.574595" style="fill: #1f77b4; stroke: #1f77b4"/>
     <use xlink:href="#m5ec72c1b8c" x="166.603306" y="307.459333" style="fill: #1f77b4; stroke: #1f77b4"/>
     <use xlink:href="#m5ec72c1b8c" x="171.727273" y="307.334116" style="fill: #1f77b4; stroke: #1f77b4"/>
     <use xlink:href="#m5ec72c1b8c" x="176.85124" y="307.202977" style="fill: #1f77b4; stroke: #1f77b4"/>
     <use xlink:href="#m5ec72c1b8c" x="181.975207" y="307.069058" style="fill: #1f77b4; stroke: #1f77b4"/>
     <use xlink:href="#m5ec72c1b8c" x="187.099174" y="306.934794" style="fill: #1f77b4; stroke: #1f77b4"/>
     <use xlink:href="#m5ec72c1b8c" x="192.22314" y="306.802061" style="fill: #1f77b4; stroke: #1f77b4"/>
     <use xlink:href="#m5ec72c1b8c" x="197.347107" y="306.672277" style="fill: #1f77b4; stroke: #1f77b4"/>
     <use xlink:href="#m5ec72c1b8c" x="202.471074" y="306.546495" style="fill: #1f77b4; stroke: #1f77b4"/>
     <use xlink:href="#m5ec72c1b8c" x="207.595041" y="306.425472" style="fill: #1f77b4; stroke: #1f77b4"/>
     <use xlink:href="#m5ec72c1b8c" x="212.719008" y="306.309726" style="fill: #1f77b4; stroke: #1f77b4"/>
     <use xlink:href="#m5ec72c1b8c" x="217.842975" y="306.199586" style="fill: #1f77b4; stroke: #1f77b4"/>
     <use xlink:href="#m5ec72c1b8c" x="222.966942" y="306.095231" style="fill: #1f77b4; stroke: #1f77b4"/>
     <use xlink:href="#m5ec72c1b8c" x="228.090909" y="305.996722" style="fill: #1f77b4; stroke: #1f77b4"/>
     <use xlink:href="#m5ec72c1b8c" x="233.214876" y="305.904028" style="fill: #1f77b4; stroke: #1f77b4"/>
     <use xlink:href="#m5ec72c1b8c" x="238.338843" y="305.817046" style="fill: #1f77b4; stroke: #1f77b4"/>
     <use xlink:href="#m5ec72c1b8c" x="243.46281" y="305.735622" style="fill: #1f77b4; stroke: #1f77b4"/>
     <use xlink:href="#m5ec72c1b8c" x="248.586777" y="305.659564" style="fill: #1f77b4; stroke: #1f77b4"/>
     <use xlink:href="#m5ec72c1b8c" x="253.710744" y="305.588652" style="fill: #1f77b4; stroke: #1f77b4"/>
     <use xlink:href="#m5ec72c1b8c" x="258.834711" y="305.522647" style="fill: #1f77b4; stroke: #1f77b4"/>
     <use xlink:href="#m5ec72c1b8c" x="263.958678" y="305.4613" style="fill: #1f77b4; stroke: #1f77b4"/>
     <use xlink:href="#m5ec72c1b8c" x="269.082645" y="305.404358" style="fill: #1f77b4; stroke: #1f77b4"/>
     <use xlink:href="#m5ec72c1b8c" x="274.206612" y="305.351567" style="fill: #1f77b4; stroke: #1f77b4"/>
     <use xlink:href="#m5ec72c1b8c" x="279.330579" y="305.302677" style="fill: #1f77b4; stroke: #1f77b4"/>
     <use xlink:href="#m5ec72c1b8c" x="284.454545" y="305.257441" style="fill: #1f77b4; stroke: #1f77b4"/>
     <use xlink:href="#m5ec72c1b8c" x="289.578512" y="305.215623" style="fill: #1f77b4; stroke: #1f77b4"/>
     <use xlink:href="#m5ec72c1b8c" x="294.702479" y="305.176994" style="fill: #1f77b4; stroke: #1f77b4"/>
     <use xlink:href="#m5ec72c1b8c" x="299.826446" y="305.141335" style="fill: #1f77b4; stroke: #1f77b4"/>
     <use xlink:href="#m5ec72c1b8c" x="304.950413" y="305.108439" style="fill: #1f77b4; stroke: #1f77b4"/>
     <use xlink:href="#m5ec72c1b8c" x="310.07438" y="305.078109" style="fill: #1f77b4; stroke: #1f77b4"/>
     <use xlink:href="#m5ec72c1b8c" x="315.198347" y="305.050159" style="fill: #1f77b4; stroke: #1f77b4"/>
     <use xlink:href="#m5ec72c1b8c" x="320.322314" y="305.024415" style="fill: #1f77b4; stroke: #1f77b4"/>
     <use xlink:href="#m5ec72c1b8c" x="325.446281" y="305.000711" style="fill: #1f77b4; stroke: #1f77b4"/>
     <use xlink:href="#m5ec72c1b8c" x="330.570248" y="304.978896" style="fill: #1f77b4; stroke: #1f77b4"/>
     <use xlink:href="#m5ec72c1b8c" x="335.694215" y="304.958826" style="fill: #1f77b4; stroke: #1f77b4"/>
     <use xlink:href="#m5ec72c1b8c" x="340.818182" y="304.940366" style="fill: #1f77b4; stroke: #1f77b4"/>
     <use xlink:href="#m5ec72c1b8c" x="345.942149" y="304.923393" style="fill: #1f77b4; stroke: #1f77b4"/>
     <use xlink:href="#m5ec72c1b8c" x="351.066116" y="304.907791" style="fill: #1f77b4; stroke: #1f77b4"/>
     <use xlink:href="#m5ec72c1b8c" x="356.190083" y="304.893452" style="fill: #1f77b4; stroke: #1f77b4"/>
     <use xlink:href="#m5ec72c1b8c" x="361.31405" y="304.880278" style="fill: #1f77b4; stroke: #1f77b4"/>
     <use xlink:href="#m5ec72c1b8c" x="366.438017" y="304.868176" style="fill: #1f77b4; stroke: #1f77b4"/>
     <use xlink:href="#m5ec72c1b8c" x="371.561983" y="304.857061" style="fill: #1f77b4; stroke: #1f77b4"/>
     <use xlink:href="#m5ec72c1b8c" x="376.68595" y="304.846854" style="fill: #1f77b4; stroke: #1f77b4"/>
     <use xlink:href="#m5ec72c1b8c" x="381.809917" y="304.837482" style="fill: #1f77b4; stroke: #1f77b4"/>
     <use xlink:href="#m5ec72c1b8c" x="386.933884" y="304.828879" style="fill: #1f77b4; stroke: #1f77b4"/>
     <use xlink:href="#m5ec72c1b8c" x="392.057851" y="304.820981" style="fill: #1f77b4; stroke: #1f77b4"/>
     <use xlink:href="#m5ec72c1b8c" x="397.181818" y="304.813733" style="fill: #1f77b4; stroke: #1f77b4"/>
     <use xlink:href="#m5ec72c1b8c" x="402.305785" y="304.807081" style="fill: #1f77b4; stroke: #1f77b4"/>
     <use xlink:href="#m5ec72c1b8c" x="407.429752" y="304.800978" style="fill: #1f77b4; stroke: #1f77b4"/>
     <use xlink:href="#m5ec72c1b8c" x="412.553719" y="304.795377" style="fill: #1f77b4; stroke: #1f77b4"/>
     <use xlink:href="#m5ec72c1b8c" x="417.677686" y="304.790239" style="fill: #1f77b4; stroke: #1f77b4"/>
     <use xlink:href="#m5ec72c1b8c" x="422.801653" y="304.785525" style="fill: #1f77b4; stroke: #1f77b4"/>
     <use xlink:href="#m5ec72c1b8c" x="427.92562" y="304.781201" style="fill: #1f77b4; stroke: #1f77b4"/>
     <use xlink:href="#m5ec72c1b8c" x="433.049587" y="304.777235" style="fill: #1f77b4; stroke: #1f77b4"/>
     <use xlink:href="#m5ec72c1b8c" x="438.173554" y="304.773596" style="fill: #1f77b4; stroke: #1f77b4"/>
     <use xlink:href="#m5ec72c1b8c" x="443.297521" y="304.77026" style="fill: #1f77b4; stroke: #1f77b4"/>
     <use xlink:href="#m5ec72c1b8c" x="448.421488" y="304.767199" style="fill: #1f77b4; stroke: #1f77b4"/>
     <use xlink:href="#m5ec72c1b8c" x="453.545455" y="304.764393" style="fill: #1f77b4; stroke: #1f77b4"/>
     <use xlink:href="#m5ec72c1b8c" x="458.669421" y="304.761819" style="fill: #1f77b4; stroke: #1f77b4"/>
     <use xlink:href="#m5ec72c1b8c" x="463.793388" y="304.759459" style="fill: #1f77b4; stroke: #1f77b4"/>
     <use xlink:href="#m5ec72c1b8c" x="468.917355" y="304.757295" style="fill: #1f77b4; stroke: #1f77b4"/>
     <use xlink:href="#m5ec72c1b8c" x="474.041322" y="304.75531" style="fill: #1f77b4; stroke: #1f77b4"/>
     <use xlink:href="#m5ec72c1b8c" x="479.165289" y="304.75349" style="fill: #1f77b4; stroke: #1f77b4"/>
     <use xlink:href="#m5ec72c1b8c" x="484.289256" y="304.751822" style="fill: #1f77b4; stroke: #1f77b4"/>
     <use xlink:href="#m5ec72c1b8c" x="489.413223" y="304.750292" style="fill: #1f77b4; stroke: #1f77b4"/>
     <use xlink:href="#m5ec72c1b8c" x="494.53719" y="304.748889" style="fill: #1f77b4; stroke: #1f77b4"/>
     <use xlink:href="#m5ec72c1b8c" x="499.661157" y="304.747603" style="fill: #1f77b4; stroke: #1f77b4"/>
     <use xlink:href="#m5ec72c1b8c" x="504.785124" y="304.746424" style="fill: #1f77b4; stroke: #1f77b4"/>
     <use xlink:href="#m5ec72c1b8c" x="509.909091" y="304.745343" style="fill: #1f77b4; stroke: #1f77b4"/>
     <use xlink:href="#m5ec72c1b8c" x="515.033058" y="304.744352" style="fill: #1f77b4; stroke: #1f77b4"/>
     <use xlink:href="#m5ec72c1b8c" x="520.157025" y="304.743443" style="fill: #1f77b4; stroke: #1f77b4"/>
     <use xlink:href="#m5ec72c1b8c" x="525.280992" y="304.74261" style="fill: #1f77b4; stroke: #1f77b4"/>
     <use xlink:href="#m5ec72c1b8c" x="530.404959" y="304.741847" style="fill: #1f77b4; stroke: #1f77b4"/>
     <use xlink:href="#m5ec72c1b8c" x="535.528926" y="304.741147" style="fill: #1f77b4; stroke: #1f77b4"/>
     <use xlink:href="#m5ec72c1b8c" x="540.652893" y="304.740505" style="fill: #1f77b4; stroke: #1f77b4"/>
     <use xlink:href="#m5ec72c1b8c" x="545.77686" y="304.739916" style="fill: #1f77b4; stroke: #1f77b4"/>
     <use xlink:href="#m5ec72c1b8c" x="550.900826" y="304.739377" style="fill: #1f77b4; stroke: #1f77b4"/>
     <use xlink:href="#m5ec72c1b8c" x="556.024793" y="304.738883" style="fill: #1f77b4; stroke: #1f77b4"/>
     <use xlink:href="#m5ec72c1b8c" x="561.14876" y="304.738429" style="fill: #1f77b4; stroke: #1f77b4"/>
     <use xlink:href="#m5ec72c1b8c" x="566.272727" y="304.738014" style="fill: #1f77b4; stroke: #1f77b4"/>
     <use xlink:href="#m5ec72c1b8c" x="571.396694" y="304.737633" style="fill: #1f77b4; stroke: #1f77b4"/>
     <use xlink:href="#m5ec72c1b8c" x="576.520661" y="304.737284" style="fill: #1f77b4; stroke: #1f77b4"/>
     <use xlink:href="#m5ec72c1b8c" x="581.644628" y="304.736963" style="fill: #1f77b4; stroke: #1f77b4"/>
     <use xlink:href="#m5ec72c1b8c" x="586.768595" y="304.73667" style="fill: #1f77b4; stroke: #1f77b4"/>
     <use xlink:href="#m5ec72c1b8c" x="591.892562" y="304.736401" style="fill: #1f77b4; stroke: #1f77b4"/>
     <use xlink:href="#m5ec72c1b8c" x="597.016529" y="304.736154" style="fill: #1f77b4; stroke: #1f77b4"/>
     <use xlink:href="#m5ec72c1b8c" x="602.140496" y="304.735928" style="fill: #1f77b4; stroke: #1f77b4"/>
     <use xlink:href="#m5ec72c1b8c" x="607.264463" y="304.735721" style="fill: #1f77b4; stroke: #1f77b4"/>
     <use xlink:href="#m5ec72c1b8c" x="612.38843" y="304.735531" style="fill: #1f77b4; stroke: #1f77b4"/>
     <use xlink:href="#m5ec72c1b8c" x="617.512397" y="304.735357" style="fill: #1f77b4; stroke: #1f77b4"/>
     <use xlink:href="#m5ec72c1b8c" x="622.636364" y="304.735197" style="fill: #1f77b4; stroke: #1f77b4"/>
    </g>
   </g>
   <g id="line2d_13">
    <path d="M 115.363636 55.8 
L 120.487603 87.137404 
L 125.61157 88.342485 
L 130.735537 88.686685 
L 135.859504 88.901192 
L 140.983471 88.965024 
L 146.107438 88.902395 
L 151.231405 88.744637 
L 156.355372 88.517592 
L 161.479339 88.24126 
L 166.603306 87.931146 
L 171.727273 87.599367 
L 176.85124 87.255422 
L 181.975207 86.906736 
L 187.099174 86.559067 
L 192.22314 86.216826 
L 197.347107 85.883334 
L 202.471074 85.561028 
L 207.595041 85.251635 
L 212.719008 84.956312 
L 217.842975 84.675761 
L 222.966942 84.410326 
L 228.090909 84.16007 
L 233.214876 83.924839 
L 238.338843 83.704314 
L 243.46281 83.498053 
L 248.586777 83.305525 
L 253.710744 83.126139 
L 258.834711 82.959265 
L 263.958678 82.804249 
L 269.082645 82.660431 
L 274.206612 82.527153 
L 279.330579 82.403768 
L 284.454545 82.289645 
L 289.578512 82.184176 
L 294.702479 82.086777 
L 299.826446 81.996891 
L 304.950413 81.913987 
L 310.07438 81.837566 
L 315.198347 81.767155 
L 320.322314 81.70231 
L 325.446281 81.642617 
L 330.570248 81.587686 
L 335.694215 81.537155 
L 340.818182 81.490684 
L 345.942149 81.447961 
L 351.066116 81.408692 
L 356.190083 81.372607 
L 361.31405 81.339455 
L 366.438017 81.309002 
L 371.561983 81.281035 
L 376.68595 81.255355 
L 381.809917 81.231777 
L 386.933884 81.210134 
L 392.057851 81.190267 
L 397.181818 81.172035 
L 402.305785 81.155303 
L 407.429752 81.139951 
L 412.553719 81.125864 
L 417.677686 81.112941 
L 422.801653 81.101086 
L 427.92562 81.090211 
L 433.049587 81.080236 
L 438.173554 81.071086 
L 443.297521 81.062695 
L 448.421488 81.054999 
L 453.545455 81.047941 
L 458.669421 81.041469 
L 463.793388 81.035534 
L 468.917355 81.030092 
L 474.041322 81.025101 
L 479.165289 81.020525 
L 484.289256 81.01633 
L 489.413223 81.012483 
L 494.53719 81.008956 
L 499.661157 81.005722 
L 504.785124 81.002757 
L 509.909091 81.000039 
L 515.033058 80.997547 
L 520.157025 80.995263 
L 525.280992 80.993168 
L 530.404959 80.991248 
L 535.528926 80.989487 
L 540.652893 80.987874 
L 545.77686 80.986394 
L 550.900826 80.985038 
L 556.024793 80.983795 
L 561.14876 80.982655 
L 566.272727 80.98161 
L 571.396694 80.980652 
L 576.520661 80.979774 
L 581.644628 80.978969 
L 586.768595 80.978231 
L 591.892562 80.977555 
L 597.016529 80.976935 
L 602.140496 80.976367 
L 607.264463 80.975846 
L 612.38843 80.975368 
L 617.512397 80.97493 
L 622.636364 80.974529 
" clip-path="url(#p472459c236)" style="fill: none; stroke: #ff7f0e; stroke-width: 1.5; stroke-linecap: square"/>
    <defs>
     <path id="m3837a0b8a9" d="M -3 3 
L 3 -3 
M -3 -3 
L 3 3 
" style="stroke: #ff7f0e"/>
    </defs>
    <g clip-path="url(#p472459c236)">
     <use xlink:href="#m3837a0b8a9" x="115.363636" y="55.8" style="fill: #ff7f0e; stroke: #ff7f0e"/>
     <use xlink:href="#m3837a0b8a9" x="120.487603" y="87.137404" style="fill: #ff7f0e; stroke: #ff7f0e"/>
     <use xlink:href="#m3837a0b8a9" x="125.61157" y="88.342485" style="fill: #ff7f0e; stroke: #ff7f0e"/>
     <use xlink:href="#m3837a0b8a9" x="130.735537" y="88.686685" style="fill: #ff7f0e; stroke: #ff7f0e"/>
     <use xlink:href="#m3837a0b8a9" x="135.859504" y="88.901192" style="fill: #ff7f0e; stroke: #ff7f0e"/>
     <use xlink:href="#m3837a0b8a9" x="140.983471" y="88.965024" style="fill: #ff7f0e; stroke: #ff7f0e"/>
     <use xlink:href="#m3837a0b8a9" x="146.107438" y="88.902395" style="fill: #ff7f0e; stroke: #ff7f0e"/>
     <use xlink:href="#m3837a0b8a9" x="151.231405" y="88.744637" style="fill: #ff7f0e; stroke: #ff7f0e"/>
     <use xlink:href="#m3837a0b8a9" x="156.355372" y="88.517592" style="fill: #ff7f0e; stroke: #ff7f0e"/>
     <use xlink:href="#m3837a0b8a9" x="161.479339" y="88.24126" style="fill: #ff7f0e; stroke: #ff7f0e"/>
     <use xlink:href="#m3837a0b8a9" x="166.603306" y="87.931146" style="fill: #ff7f0e; stroke: #ff7f0e"/>
     <use xlink:href="#m3837a0b8a9" x="171.727273" y="87.599367" style="fill: #ff7f0e; stroke: #ff7f0e"/>
     <use xlink:href="#m3837a0b8a9" x="176.85124" y="87.255422" style="fill: #ff7f0e; stroke: #ff7f0e"/>
     <use xlink:href="#m3837a0b8a9" x="181.975207" y="86.906736" style="fill: #ff7f0e; stroke: #ff7f0e"/>
     <use xlink:href="#m3837a0b8a9" x="187.099174" y="86.559067" style="fill: #ff7f0e; stroke: #ff7f0e"/>
     <use xlink:href="#m3837a0b8a9" x="192.22314" y="86.216826" style="fill: #ff7f0e; stroke: #ff7f0e"/>
     <use xlink:href="#m3837a0b8a9" x="197.347107" y="85.883334" style="fill: #ff7f0e; stroke: #ff7f0e"/>
     <use xlink:href="#m3837a0b8a9" x="202.471074" y="85.561028" style="fill: #ff7f0e; stroke: #ff7f0e"/>
     <use xlink:href="#m3837a0b8a9" x="207.595041" y="85.251635" style="fill: #ff7f0e; stroke: #ff7f0e"/>
     <use xlink:href="#m3837a0b8a9" x="212.719008" y="84.956312" style="fill: #ff7f0e; stroke: #ff7f0e"/>
     <use xlink:href="#m3837a0b8a9" x="217.842975" y="84.675761" style="fill: #ff7f0e; stroke: #ff7f0e"/>
     <use xlink:href="#m3837a0b8a9" x="222.966942" y="84.410326" style="fill: #ff7f0e; stroke: #ff7f0e"/>
     <use xlink:href="#m3837a0b8a9" x="228.090909" y="84.16007" style="fill: #ff7f0e; stroke: #ff7f0e"/>
     <use xlink:href="#m3837a0b8a9" x="233.214876" y="83.924839" style="fill: #ff7f0e; stroke: #ff7f0e"/>
     <use xlink:href="#m3837a0b8a9" x="238.338843" y="83.704314" style="fill: #ff7f0e; stroke: #ff7f0e"/>
     <use xlink:href="#m3837a0b8a9" x="243.46281" y="83.498053" style="fill: #ff7f0e; stroke: #ff7f0e"/>
     <use xlink:href="#m3837a0b8a9" x="248.586777" y="83.305525" style="fill: #ff7f0e; stroke: #ff7f0e"/>
     <use xlink:href="#m3837a0b8a9" x="253.710744" y="83.126139" style="fill: #ff7f0e; stroke: #ff7f0e"/>
     <use xlink:href="#m3837a0b8a9" x="258.834711" y="82.959265" style="fill: #ff7f0e; stroke: #ff7f0e"/>
     <use xlink:href="#m3837a0b8a9" x="263.958678" y="82.804249" style="fill: #ff7f0e; stroke: #ff7f0e"/>
     <use xlink:href="#m3837a0b8a9" x="269.082645" y="82.660431" style="fill: #ff7f0e; stroke: #ff7f0e"/>
     <use xlink:href="#m3837a0b8a9" x="274.206612" y="82.527153" style="fill: #ff7f0e; stroke: #ff7f0e"/>
     <use xlink:href="#m3837a0b8a9" x="279.330579" y="82.403768" style="fill: #ff7f0e; stroke: #ff7f0e"/>
     <use xlink:href="#m3837a0b8a9" x="284.454545" y="82.289645" style="fill: #ff7f0e; stroke: #ff7f0e"/>
     <use xlink:href="#m3837a0b8a9" x="289.578512" y="82.184176" style="fill: #ff7f0e; stroke: #ff7f0e"/>
     <use xlink:href="#m3837a0b8a9" x="294.702479" y="82.086777" style="fill: #ff7f0e; stroke: #ff7f0e"/>
     <use xlink:href="#m3837a0b8a9" x="299.826446" y="81.996891" style="fill: #ff7f0e; stroke: #ff7f0e"/>
     <use xlink:href="#m3837a0b8a9" x="304.950413" y="81.913987" style="fill: #ff7f0e; stroke: #ff7f0e"/>
     <use xlink:href="#m3837a0b8a9" x="310.07438" y="81.837566" style="fill: #ff7f0e; stroke: #ff7f0e"/>
     <use xlink:href="#m3837a0b8a9" x="315.198347" y="81.767155" style="fill: #ff7f0e; stroke: #ff7f0e"/>
     <use xlink:href="#m3837a0b8a9" x="320.322314" y="81.70231" style="fill: #ff7f0e; stroke: #ff7f0e"/>
     <use xlink:href="#m3837a0b8a9" x="325.446281" y="81.642617" style="fill: #ff7f0e; stroke: #ff7f0e"/>
     <use xlink:href="#m3837a0b8a9" x="330.570248" y="81.587686" style="fill: #ff7f0e; stroke: #ff7f0e"/>
     <use xlink:href="#m3837a0b8a9" x="335.694215" y="81.537155" style="fill: #ff7f0e; stroke: #ff7f0e"/>
     <use xlink:href="#m3837a0b8a9" x="340.818182" y="81.490684" style="fill: #ff7f0e; stroke: #ff7f0e"/>
     <use xlink:href="#m3837a0b8a9" x="345.942149" y="81.447961" style="fill: #ff7f0e; stroke: #ff7f0e"/>
     <use xlink:href="#m3837a0b8a9" x="351.066116" y="81.408692" style="fill: #ff7f0e; stroke: #ff7f0e"/>
     <use xlink:href="#m3837a0b8a9" x="356.190083" y="81.372607" style="fill: #ff7f0e; stroke: #ff7f0e"/>
     <use xlink:href="#m3837a0b8a9" x="361.31405" y="81.339455" style="fill: #ff7f0e; stroke: #ff7f0e"/>
     <use xlink:href="#m3837a0b8a9" x="366.438017" y="81.309002" style="fill: #ff7f0e; stroke: #ff7f0e"/>
     <use xlink:href="#m3837a0b8a9" x="371.561983" y="81.281035" style="fill: #ff7f0e; stroke: #ff7f0e"/>
     <use xlink:href="#m3837a0b8a9" x="376.68595" y="81.255355" style="fill: #ff7f0e; stroke: #ff7f0e"/>
     <use xlink:href="#m3837a0b8a9" x="381.809917" y="81.231777" style="fill: #ff7f0e; stroke: #ff7f0e"/>
     <use xlink:href="#m3837a0b8a9" x="386.933884" y="81.210134" style="fill: #ff7f0e; stroke: #ff7f0e"/>
     <use xlink:href="#m3837a0b8a9" x="392.057851" y="81.190267" style="fill: #ff7f0e; stroke: #ff7f0e"/>
     <use xlink:href="#m3837a0b8a9" x="397.181818" y="81.172035" style="fill: #ff7f0e; stroke: #ff7f0e"/>
     <use xlink:href="#m3837a0b8a9" x="402.305785" y="81.155303" style="fill: #ff7f0e; stroke: #ff7f0e"/>
     <use xlink:href="#m3837a0b8a9" x="407.429752" y="81.139951" style="fill: #ff7f0e; stroke: #ff7f0e"/>
     <use xlink:href="#m3837a0b8a9" x="412.553719" y="81.125864" style="fill: #ff7f0e; stroke: #ff7f0e"/>
     <use xlink:href="#m3837a0b8a9" x="417.677686" y="81.112941" style="fill: #ff7f0e; stroke: #ff7f0e"/>
     <use xlink:href="#m3837a0b8a9" x="422.801653" y="81.101086" style="fill: #ff7f0e; stroke: #ff7f0e"/>
     <use xlink:href="#m3837a0b8a9" x="427.92562" y="81.090211" style="fill: #ff7f0e; stroke: #ff7f0e"/>
     <use xlink:href="#m3837a0b8a9" x="433.049587" y="81.080236" style="fill: #ff7f0e; stroke: #ff7f0e"/>
     <use xlink:href="#m3837a0b8a9" x="438.173554" y="81.071086" style="fill: #ff7f0e; stroke: #ff7f0e"/>
     <use xlink:href="#m3837a0b8a9" x="443.297521" y="81.062695" style="fill: #ff7f0e; stroke: #ff7f0e"/>
     <use xlink:href="#m3837a0b8a9" x="448.421488" y="81.054999" style="fill: #ff7f0e; stroke: #ff7f0e"/>
     <use xlink:href="#m3837a0b8a9" x="453.545455" y="81.047941" style="fill: #ff7f0e; stroke: #ff7f0e"/>
     <use xlink:href="#m3837a0b8a9" x="458.669421" y="81.041469" style="fill: #ff7f0e; stroke: #ff7f0e"/>
     <use xlink:href="#m3837a0b8a9" x="463.793388" y="81.035534" style="fill: #ff7f0e; stroke: #ff7f0e"/>
     <use xlink:href="#m3837a0b8a9" x="468.917355" y="81.030092" style="fill: #ff7f0e; stroke: #ff7f0e"/>
     <use xlink:href="#m3837a0b8a9" x="474.041322" y="81.025101" style="fill: #ff7f0e; stroke: #ff7f0e"/>
     <use xlink:href="#m3837a0b8a9" x="479.165289" y="81.020525" style="fill: #ff7f0e; stroke: #ff7f0e"/>
     <use xlink:href="#m3837a0b8a9" x="484.289256" y="81.01633" style="fill: #ff7f0e; stroke: #ff7f0e"/>
     <use xlink:href="#m3837a0b8a9" x="489.413223" y="81.012483" style="fill: #ff7f0e; stroke: #ff7f0e"/>
     <use xlink:href="#m3837a0b8a9" x="494.53719" y="81.008956" style="fill: #ff7f0e; stroke: #ff7f0e"/>
     <use xlink:href="#m3837a0b8a9" x="499.661157" y="81.005722" style="fill: #ff7f0e; stroke: #ff7f0e"/>
     <use xlink:href="#m3837a0b8a9" x="504.785124" y="81.002757" style="fill: #ff7f0e; stroke: #ff7f0e"/>
     <use xlink:href="#m3837a0b8a9" x="509.909091" y="81.000039" style="fill: #ff7f0e; stroke: #ff7f0e"/>
     <use xlink:href="#m3837a0b8a9" x="515.033058" y="80.997547" style="fill: #ff7f0e; stroke: #ff7f0e"/>
     <use xlink:href="#m3837a0b8a9" x="520.157025" y="80.995263" style="fill: #ff7f0e; stroke: #ff7f0e"/>
     <use xlink:href="#m3837a0b8a9" x="525.280992" y="80.993168" style="fill: #ff7f0e; stroke: #ff7f0e"/>
     <use xlink:href="#m3837a0b8a9" x="530.404959" y="80.991248" style="fill: #ff7f0e; stroke: #ff7f0e"/>
     <use xlink:href="#m3837a0b8a9" x="535.528926" y="80.989487" style="fill: #ff7f0e; stroke: #ff7f0e"/>
     <use xlink:href="#m3837a0b8a9" x="540.652893" y="80.987874" style="fill: #ff7f0e; stroke: #ff7f0e"/>
     <use xlink:href="#m3837a0b8a9" x="545.77686" y="80.986394" style="fill: #ff7f0e; stroke: #ff7f0e"/>
     <use xlink:href="#m3837a0b8a9" x="550.900826" y="80.985038" style="fill: #ff7f0e; stroke: #ff7f0e"/>
     <use xlink:href="#m3837a0b8a9" x="556.024793" y="80.983795" style="fill: #ff7f0e; stroke: #ff7f0e"/>
     <use xlink:href="#m3837a0b8a9" x="561.14876" y="80.982655" style="fill: #ff7f0e; stroke: #ff7f0e"/>
     <use xlink:href="#m3837a0b8a9" x="566.272727" y="80.98161" style="fill: #ff7f0e; stroke: #ff7f0e"/>
     <use xlink:href="#m3837a0b8a9" x="571.396694" y="80.980652" style="fill: #ff7f0e; stroke: #ff7f0e"/>
     <use xlink:href="#m3837a0b8a9" x="576.520661" y="80.979774" style="fill: #ff7f0e; stroke: #ff7f0e"/>
     <use xlink:href="#m3837a0b8a9" x="581.644628" y="80.978969" style="fill: #ff7f0e; stroke: #ff7f0e"/>
     <use xlink:href="#m3837a0b8a9" x="586.768595" y="80.978231" style="fill: #ff7f0e; stroke: #ff7f0e"/>
     <use xlink:href="#m3837a0b8a9" x="591.892562" y="80.977555" style="fill: #ff7f0e; stroke: #ff7f0e"/>
     <use xlink:href="#m3837a0b8a9" x="597.016529" y="80.976935" style="fill: #ff7f0e; stroke: #ff7f0e"/>
     <use xlink:href="#m3837a0b8a9" x="602.140496" y="80.976367" style="fill: #ff7f0e; stroke: #ff7f0e"/>
     <use xlink:href="#m3837a0b8a9" x="607.264463" y="80.975846" style="fill: #ff7f0e; stroke: #ff7f0e"/>
     <use xlink:href="#m3837a0b8a9" x="612.38843" y="80.975368" style="fill: #ff7f0e; stroke: #ff7f0e"/>
     <use xlink:href="#m3837a0b8a9" x="617.512397" y="80.97493" style="fill: #ff7f0e; stroke: #ff7f0e"/>
     <use xlink:href="#m3837a0b8a9" x="622.636364" y="80.974529" style="fill: #ff7f0e; stroke: #ff7f0e"/>
    </g>
   </g>
   <g id="patch_3">
    <path d="M 90 320.4 
L 90 43.2 
" style="fill: none; stroke: #000000; stroke-width: 0.8; stroke-linejoin: miter; stroke-linecap: square"/>
   </g>
   <g id="patch_4">
    <path d="M 648 320.4 
L 648 43.2 
" style="fill: none; stroke: #000000; stroke-width: 0.8; stroke-linejoin: miter; stroke-linecap: square"/>
   </g>
   <g id="patch_5">
    <path d="M 90 320.4 
L 648 320.4 
" style="fill: none; stroke: #000000; stroke-width: 0.8; stroke-linejoin: miter; stroke-linecap: square"/>
   </g>
   <g id="patch_6">
    <path d="M 90 43.2 
L 648 43.2 
" style="fill: none; stroke: #000000; stroke-width: 0.8; stroke-linejoin: miter; stroke-linecap: square"/>
   </g>
   <g id="text_14">
    <!-- RMSE Over Epochs -->
    <g transform="translate(312.308438 37.2) scale(0.12 -0.12)">
     <defs>
      <path id="DejaVuSans-20" transform="scale(0.015625)"/>
      <path id="DejaVuSans-4f" d="M 2522 4238 
Q 1834 4238 1429 3725 
Q 1025 3213 1025 2328 
Q 1025 1447 1429 934 
Q 1834 422 2522 422 
Q 3209 422 3611 934 
Q 4013 1447 4013 2328 
Q 4013 3213 3611 3725 
Q 3209 4238 2522 4238 
z
M 2522 4750 
Q 3503 4750 4090 4092 
Q 4678 3434 4678 2328 
Q 4678 1225 4090 567 
Q 3503 -91 2522 -91 
Q 1538 -91 948 565 
Q 359 1222 359 2328 
Q 359 3434 948 4092 
Q 1538 4750 2522 4750 
z
" transform="scale(0.015625)"/>
      <path id="DejaVuSans-76" d="M 191 3500 
L 800 3500 
L 1894 563 
L 2988 3500 
L 3597 3500 
L 2284 0 
L 1503 0 
L 191 3500 
z
" transform="scale(0.015625)"/>
      <path id="DejaVuSans-65" d="M 3597 1894 
L 3597 1613 
L 953 1613 
Q 991 1019 1311 708 
Q 1631 397 2203 397 
Q 2534 397 2845 478 
Q 3156 559 3463 722 
L 3463 178 
Q 3153 47 2828 -22 
Q 2503 -91 2169 -91 
Q 1331 -91 842 396 
Q 353 884 353 1716 
Q 353 2575 817 3079 
Q 1281 3584 2069 3584 
Q 2775 3584 3186 3129 
Q 3597 2675 3597 1894 
z
M 3022 2063 
Q 3016 2534 2758 2815 
Q 2500 3097 2075 3097 
Q 1594 3097 1305 2825 
Q 1016 2553 972 2059 
L 3022 2063 
z
" transform="scale(0.015625)"/>
      <path id="DejaVuSans-72" d="M 2631 2963 
Q 2534 3019 2420 3045 
Q 2306 3072 2169 3072 
Q 1681 3072 1420 2755 
Q 1159 2438 1159 1844 
L 1159 0 
L 581 0 
L 581 3500 
L 1159 3500 
L 1159 2956 
Q 1341 3275 1631 3429 
Q 1922 3584 2338 3584 
Q 2397 3584 2469 3576 
Q 2541 3569 2628 3553 
L 2631 2963 
z
" transform="scale(0.015625)"/>
      <path id="DejaVuSans-73" d="M 2834 3397 
L 2834 2853 
Q 2591 2978 2328 3040 
Q 2066 3103 1784 3103 
Q 1356 3103 1142 2972 
Q 928 2841 928 2578 
Q 928 2378 1081 2264 
Q 1234 2150 1697 2047 
L 1894 2003 
Q 2506 1872 2764 1633 
Q 3022 1394 3022 966 
Q 3022 478 2636 193 
Q 2250 -91 1575 -91 
Q 1294 -91 989 -36 
Q 684 19 347 128 
L 347 722 
Q 666 556 975 473 
Q 1284 391 1588 391 
Q 1994 391 2212 530 
Q 2431 669 2431 922 
Q 2431 1156 2273 1281 
Q 2116 1406 1581 1522 
L 1381 1569 
Q 847 1681 609 1914 
Q 372 2147 372 2553 
Q 372 3047 722 3315 
Q 1072 3584 1716 3584 
Q 2034 3584 2315 3537 
Q 2597 3491 2834 3397 
z
" transform="scale(0.015625)"/>
     </defs>
     <use xlink:href="#DejaVuSans-52"/>
     <use xlink:href="#DejaVuSans-4d" transform="translate(69.482422 0)"/>
     <use xlink:href="#DejaVuSans-53" transform="translate(155.761719 0)"/>
     <use xlink:href="#DejaVuSans-45" transform="translate(219.238281 0)"/>
     <use xlink:href="#DejaVuSans-20" transform="translate(282.421875 0)"/>
     <use xlink:href="#DejaVuSans-4f" transform="translate(314.208984 0)"/>
     <use xlink:href="#DejaVuSans-76" transform="translate(392.919922 0)"/>
     <use xlink:href="#DejaVuSans-65" transform="translate(452.099609 0)"/>
     <use xlink:href="#DejaVuSans-72" transform="translate(513.623047 0)"/>
     <use xlink:href="#DejaVuSans-20" transform="translate(554.736328 0)"/>
     <use xlink:href="#DejaVuSans-45" transform="translate(586.523438 0)"/>
     <use xlink:href="#DejaVuSans-70" transform="translate(649.707031 0)"/>
     <use xlink:href="#DejaVuSans-6f" transform="translate(713.183594 0)"/>
     <use xlink:href="#DejaVuSans-63" transform="translate(774.365234 0)"/>
     <use xlink:href="#DejaVuSans-68" transform="translate(829.345703 0)"/>
     <use xlink:href="#DejaVuSans-73" transform="translate(892.724609 0)"/>
    </g>
   </g>
   <g id="legend_1">
    <g id="patch_7">
     <path d="M 538.126562 80.55625 
L 641 80.55625 
Q 643 80.55625 643 78.55625 
L 643 50.2 
Q 643 48.2 641 48.2 
L 538.126562 48.2 
Q 536.126562 48.2 536.126562 50.2 
L 536.126562 78.55625 
Q 536.126562 80.55625 538.126562 80.55625 
z
" style="fill: #ffffff; opacity: 0.8; stroke: #cccccc; stroke-linejoin: miter"/>
    </g>
    <g id="line2d_14">
     <path d="M 540.126562 56.298437 
L 550.126562 56.298437 
L 560.126562 56.298437 
" style="fill: none; stroke: #1f77b4; stroke-width: 1.5; stroke-linecap: square"/>
     <g>
      <use xlink:href="#m5ec72c1b8c" x="550.126562" y="56.298437" style="fill: #1f77b4; stroke: #1f77b4"/>
     </g>
    </g>
    <g id="text_15">
     <!-- Training RMSE -->
     <g transform="translate(568.126562 59.798437) scale(0.1 -0.1)">
      <defs>
       <path id="DejaVuSans-54" d="M -19 4666 
L 3928 4666 
L 3928 4134 
L 2272 4134 
L 2272 0 
L 1638 0 
L 1638 4134 
L -19 4134 
L -19 4666 
z
" transform="scale(0.015625)"/>
       <path id="DejaVuSans-61" d="M 2194 1759 
Q 1497 1759 1228 1600 
Q 959 1441 959 1056 
Q 959 750 1161 570 
Q 1363 391 1709 391 
Q 2188 391 2477 730 
Q 2766 1069 2766 1631 
L 2766 1759 
L 2194 1759 
z
M 3341 1997 
L 3341 0 
L 2766 0 
L 2766 531 
Q 2569 213 2275 61 
Q 1981 -91 1556 -91 
Q 1019 -91 701 211 
Q 384 513 384 1019 
Q 384 1609 779 1909 
Q 1175 2209 1959 2209 
L 2766 2209 
L 2766 2266 
Q 2766 2663 2505 2880 
Q 2244 3097 1772 3097 
Q 1472 3097 1187 3025 
Q 903 2953 641 2809 
L 641 3341 
Q 956 3463 1253 3523 
Q 1550 3584 1831 3584 
Q 2591 3584 2966 3190 
Q 3341 2797 3341 1997 
z
" transform="scale(0.015625)"/>
       <path id="DejaVuSans-69" d="M 603 3500 
L 1178 3500 
L 1178 0 
L 603 0 
L 603 3500 
z
M 603 4863 
L 1178 4863 
L 1178 4134 
L 603 4134 
L 603 4863 
z
" transform="scale(0.015625)"/>
       <path id="DejaVuSans-6e" d="M 3513 2113 
L 3513 0 
L 2938 0 
L 2938 2094 
Q 2938 2591 2744 2837 
Q 2550 3084 2163 3084 
Q 1697 3084 1428 2787 
Q 1159 2491 1159 1978 
L 1159 0 
L 581 0 
L 581 3500 
L 1159 3500 
L 1159 2956 
Q 1366 3272 1645 3428 
Q 1925 3584 2291 3584 
Q 2894 3584 3203 3211 
Q 3513 2838 3513 2113 
z
" transform="scale(0.015625)"/>
       <path id="DejaVuSans-67" d="M 2906 1791 
Q 2906 2416 2648 2759 
Q 2391 3103 1925 3103 
Q 1463 3103 1205 2759 
Q 947 2416 947 1791 
Q 947 1169 1205 825 
Q 1463 481 1925 481 
Q 2391 481 2648 825 
Q 2906 1169 2906 1791 
z
M 3481 434 
Q 3481 -459 3084 -895 
Q 2688 -1331 1869 -1331 
Q 1566 -1331 1297 -1286 
Q 1028 -1241 775 -1147 
L 775 -588 
Q 1028 -725 1275 -790 
Q 1522 -856 1778 -856 
Q 2344 -856 2625 -561 
Q 2906 -266 2906 331 
L 2906 616 
Q 2728 306 2450 153 
Q 2172 0 1784 0 
Q 1141 0 747 490 
Q 353 981 353 1791 
Q 353 2603 747 3093 
Q 1141 3584 1784 3584 
Q 2172 3584 2450 3431 
Q 2728 3278 2906 2969 
L 2906 3500 
L 3481 3500 
L 3481 434 
z
" transform="scale(0.015625)"/>
      </defs>
      <use xlink:href="#DejaVuSans-54"/>
      <use xlink:href="#DejaVuSans-72" transform="translate(46.333984 0)"/>
      <use xlink:href="#DejaVuSans-61" transform="translate(87.447266 0)"/>
      <use xlink:href="#DejaVuSans-69" transform="translate(148.726562 0)"/>
      <use xlink:href="#DejaVuSans-6e" transform="translate(176.509766 0)"/>
      <use xlink:href="#DejaVuSans-69" transform="translate(239.888672 0)"/>
      <use xlink:href="#DejaVuSans-6e" transform="translate(267.671875 0)"/>
      <use xlink:href="#DejaVuSans-67" transform="translate(331.050781 0)"/>
      <use xlink:href="#DejaVuSans-20" transform="translate(394.527344 0)"/>
      <use xlink:href="#DejaVuSans-52" transform="translate(426.314453 0)"/>
      <use xlink:href="#DejaVuSans-4d" transform="translate(495.796875 0)"/>
      <use xlink:href="#DejaVuSans-53" transform="translate(582.076172 0)"/>
      <use xlink:href="#DejaVuSans-45" transform="translate(645.552734 0)"/>
     </g>
    </g>
    <g id="line2d_15">
     <path d="M 540.126562 70.976562 
L 550.126562 70.976562 
L 560.126562 70.976562 
" style="fill: none; stroke: #ff7f0e; stroke-width: 1.5; stroke-linecap: square"/>
     <g>
      <use xlink:href="#m3837a0b8a9" x="550.126562" y="70.976562" style="fill: #ff7f0e; stroke: #ff7f0e"/>
     </g>
    </g>
    <g id="text_16">
     <!-- Testing RMSE -->
     <g transform="translate(568.126562 74.476562) scale(0.1 -0.1)">
      <defs>
       <path id="DejaVuSans-74" d="M 1172 4494 
L 1172 3500 
L 2356 3500 
L 2356 3053 
L 1172 3053 
L 1172 1153 
Q 1172 725 1289 603 
Q 1406 481 1766 481 
L 2356 481 
L 2356 0 
L 1766 0 
Q 1100 0 847 248 
Q 594 497 594 1153 
L 594 3053 
L 172 3053 
L 172 3500 
L 594 3500 
L 594 4494 
L 1172 4494 
z
" transform="scale(0.015625)"/>
      </defs>
      <use xlink:href="#DejaVuSans-54"/>
      <use xlink:href="#DejaVuSans-65" transform="translate(44.083984 0)"/>
      <use xlink:href="#DejaVuSans-73" transform="translate(105.607422 0)"/>
      <use xlink:href="#DejaVuSans-74" transform="translate(157.707031 0)"/>
      <use xlink:href="#DejaVuSans-69" transform="translate(196.916016 0)"/>
      <use xlink:href="#DejaVuSans-6e" transform="translate(224.699219 0)"/>
      <use xlink:href="#DejaVuSans-67" transform="translate(288.078125 0)"/>
      <use xlink:href="#DejaVuSans-20" transform="translate(351.554688 0)"/>
      <use xlink:href="#DejaVuSans-52" transform="translate(383.341797 0)"/>
      <use xlink:href="#DejaVuSans-4d" transform="translate(452.824219 0)"/>
      <use xlink:href="#DejaVuSans-53" transform="translate(539.103516 0)"/>
      <use xlink:href="#DejaVuSans-45" transform="translate(602.580078 0)"/>
     </g>
    </g>
   </g>
  </g>
 </g>
 <defs>
  <clipPath id="p472459c236">
   <rect x="90" y="43.2" width="558" height="277.2"/>
  </clipPath>
 </defs>
</svg>
