<?xml version="1.0" encoding="utf-8" standalone="no"?>
<!DOCTYPE svg PUBLIC "-//W3C//DTD SVG 1.1//EN"
  "http://www.w3.org/Graphics/SVG/1.1/DTD/svg11.dtd">
<svg xmlns:xlink="http://www.w3.org/1999/xlink" width="720pt" height="360pt" viewBox="0 0 720 360" xmlns="http://www.w3.org/2000/svg" version="1.1">
 <metadata>
  <rdf:RDF xmlns:dc="http://purl.org/dc/elements/1.1/" xmlns:cc="http://creativecommons.org/ns#" xmlns:rdf="http://www.w3.org/1999/02/22-rdf-syntax-ns#">
   <cc:Work>
    <dc:type rdf:resource="http://purl.org/dc/dcmitype/StillImage"/>
    <dc:date>2025-07-17T10:43:55.680047</dc:date>
    <dc:format>image/svg+xml</dc:format>
    <dc:creator>
     <cc:Agent>
      <dc:title>Matplotlib v3.10.3, https://matplotlib.org/</dc:title>
     </cc:Agent>
    </dc:creator>
   </cc:Work>
  </rdf:RDF>
 </metadata>
 <defs>
  <style type="text/css">*{stroke-linejoin: round; stroke-linecap: butt}</style>
 </defs>
 <g id="figure_1">
  <g id="patch_1">
   <path d="M 0 360 
L 720 360 
L 720 0 
L 0 0 
z
" style="fill: #ffffff"/>
  </g>
  <g id="axes_1">
   <g id="patch_2">
    <path d="M 90 320.4 
L 648 320.4 
L 648 43.2 
L 90 43.2 
z
" style="fill: #ffffff"/>
   </g>
   <g id="matplotlib.axis_1">
    <g id="xtick_1">
     <g id="line2d_1">
      <defs>
       <path id="m6666a80d8f" d="M 0 0 
L 0 3.5 
" style="stroke: #000000; stroke-width: 0.8"/>
      </defs>
      <g>
       <use xlink:href="#m6666a80d8f" x="110.239669" y="320.4" style="stroke: #000000; stroke-width: 0.8"/>
      </g>
     </g>
     <g id="text_1">
      <!-- 0 -->
      <g transform="translate(107.058419 334.998438) scale(0.1 -0.1)">
       <defs>
        <path id="DejaVuSans-30" d="M 2034 4250 
Q 1547 4250 1301 3770 
Q 1056 3291 1056 2328 
Q 1056 1369 1301 889 
Q 1547 409 2034 409 
Q 2525 409 2770 889 
Q 3016 1369 3016 2328 
Q 3016 3291 2770 3770 
Q 2525 4250 2034 4250 
z
M 2034 4750 
Q 2819 4750 3233 4129 
Q 3647 3509 3647 2328 
Q 3647 1150 3233 529 
Q 2819 -91 2034 -91 
Q 1250 -91 836 529 
Q 422 1150 422 2328 
Q 422 3509 836 4129 
Q 1250 4750 2034 4750 
z
" transform="scale(0.015625)"/>
       </defs>
       <use xlink:href="#DejaVuSans-30"/>
      </g>
     </g>
    </g>
    <g id="xtick_2">
     <g id="line2d_2">
      <g>
       <use xlink:href="#m6666a80d8f" x="212.719008" y="320.4" style="stroke: #000000; stroke-width: 0.8"/>
      </g>
     </g>
     <g id="text_2">
      <!-- 20 -->
      <g transform="translate(206.356508 334.998438) scale(0.1 -0.1)">
       <defs>
        <path id="DejaVuSans-32" d="M 1228 531 
L 3431 531 
L 3431 0 
L 469 0 
L 469 531 
Q 828 903 1448 1529 
Q 2069 2156 2228 2338 
Q 2531 2678 2651 2914 
Q 2772 3150 2772 3378 
Q 2772 3750 2511 3984 
Q 2250 4219 1831 4219 
Q 1534 4219 1204 4116 
Q 875 4013 500 3803 
L 500 4441 
Q 881 4594 1212 4672 
Q 1544 4750 1819 4750 
Q 2544 4750 2975 4387 
Q 3406 4025 3406 3419 
Q 3406 3131 3298 2873 
Q 3191 2616 2906 2266 
Q 2828 2175 2409 1742 
Q 1991 1309 1228 531 
z
" transform="scale(0.015625)"/>
       </defs>
       <use xlink:href="#DejaVuSans-32"/>
       <use xlink:href="#DejaVuSans-30" transform="translate(63.623047 0)"/>
      </g>
     </g>
    </g>
    <g id="xtick_3">
     <g id="line2d_3">
      <g>
       <use xlink:href="#m6666a80d8f" x="315.198347" y="320.4" style="stroke: #000000; stroke-width: 0.8"/>
      </g>
     </g>
     <g id="text_3">
      <!-- 40 -->
      <g transform="translate(308.835847 334.998438) scale(0.1 -0.1)">
       <defs>
        <path id="DejaVuSans-34" d="M 2419 4116 
L 825 1625 
L 2419 1625 
L 2419 4116 
z
M 2253 4666 
L 3047 4666 
L 3047 1625 
L 3713 1625 
L 3713 1100 
L 3047 1100 
L 3047 0 
L 2419 0 
L 2419 1100 
L 313 1100 
L 313 1709 
L 2253 4666 
z
" transform="scale(0.015625)"/>
       </defs>
       <use xlink:href="#DejaVuSans-34"/>
       <use xlink:href="#DejaVuSans-30" transform="translate(63.623047 0)"/>
      </g>
     </g>
    </g>
    <g id="xtick_4">
     <g id="line2d_4">
      <g>
       <use xlink:href="#m6666a80d8f" x="417.677686" y="320.4" style="stroke: #000000; stroke-width: 0.8"/>
      </g>
     </g>
     <g id="text_4">
      <!-- 60 -->
      <g transform="translate(411.315186 334.998438) scale(0.1 -0.1)">
       <defs>
        <path id="DejaVuSans-36" d="M 2113 2584 
Q 1688 2584 1439 2293 
Q 1191 2003 1191 1497 
Q 1191 994 1439 701 
Q 1688 409 2113 409 
Q 2538 409 2786 701 
Q 3034 994 3034 1497 
Q 3034 2003 2786 2293 
Q 2538 2584 2113 2584 
z
M 3366 4563 
L 3366 3988 
Q 3128 4100 2886 4159 
Q 2644 4219 2406 4219 
Q 1781 4219 1451 3797 
Q 1122 3375 1075 2522 
Q 1259 2794 1537 2939 
Q 1816 3084 2150 3084 
Q 2853 3084 3261 2657 
Q 3669 2231 3669 1497 
Q 3669 778 3244 343 
Q 2819 -91 2113 -91 
Q 1303 -91 875 529 
Q 447 1150 447 2328 
Q 447 3434 972 4092 
Q 1497 4750 2381 4750 
Q 2619 4750 2861 4703 
Q 3103 4656 3366 4563 
z
" transform="scale(0.015625)"/>
       </defs>
       <use xlink:href="#DejaVuSans-36"/>
       <use xlink:href="#DejaVuSans-30" transform="translate(63.623047 0)"/>
      </g>
     </g>
    </g>
    <g id="xtick_5">
     <g id="line2d_5">
      <g>
       <use xlink:href="#m6666a80d8f" x="520.157025" y="320.4" style="stroke: #000000; stroke-width: 0.8"/>
      </g>
     </g>
     <g id="text_5">
      <!-- 80 -->
      <g transform="translate(513.794525 334.998438) scale(0.1 -0.1)">
       <defs>
        <path id="DejaVuSans-38" d="M 2034 2216 
Q 1584 2216 1326 1975 
Q 1069 1734 1069 1313 
Q 1069 891 1326 650 
Q 1584 409 2034 409 
Q 2484 409 2743 651 
Q 3003 894 3003 1313 
Q 3003 1734 2745 1975 
Q 2488 2216 2034 2216 
z
M 1403 2484 
Q 997 2584 770 2862 
Q 544 3141 544 3541 
Q 544 4100 942 4425 
Q 1341 4750 2034 4750 
Q 2731 4750 3128 4425 
Q 3525 4100 3525 3541 
Q 3525 3141 3298 2862 
Q 3072 2584 2669 2484 
Q 3125 2378 3379 2068 
Q 3634 1759 3634 1313 
Q 3634 634 3220 271 
Q 2806 -91 2034 -91 
Q 1263 -91 848 271 
Q 434 634 434 1313 
Q 434 1759 690 2068 
Q 947 2378 1403 2484 
z
M 1172 3481 
Q 1172 3119 1398 2916 
Q 1625 2713 2034 2713 
Q 2441 2713 2670 2916 
Q 2900 3119 2900 3481 
Q 2900 3844 2670 4047 
Q 2441 4250 2034 4250 
Q 1625 4250 1398 4047 
Q 1172 3844 1172 3481 
z
" transform="scale(0.015625)"/>
       </defs>
       <use xlink:href="#DejaVuSans-38"/>
       <use xlink:href="#DejaVuSans-30" transform="translate(63.623047 0)"/>
      </g>
     </g>
    </g>
    <g id="xtick_6">
     <g id="line2d_6">
      <g>
       <use xlink:href="#m6666a80d8f" x="622.636364" y="320.4" style="stroke: #000000; stroke-width: 0.8"/>
      </g>
     </g>
     <g id="text_6">
      <!-- 100 -->
      <g transform="translate(613.092614 334.998438) scale(0.1 -0.1)">
       <defs>
        <path id="DejaVuSans-31" d="M 794 531 
L 1825 531 
L 1825 4091 
L 703 3866 
L 703 4441 
L 1819 4666 
L 2450 4666 
L 2450 531 
L 3481 531 
L 3481 0 
L 794 0 
L 794 531 
z
" transform="scale(0.015625)"/>
       </defs>
       <use xlink:href="#DejaVuSans-31"/>
       <use xlink:href="#DejaVuSans-30" transform="translate(63.623047 0)"/>
       <use xlink:href="#DejaVuSans-30" transform="translate(127.246094 0)"/>
      </g>
     </g>
    </g>
    <g id="text_7">
     <!-- Epoch -->
     <g transform="translate(353.689062 348.676562) scale(0.1 -0.1)">
      <defs>
       <path id="DejaVuSans-45" d="M 628 4666 
L 3578 4666 
L 3578 4134 
L 1259 4134 
L 1259 2753 
L 3481 2753 
L 3481 2222 
L 1259 2222 
L 1259 531 
L 3634 531 
L 3634 0 
L 628 0 
L 628 4666 
z
" transform="scale(0.015625)"/>
       <path id="DejaVuSans-70" d="M 1159 525 
L 1159 -1331 
L 581 -1331 
L 581 3500 
L 1159 3500 
L 1159 2969 
Q 1341 3281 1617 3432 
Q 1894 3584 2278 3584 
Q 2916 3584 3314 3078 
Q 3713 2572 3713 1747 
Q 3713 922 3314 415 
Q 2916 -91 2278 -91 
Q 1894 -91 1617 61 
Q 1341 213 1159 525 
z
M 3116 1747 
Q 3116 2381 2855 2742 
Q 2594 3103 2138 3103 
Q 1681 3103 1420 2742 
Q 1159 2381 1159 1747 
Q 1159 1113 1420 752 
Q 1681 391 2138 391 
Q 2594 391 2855 752 
Q 3116 1113 3116 1747 
z
" transform="scale(0.015625)"/>
       <path id="DejaVuSans-6f" d="M 1959 3097 
Q 1497 3097 1228 2736 
Q 959 2375 959 1747 
Q 959 1119 1226 758 
Q 1494 397 1959 397 
Q 2419 397 2687 759 
Q 2956 1122 2956 1747 
Q 2956 2369 2687 2733 
Q 2419 3097 1959 3097 
z
M 1959 3584 
Q 2709 3584 3137 3096 
Q 3566 2609 3566 1747 
Q 3566 888 3137 398 
Q 2709 -91 1959 -91 
Q 1206 -91 779 398 
Q 353 888 353 1747 
Q 353 2609 779 3096 
Q 1206 3584 1959 3584 
z
" transform="scale(0.015625)"/>
       <path id="DejaVuSans-63" d="M 3122 3366 
L 3122 2828 
Q 2878 2963 2633 3030 
Q 2388 3097 2138 3097 
Q 1578 3097 1268 2742 
Q 959 2388 959 1747 
Q 959 1106 1268 751 
Q 1578 397 2138 397 
Q 2388 397 2633 464 
Q 2878 531 3122 666 
L 3122 134 
Q 2881 22 2623 -34 
Q 2366 -91 2075 -91 
Q 1284 -91 818 406 
Q 353 903 353 1747 
Q 353 2603 823 3093 
Q 1294 3584 2113 3584 
Q 2378 3584 2631 3529 
Q 2884 3475 3122 3366 
z
" transform="scale(0.015625)"/>
       <path id="DejaVuSans-68" d="M 3513 2113 
L 3513 0 
L 2938 0 
L 2938 2094 
Q 2938 2591 2744 2837 
Q 2550 3084 2163 3084 
Q 1697 3084 1428 2787 
Q 1159 2491 1159 1978 
L 1159 0 
L 581 0 
L 581 4863 
L 1159 4863 
L 1159 2956 
Q 1366 3272 1645 3428 
Q 1925 3584 2291 3584 
Q 2894 3584 3203 3211 
Q 3513 2838 3513 2113 
z
" transform="scale(0.015625)"/>
      </defs>
      <use xlink:href="#DejaVuSans-45"/>
      <use xlink:href="#DejaVuSans-70" transform="translate(63.183594 0)"/>
      <use xlink:href="#DejaVuSans-6f" transform="translate(126.660156 0)"/>
      <use xlink:href="#DejaVuSans-63" transform="translate(187.841797 0)"/>
      <use xlink:href="#DejaVuSans-68" transform="translate(242.822266 0)"/>
     </g>
    </g>
   </g>
   <g id="matplotlib.axis_2">
    <g id="ytick_1">
     <g id="line2d_7">
      <defs>
       <path id="mc385b061d3" d="M 0 0 
L -3.5 0 
" style="stroke: #000000; stroke-width: 0.8"/>
      </defs>
      <g>
       <use xlink:href="#mc385b061d3" x="90" y="280.367847" style="stroke: #000000; stroke-width: 0.8"/>
      </g>
     </g>
     <g id="text_8">
      <!-- 0.80 -->
      <g transform="translate(60.734375 284.167066) scale(0.1 -0.1)">
       <defs>
        <path id="DejaVuSans-2e" d="M 684 794 
L 1344 794 
L 1344 0 
L 684 0 
L 684 794 
z
" transform="scale(0.015625)"/>
       </defs>
       <use xlink:href="#DejaVuSans-30"/>
       <use xlink:href="#DejaVuSans-2e" transform="translate(63.623047 0)"/>
       <use xlink:href="#DejaVuSans-38" transform="translate(95.410156 0)"/>
       <use xlink:href="#DejaVuSans-30" transform="translate(159.033203 0)"/>
      </g>
     </g>
    </g>
    <g id="ytick_2">
     <g id="line2d_8">
      <g>
       <use xlink:href="#mc385b061d3" x="90" y="223.853181" style="stroke: #000000; stroke-width: 0.8"/>
      </g>
     </g>
     <g id="text_9">
      <!-- 0.82 -->
      <g transform="translate(60.734375 227.652399) scale(0.1 -0.1)">
       <use xlink:href="#DejaVuSans-30"/>
       <use xlink:href="#DejaVuSans-2e" transform="translate(63.623047 0)"/>
       <use xlink:href="#DejaVuSans-38" transform="translate(95.410156 0)"/>
       <use xlink:href="#DejaVuSans-32" transform="translate(159.033203 0)"/>
      </g>
     </g>
    </g>
    <g id="ytick_3">
     <g id="line2d_9">
      <g>
       <use xlink:href="#mc385b061d3" x="90" y="167.338514" style="stroke: #000000; stroke-width: 0.8"/>
      </g>
     </g>
     <g id="text_10">
      <!-- 0.84 -->
      <g transform="translate(60.734375 171.137733) scale(0.1 -0.1)">
       <use xlink:href="#DejaVuSans-30"/>
       <use xlink:href="#DejaVuSans-2e" transform="translate(63.623047 0)"/>
       <use xlink:href="#DejaVuSans-38" transform="translate(95.410156 0)"/>
       <use xlink:href="#DejaVuSans-34" transform="translate(159.033203 0)"/>
      </g>
     </g>
    </g>
    <g id="ytick_4">
     <g id="line2d_10">
      <g>
       <use xlink:href="#mc385b061d3" x="90" y="110.823848" style="stroke: #000000; stroke-width: 0.8"/>
      </g>
     </g>
     <g id="text_11">
      <!-- 0.86 -->
      <g transform="translate(60.734375 114.623066) scale(0.1 -0.1)">
       <use xlink:href="#DejaVuSans-30"/>
       <use xlink:href="#DejaVuSans-2e" transform="translate(63.623047 0)"/>
       <use xlink:href="#DejaVuSans-38" transform="translate(95.410156 0)"/>
       <use xlink:href="#DejaVuSans-36" transform="translate(159.033203 0)"/>
      </g>
     </g>
    </g>
    <g id="ytick_5">
     <g id="line2d_11">
      <g>
       <use xlink:href="#mc385b061d3" x="90" y="54.309181" style="stroke: #000000; stroke-width: 0.8"/>
      </g>
     </g>
     <g id="text_12">
      <!-- 0.88 -->
      <g transform="translate(60.734375 58.1084) scale(0.1 -0.1)">
       <use xlink:href="#DejaVuSans-30"/>
       <use xlink:href="#DejaVuSans-2e" transform="translate(63.623047 0)"/>
       <use xlink:href="#DejaVuSans-38" transform="translate(95.410156 0)"/>
       <use xlink:href="#DejaVuSans-38" transform="translate(159.033203 0)"/>
      </g>
     </g>
    </g>
    <g id="text_13">
     <!-- RMSE -->
     <g transform="translate(54.654688 195.921875) rotate(-90) scale(0.1 -0.1)">
      <defs>
       <path id="DejaVuSans-52" d="M 2841 2188 
Q 3044 2119 3236 1894 
Q 3428 1669 3622 1275 
L 4263 0 
L 3584 0 
L 2988 1197 
Q 2756 1666 2539 1819 
Q 2322 1972 1947 1972 
L 1259 1972 
L 1259 0 
L 628 0 
L 628 4666 
L 2053 4666 
Q 2853 4666 3247 4331 
Q 3641 3997 3641 3322 
Q 3641 2881 3436 2590 
Q 3231 2300 2841 2188 
z
M 1259 4147 
L 1259 2491 
L 2053 2491 
Q 2509 2491 2742 2702 
Q 2975 2913 2975 3322 
Q 2975 3731 2742 3939 
Q 2509 4147 2053 4147 
L 1259 4147 
z
" transform="scale(0.015625)"/>
       <path id="DejaVuSans-4d" d="M 628 4666 
L 1569 4666 
L 2759 1491 
L 3956 4666 
L 4897 4666 
L 4897 0 
L 4281 0 
L 4281 4097 
L 3078 897 
L 2444 897 
L 1241 4097 
L 1241 0 
L 628 0 
L 628 4666 
z
" transform="scale(0.015625)"/>
       <path id="DejaVuSans-53" d="M 3425 4513 
L 3425 3897 
Q 3066 4069 2747 4153 
Q 2428 4238 2131 4238 
Q 1616 4238 1336 4038 
Q 1056 3838 1056 3469 
Q 1056 3159 1242 3001 
Q 1428 2844 1947 2747 
L 2328 2669 
Q 3034 2534 3370 2195 
Q 3706 1856 3706 1288 
Q 3706 609 3251 259 
Q 2797 -91 1919 -91 
Q 1588 -91 1214 -16 
Q 841 59 441 206 
L 441 856 
Q 825 641 1194 531 
Q 1563 422 1919 422 
Q 2459 422 2753 634 
Q 3047 847 3047 1241 
Q 3047 1584 2836 1778 
Q 2625 1972 2144 2069 
L 1759 2144 
Q 1053 2284 737 2584 
Q 422 2884 422 3419 
Q 422 4038 858 4394 
Q 1294 4750 2059 4750 
Q 2388 4750 2728 4690 
Q 3069 4631 3425 4513 
z
" transform="scale(0.015625)"/>
      </defs>
      <use xlink:href="#DejaVuSans-52"/>
      <use xlink:href="#DejaVuSans-4d" transform="translate(69.482422 0)"/>
      <use xlink:href="#DejaVuSans-53" transform="translate(155.761719 0)"/>
      <use xlink:href="#DejaVuSans-45" transform="translate(219.238281 0)"/>
     </g>
    </g>
   </g>
   <g id="line2d_12">
    <path d="M 115.363636 264.876272 
L 120.487603 303.944364 
L 125.61157 306.95547 
L 130.735537 307.536331 
L 135.859504 307.735145 
L 140.983471 307.8 
L 146.107438 307.794389 
L 151.231405 307.74445 
L 156.355372 307.664429 
L 161.479339 307.563564 
L 166.603306 307.448474 
L 171.727273 307.324149 
L 176.85124 307.194435 
L 181.975207 307.062321 
L 187.099174 306.930119 
L 192.22314 306.799608 
L 197.347107 306.672128 
L 202.471074 306.548675 
L 207.595041 306.42996 
L 212.719008 306.31647 
L 217.842975 306.208508 
L 222.966942 306.106237 
L 228.090909 306.009706 
L 233.214876 305.918879 
L 238.338843 305.833648 
L 243.46281 305.753861 
L 248.586777 305.679326 
L 253.710744 305.609825 
L 258.834711 305.545125 
L 263.958678 305.484982 
L 269.082645 305.429147 
L 274.206612 305.377373 
L 279.330579 305.329413 
L 284.454545 305.285029 
L 289.578512 305.243988 
L 294.702479 305.206067 
L 299.826446 305.171054 
L 304.950413 305.138745 
L 310.07438 305.108948 
L 315.198347 305.081483 
L 320.322314 305.056177 
L 325.446281 305.032871 
L 330.570248 305.011416 
L 335.694215 304.991671 
L 340.818182 304.973505 
L 345.942149 304.956797 
L 351.066116 304.941435 
L 356.190083 304.927312 
L 361.31405 304.914332 
L 366.438017 304.902405 
L 371.561983 304.891448 
L 376.68595 304.881382 
L 381.809917 304.872138 
L 386.933884 304.863648 
L 392.057851 304.855853 
L 397.181818 304.848697 
L 402.305785 304.842128 
L 407.429752 304.836097 
L 412.553719 304.830563 
L 417.677686 304.825483 
L 422.801653 304.820822 
L 427.92562 304.816545 
L 433.049587 304.81262 
L 438.173554 304.80902 
L 443.297521 304.805716 
L 448.421488 304.802685 
L 453.545455 304.799905 
L 458.669421 304.797354 
L 463.793388 304.795015 
L 468.917355 304.792869 
L 474.041322 304.7909 
L 479.165289 304.789095 
L 484.289256 304.787439 
L 489.413223 304.78592 
L 494.53719 304.784527 
L 499.661157 304.783249 
L 504.785124 304.782077 
L 509.909091 304.781003 
L 515.033058 304.780017 
L 520.157025 304.779114 
L 525.280992 304.778285 
L 530.404959 304.777525 
L 535.528926 304.776828 
L 540.652893 304.776188 
L 545.77686 304.775602 
L 550.900826 304.775065 
L 556.024793 304.774572 
L 561.14876 304.77412 
L 566.272727 304.773705 
L 571.396694 304.773325 
L 576.520661 304.772977 
L 581.644628 304.772657 
L 586.768595 304.772364 
L 591.892562 304.772095 
L 597.016529 304.771849 
L 602.140496 304.771623 
L 607.264463 304.771416 
L 612.38843 304.771226 
L 617.512397 304.771052 
L 622.636364 304.770892 
" clip-path="url(#p77eb854fd2)" style="fill: none; stroke: #1f77b4; stroke-width: 1.5; stroke-linecap: square"/>
    <defs>
     <path id="ma49af27132" d="M 0 3 
C 0.795609 3 1.55874 2.683901 2.12132 2.12132 
C 2.683901 1.55874 3 0.795609 3 0 
C 3 -0.795609 2.683901 -1.55874 2.12132 -2.12132 
C 1.55874 -2.683901 0.795609 -3 0 -3 
C -0.795609 -3 -1.55874 -2.683901 -2.12132 -2.12132 
C -2.683901 -1.55874 -3 -0.795609 -3 0 
C -3 0.795609 -2.683901 1.55874 -2.12132 2.12132 
C -1.55874 2.683901 -0.795609 3 0 3 
z
" style="stroke: #1f77b4"/>
    </defs>
    <g clip-path="url(#p77eb854fd2)">
     <use xlink:href="#ma49af27132" x="115.363636" y="264.876272" style="fill: #1f77b4; stroke: #1f77b4"/>
     <use xlink:href="#ma49af27132" x="120.487603" y="303.944364" style="fill: #1f77b4; stroke: #1f77b4"/>
     <use xlink:href="#ma49af27132" x="125.61157" y="306.95547" style="fill: #1f77b4; stroke: #1f77b4"/>
     <use xlink:href="#ma49af27132" x="130.735537" y="307.536331" style="fill: #1f77b4; stroke: #1f77b4"/>
     <use xlink:href="#ma49af27132" x="135.859504" y="307.735145" style="fill: #1f77b4; stroke: #1f77b4"/>
     <use xlink:href="#ma49af27132" x="140.983471" y="307.8" style="fill: #1f77b4; stroke: #1f77b4"/>
     <use xlink:href="#ma49af27132" x="146.107438" y="307.794389" style="fill: #1f77b4; stroke: #1f77b4"/>
     <use xlink:href="#ma49af27132" x="151.231405" y="307.74445" style="fill: #1f77b4; stroke: #1f77b4"/>
     <use xlink:href="#ma49af27132" x="156.355372" y="307.664429" style="fill: #1f77b4; stroke: #1f77b4"/>
     <use xlink:href="#ma49af27132" x="161.479339" y="307.563564" style="fill: #1f77b4; stroke: #1f77b4"/>
     <use xlink:href="#ma49af27132" x="166.603306" y="307.448474" style="fill: #1f77b4; stroke: #1f77b4"/>
     <use xlink:href="#ma49af27132" x="171.727273" y="307.324149" style="fill: #1f77b4; stroke: #1f77b4"/>
     <use xlink:href="#ma49af27132" x="176.85124" y="307.194435" style="fill: #1f77b4; stroke: #1f77b4"/>
     <use xlink:href="#ma49af27132" x="181.975207" y="307.062321" style="fill: #1f77b4; stroke: #1f77b4"/>
     <use xlink:href="#ma49af27132" x="187.099174" y="306.930119" style="fill: #1f77b4; stroke: #1f77b4"/>
     <use xlink:href="#ma49af27132" x="192.22314" y="306.799608" style="fill: #1f77b4; stroke: #1f77b4"/>
     <use xlink:href="#ma49af27132" x="197.347107" y="306.672128" style="fill: #1f77b4; stroke: #1f77b4"/>
     <use xlink:href="#ma49af27132" x="202.471074" y="306.548675" style="fill: #1f77b4; stroke: #1f77b4"/>
     <use xlink:href="#ma49af27132" x="207.595041" y="306.42996" style="fill: #1f77b4; stroke: #1f77b4"/>
     <use xlink:href="#ma49af27132" x="212.719008" y="306.31647" style="fill: #1f77b4; stroke: #1f77b4"/>
     <use xlink:href="#ma49af27132" x="217.842975" y="306.208508" style="fill: #1f77b4; stroke: #1f77b4"/>
     <use xlink:href="#ma49af27132" x="222.966942" y="306.106237" style="fill: #1f77b4; stroke: #1f77b4"/>
     <use xlink:href="#ma49af27132" x="228.090909" y="306.009706" style="fill: #1f77b4; stroke: #1f77b4"/>
     <use xlink:href="#ma49af27132" x="233.214876" y="305.918879" style="fill: #1f77b4; stroke: #1f77b4"/>
     <use xlink:href="#ma49af27132" x="238.338843" y="305.833648" style="fill: #1f77b4; stroke: #1f77b4"/>
     <use xlink:href="#ma49af27132" x="243.46281" y="305.753861" style="fill: #1f77b4; stroke: #1f77b4"/>
     <use xlink:href="#ma49af27132" x="248.586777" y="305.679326" style="fill: #1f77b4; stroke: #1f77b4"/>
     <use xlink:href="#ma49af27132" x="253.710744" y="305.609825" style="fill: #1f77b4; stroke: #1f77b4"/>
     <use xlink:href="#ma49af27132" x="258.834711" y="305.545125" style="fill: #1f77b4; stroke: #1f77b4"/>
     <use xlink:href="#ma49af27132" x="263.958678" y="305.484982" style="fill: #1f77b4; stroke: #1f77b4"/>
     <use xlink:href="#ma49af27132" x="269.082645" y="305.429147" style="fill: #1f77b4; stroke: #1f77b4"/>
     <use xlink:href="#ma49af27132" x="274.206612" y="305.377373" style="fill: #1f77b4; stroke: #1f77b4"/>
     <use xlink:href="#ma49af27132" x="279.330579" y="305.329413" style="fill: #1f77b4; stroke: #1f77b4"/>
     <use xlink:href="#ma49af27132" x="284.454545" y="305.285029" style="fill: #1f77b4; stroke: #1f77b4"/>
     <use xlink:href="#ma49af27132" x="289.578512" y="305.243988" style="fill: #1f77b4; stroke: #1f77b4"/>
     <use xlink:href="#ma49af27132" x="294.702479" y="305.206067" style="fill: #1f77b4; stroke: #1f77b4"/>
     <use xlink:href="#ma49af27132" x="299.826446" y="305.171054" style="fill: #1f77b4; stroke: #1f77b4"/>
     <use xlink:href="#ma49af27132" x="304.950413" y="305.138745" style="fill: #1f77b4; stroke: #1f77b4"/>
     <use xlink:href="#ma49af27132" x="310.07438" y="305.108948" style="fill: #1f77b4; stroke: #1f77b4"/>
     <use xlink:href="#ma49af27132" x="315.198347" y="305.081483" style="fill: #1f77b4; stroke: #1f77b4"/>
     <use xlink:href="#ma49af27132" x="320.322314" y="305.056177" style="fill: #1f77b4; stroke: #1f77b4"/>
     <use xlink:href="#ma49af27132" x="325.446281" y="305.032871" style="fill: #1f77b4; stroke: #1f77b4"/>
     <use xlink:href="#ma49af27132" x="330.570248" y="305.011416" style="fill: #1f77b4; stroke: #1f77b4"/>
     <use xlink:href="#ma49af27132" x="335.694215" y="304.991671" style="fill: #1f77b4; stroke: #1f77b4"/>
     <use xlink:href="#ma49af27132" x="340.818182" y="304.973505" style="fill: #1f77b4; stroke: #1f77b4"/>
     <use xlink:href="#ma49af27132" x="345.942149" y="304.956797" style="fill: #1f77b4; stroke: #1f77b4"/>
     <use xlink:href="#ma49af27132" x="351.066116" y="304.941435" style="fill: #1f77b4; stroke: #1f77b4"/>
     <use xlink:href="#ma49af27132" x="356.190083" y="304.927312" style="fill: #1f77b4; stroke: #1f77b4"/>
     <use xlink:href="#ma49af27132" x="361.31405" y="304.914332" style="fill: #1f77b4; stroke: #1f77b4"/>
     <use xlink:href="#ma49af27132" x="366.438017" y="304.902405" style="fill: #1f77b4; stroke: #1f77b4"/>
     <use xlink:href="#ma49af27132" x="371.561983" y="304.891448" style="fill: #1f77b4; stroke: #1f77b4"/>
     <use xlink:href="#ma49af27132" x="376.68595" y="304.881382" style="fill: #1f77b4; stroke: #1f77b4"/>
     <use xlink:href="#ma49af27132" x="381.809917" y="304.872138" style="fill: #1f77b4; stroke: #1f77b4"/>
     <use xlink:href="#ma49af27132" x="386.933884" y="304.863648" style="fill: #1f77b4; stroke: #1f77b4"/>
     <use xlink:href="#ma49af27132" x="392.057851" y="304.855853" style="fill: #1f77b4; stroke: #1f77b4"/>
     <use xlink:href="#ma49af27132" x="397.181818" y="304.848697" style="fill: #1f77b4; stroke: #1f77b4"/>
     <use xlink:href="#ma49af27132" x="402.305785" y="304.842128" style="fill: #1f77b4; stroke: #1f77b4"/>
     <use xlink:href="#ma49af27132" x="407.429752" y="304.836097" style="fill: #1f77b4; stroke: #1f77b4"/>
     <use xlink:href="#ma49af27132" x="412.553719" y="304.830563" style="fill: #1f77b4; stroke: #1f77b4"/>
     <use xlink:href="#ma49af27132" x="417.677686" y="304.825483" style="fill: #1f77b4; stroke: #1f77b4"/>
     <use xlink:href="#ma49af27132" x="422.801653" y="304.820822" style="fill: #1f77b4; stroke: #1f77b4"/>
     <use xlink:href="#ma49af27132" x="427.92562" y="304.816545" style="fill: #1f77b4; stroke: #1f77b4"/>
     <use xlink:href="#ma49af27132" x="433.049587" y="304.81262" style="fill: #1f77b4; stroke: #1f77b4"/>
     <use xlink:href="#ma49af27132" x="438.173554" y="304.80902" style="fill: #1f77b4; stroke: #1f77b4"/>
     <use xlink:href="#ma49af27132" x="443.297521" y="304.805716" style="fill: #1f77b4; stroke: #1f77b4"/>
     <use xlink:href="#ma49af27132" x="448.421488" y="304.802685" style="fill: #1f77b4; stroke: #1f77b4"/>
     <use xlink:href="#ma49af27132" x="453.545455" y="304.799905" style="fill: #1f77b4; stroke: #1f77b4"/>
     <use xlink:href="#ma49af27132" x="458.669421" y="304.797354" style="fill: #1f77b4; stroke: #1f77b4"/>
     <use xlink:href="#ma49af27132" x="463.793388" y="304.795015" style="fill: #1f77b4; stroke: #1f77b4"/>
     <use xlink:href="#ma49af27132" x="468.917355" y="304.792869" style="fill: #1f77b4; stroke: #1f77b4"/>
     <use xlink:href="#ma49af27132" x="474.041322" y="304.7909" style="fill: #1f77b4; stroke: #1f77b4"/>
     <use xlink:href="#ma49af27132" x="479.165289" y="304.789095" style="fill: #1f77b4; stroke: #1f77b4"/>
     <use xlink:href="#ma49af27132" x="484.289256" y="304.787439" style="fill: #1f77b4; stroke: #1f77b4"/>
     <use xlink:href="#ma49af27132" x="489.413223" y="304.78592" style="fill: #1f77b4; stroke: #1f77b4"/>
     <use xlink:href="#ma49af27132" x="494.53719" y="304.784527" style="fill: #1f77b4; stroke: #1f77b4"/>
     <use xlink:href="#ma49af27132" x="499.661157" y="304.783249" style="fill: #1f77b4; stroke: #1f77b4"/>
     <use xlink:href="#ma49af27132" x="504.785124" y="304.782077" style="fill: #1f77b4; stroke: #1f77b4"/>
     <use xlink:href="#ma49af27132" x="509.909091" y="304.781003" style="fill: #1f77b4; stroke: #1f77b4"/>
     <use xlink:href="#ma49af27132" x="515.033058" y="304.780017" style="fill: #1f77b4; stroke: #1f77b4"/>
     <use xlink:href="#ma49af27132" x="520.157025" y="304.779114" style="fill: #1f77b4; stroke: #1f77b4"/>
     <use xlink:href="#ma49af27132" x="525.280992" y="304.778285" style="fill: #1f77b4; stroke: #1f77b4"/>
     <use xlink:href="#ma49af27132" x="530.404959" y="304.777525" style="fill: #1f77b4; stroke: #1f77b4"/>
     <use xlink:href="#ma49af27132" x="535.528926" y="304.776828" style="fill: #1f77b4; stroke: #1f77b4"/>
     <use xlink:href="#ma49af27132" x="540.652893" y="304.776188" style="fill: #1f77b4; stroke: #1f77b4"/>
     <use xlink:href="#ma49af27132" x="545.77686" y="304.775602" style="fill: #1f77b4; stroke: #1f77b4"/>
     <use xlink:href="#ma49af27132" x="550.900826" y="304.775065" style="fill: #1f77b4; stroke: #1f77b4"/>
     <use xlink:href="#ma49af27132" x="556.024793" y="304.774572" style="fill: #1f77b4; stroke: #1f77b4"/>
     <use xlink:href="#ma49af27132" x="561.14876" y="304.77412" style="fill: #1f77b4; stroke: #1f77b4"/>
     <use xlink:href="#ma49af27132" x="566.272727" y="304.773705" style="fill: #1f77b4; stroke: #1f77b4"/>
     <use xlink:href="#ma49af27132" x="571.396694" y="304.773325" style="fill: #1f77b4; stroke: #1f77b4"/>
     <use xlink:href="#ma49af27132" x="576.520661" y="304.772977" style="fill: #1f77b4; stroke: #1f77b4"/>
     <use xlink:href="#ma49af27132" x="581.644628" y="304.772657" style="fill: #1f77b4; stroke: #1f77b4"/>
     <use xlink:href="#ma49af27132" x="586.768595" y="304.772364" style="fill: #1f77b4; stroke: #1f77b4"/>
     <use xlink:href="#ma49af27132" x="591.892562" y="304.772095" style="fill: #1f77b4; stroke: #1f77b4"/>
     <use xlink:href="#ma49af27132" x="597.016529" y="304.771849" style="fill: #1f77b4; stroke: #1f77b4"/>
     <use xlink:href="#ma49af27132" x="602.140496" y="304.771623" style="fill: #1f77b4; stroke: #1f77b4"/>
     <use xlink:href="#ma49af27132" x="607.264463" y="304.771416" style="fill: #1f77b4; stroke: #1f77b4"/>
     <use xlink:href="#ma49af27132" x="612.38843" y="304.771226" style="fill: #1f77b4; stroke: #1f77b4"/>
     <use xlink:href="#ma49af27132" x="617.512397" y="304.771052" style="fill: #1f77b4; stroke: #1f77b4"/>
     <use xlink:href="#ma49af27132" x="622.636364" y="304.770892" style="fill: #1f77b4; stroke: #1f77b4"/>
    </g>
   </g>
   <g id="line2d_13">
    <path d="M 115.363636 55.8 
L 120.487603 89.05514 
L 125.61157 90.7951 
L 130.735537 91.116981 
L 135.859504 91.236616 
L 140.983471 91.216235 
L 146.107438 91.085261 
L 151.231405 90.870718 
L 156.355372 90.595005 
L 161.479339 90.276062 
L 166.603306 89.928155 
L 171.727273 89.562594 
L 176.85124 89.188298 
L 181.975207 88.812242 
L 187.099174 88.43982 
L 192.22314 88.075137 
L 197.347107 87.721253 
L 202.471074 87.380382 
L 207.595041 87.054058 
L 212.719008 86.743269 
L 217.842975 86.448571 
L 222.966942 86.170179 
L 228.090909 85.908042 
L 233.214876 85.661905 
L 238.338843 85.431361 
L 243.46281 85.215888 
L 248.586777 85.014885 
L 253.710744 84.827696 
L 258.834711 84.653633 
L 263.958678 84.491993 
L 269.082645 84.342067 
L 274.206612 84.203156 
L 279.330579 84.074574 
L 284.454545 83.955656 
L 289.578512 83.845761 
L 294.702479 83.744275 
L 299.826446 83.650616 
L 304.950413 83.564228 
L 310.07438 83.48459 
L 315.198347 83.411207 
L 320.322314 83.343619 
L 325.446281 83.281391 
L 330.570248 83.224118 
L 335.694215 83.171424 
L 340.818182 83.122956 
L 345.942149 83.078387 
L 351.066116 83.037414 
L 356.190083 82.999755 
L 361.31405 82.965148 
L 366.438017 82.933353 
L 371.561983 82.904146 
L 376.68595 82.87732 
L 381.809917 82.852685 
L 386.933884 82.830064 
L 392.057851 82.809296 
L 397.181818 82.79023 
L 402.305785 82.77273 
L 407.429752 82.756667 
L 412.553719 82.741925 
L 417.677686 82.728397 
L 422.801653 82.715983 
L 427.92562 82.704592 
L 433.049587 82.694141 
L 438.173554 82.684552 
L 443.297521 82.675755 
L 448.421488 82.667685 
L 453.545455 82.660282 
L 458.669421 82.653491 
L 463.793388 82.647262 
L 468.917355 82.641548 
L 474.041322 82.636307 
L 479.165289 82.6315 
L 484.289256 82.627092 
L 489.413223 82.623048 
L 494.53719 82.61934 
L 499.661157 82.615938 
L 504.785124 82.612819 
L 509.909091 82.609959 
L 515.033058 82.607335 
L 520.157025 82.604929 
L 525.280992 82.602723 
L 530.404959 82.6007 
L 535.528926 82.598845 
L 540.652893 82.597143 
L 545.77686 82.595583 
L 550.900826 82.594152 
L 556.024793 82.59284 
L 561.14876 82.591637 
L 566.272727 82.590534 
L 571.396694 82.589522 
L 576.520661 82.588594 
L 581.644628 82.587743 
L 586.768595 82.586963 
L 591.892562 82.586248 
L 597.016529 82.585592 
L 602.140496 82.584991 
L 607.264463 82.584439 
L 612.38843 82.583933 
L 617.512397 82.58347 
L 622.636364 82.583045 
" clip-path="url(#p77eb854fd2)" style="fill: none; stroke: #ff7f0e; stroke-width: 1.5; stroke-linecap: square"/>
    <defs>
     <path id="mbc0fd479dd" d="M -3 3 
L 3 -3 
M -3 -3 
L 3 3 
" style="stroke: #ff7f0e"/>
    </defs>
    <g clip-path="url(#p77eb854fd2)">
     <use xlink:href="#mbc0fd479dd" x="115.363636" y="55.8" style="fill: #ff7f0e; stroke: #ff7f0e"/>
     <use xlink:href="#mbc0fd479dd" x="120.487603" y="89.05514" style="fill: #ff7f0e; stroke: #ff7f0e"/>
     <use xlink:href="#mbc0fd479dd" x="125.61157" y="90.7951" style="fill: #ff7f0e; stroke: #ff7f0e"/>
     <use xlink:href="#mbc0fd479dd" x="130.735537" y="91.116981" style="fill: #ff7f0e; stroke: #ff7f0e"/>
     <use xlink:href="#mbc0fd479dd" x="135.859504" y="91.236616" style="fill: #ff7f0e; stroke: #ff7f0e"/>
     <use xlink:href="#mbc0fd479dd" x="140.983471" y="91.216235" style="fill: #ff7f0e; stroke: #ff7f0e"/>
     <use xlink:href="#mbc0fd479dd" x="146.107438" y="91.085261" style="fill: #ff7f0e; stroke: #ff7f0e"/>
     <use xlink:href="#mbc0fd479dd" x="151.231405" y="90.870718" style="fill: #ff7f0e; stroke: #ff7f0e"/>
     <use xlink:href="#mbc0fd479dd" x="156.355372" y="90.595005" style="fill: #ff7f0e; stroke: #ff7f0e"/>
     <use xlink:href="#mbc0fd479dd" x="161.479339" y="90.276062" style="fill: #ff7f0e; stroke: #ff7f0e"/>
     <use xlink:href="#mbc0fd479dd" x="166.603306" y="89.928155" style="fill: #ff7f0e; stroke: #ff7f0e"/>
     <use xlink:href="#mbc0fd479dd" x="171.727273" y="89.562594" style="fill: #ff7f0e; stroke: #ff7f0e"/>
     <use xlink:href="#mbc0fd479dd" x="176.85124" y="89.188298" style="fill: #ff7f0e; stroke: #ff7f0e"/>
     <use xlink:href="#mbc0fd479dd" x="181.975207" y="88.812242" style="fill: #ff7f0e; stroke: #ff7f0e"/>
     <use xlink:href="#mbc0fd479dd" x="187.099174" y="88.43982" style="fill: #ff7f0e; stroke: #ff7f0e"/>
     <use xlink:href="#mbc0fd479dd" x="192.22314" y="88.075137" style="fill: #ff7f0e; stroke: #ff7f0e"/>
     <use xlink:href="#mbc0fd479dd" x="197.347107" y="87.721253" style="fill: #ff7f0e; stroke: #ff7f0e"/>
     <use xlink:href="#mbc0fd479dd" x="202.471074" y="87.380382" style="fill: #ff7f0e; stroke: #ff7f0e"/>
     <use xlink:href="#mbc0fd479dd" x="207.595041" y="87.054058" style="fill: #ff7f0e; stroke: #ff7f0e"/>
     <use xlink:href="#mbc0fd479dd" x="212.719008" y="86.743269" style="fill: #ff7f0e; stroke: #ff7f0e"/>
     <use xlink:href="#mbc0fd479dd" x="217.842975" y="86.448571" style="fill: #ff7f0e; stroke: #ff7f0e"/>
     <use xlink:href="#mbc0fd479dd" x="222.966942" y="86.170179" style="fill: #ff7f0e; stroke: #ff7f0e"/>
     <use xlink:href="#mbc0fd479dd" x="228.090909" y="85.908042" style="fill: #ff7f0e; stroke: #ff7f0e"/>
     <use xlink:href="#mbc0fd479dd" x="233.214876" y="85.661905" style="fill: #ff7f0e; stroke: #ff7f0e"/>
     <use xlink:href="#mbc0fd479dd" x="238.338843" y="85.431361" style="fill: #ff7f0e; stroke: #ff7f0e"/>
     <use xlink:href="#mbc0fd479dd" x="243.46281" y="85.215888" style="fill: #ff7f0e; stroke: #ff7f0e"/>
     <use xlink:href="#mbc0fd479dd" x="248.586777" y="85.014885" style="fill: #ff7f0e; stroke: #ff7f0e"/>
     <use xlink:href="#mbc0fd479dd" x="253.710744" y="84.827696" style="fill: #ff7f0e; stroke: #ff7f0e"/>
     <use xlink:href="#mbc0fd479dd" x="258.834711" y="84.653633" style="fill: #ff7f0e; stroke: #ff7f0e"/>
     <use xlink:href="#mbc0fd479dd" x="263.958678" y="84.491993" style="fill: #ff7f0e; stroke: #ff7f0e"/>
     <use xlink:href="#mbc0fd479dd" x="269.082645" y="84.342067" style="fill: #ff7f0e; stroke: #ff7f0e"/>
     <use xlink:href="#mbc0fd479dd" x="274.206612" y="84.203156" style="fill: #ff7f0e; stroke: #ff7f0e"/>
     <use xlink:href="#mbc0fd479dd" x="279.330579" y="84.074574" style="fill: #ff7f0e; stroke: #ff7f0e"/>
     <use xlink:href="#mbc0fd479dd" x="284.454545" y="83.955656" style="fill: #ff7f0e; stroke: #ff7f0e"/>
     <use xlink:href="#mbc0fd479dd" x="289.578512" y="83.845761" style="fill: #ff7f0e; stroke: #ff7f0e"/>
     <use xlink:href="#mbc0fd479dd" x="294.702479" y="83.744275" style="fill: #ff7f0e; stroke: #ff7f0e"/>
     <use xlink:href="#mbc0fd479dd" x="299.826446" y="83.650616" style="fill: #ff7f0e; stroke: #ff7f0e"/>
     <use xlink:href="#mbc0fd479dd" x="304.950413" y="83.564228" style="fill: #ff7f0e; stroke: #ff7f0e"/>
     <use xlink:href="#mbc0fd479dd" x="310.07438" y="83.48459" style="fill: #ff7f0e; stroke: #ff7f0e"/>
     <use xlink:href="#mbc0fd479dd" x="315.198347" y="83.411207" style="fill: #ff7f0e; stroke: #ff7f0e"/>
     <use xlink:href="#mbc0fd479dd" x="320.322314" y="83.343619" style="fill: #ff7f0e; stroke: #ff7f0e"/>
     <use xlink:href="#mbc0fd479dd" x="325.446281" y="83.281391" style="fill: #ff7f0e; stroke: #ff7f0e"/>
     <use xlink:href="#mbc0fd479dd" x="330.570248" y="83.224118" style="fill: #ff7f0e; stroke: #ff7f0e"/>
     <use xlink:href="#mbc0fd479dd" x="335.694215" y="83.171424" style="fill: #ff7f0e; stroke: #ff7f0e"/>
     <use xlink:href="#mbc0fd479dd" x="340.818182" y="83.122956" style="fill: #ff7f0e; stroke: #ff7f0e"/>
     <use xlink:href="#mbc0fd479dd" x="345.942149" y="83.078387" style="fill: #ff7f0e; stroke: #ff7f0e"/>
     <use xlink:href="#mbc0fd479dd" x="351.066116" y="83.037414" style="fill: #ff7f0e; stroke: #ff7f0e"/>
     <use xlink:href="#mbc0fd479dd" x="356.190083" y="82.999755" style="fill: #ff7f0e; stroke: #ff7f0e"/>
     <use xlink:href="#mbc0fd479dd" x="361.31405" y="82.965148" style="fill: #ff7f0e; stroke: #ff7f0e"/>
     <use xlink:href="#mbc0fd479dd" x="366.438017" y="82.933353" style="fill: #ff7f0e; stroke: #ff7f0e"/>
     <use xlink:href="#mbc0fd479dd" x="371.561983" y="82.904146" style="fill: #ff7f0e; stroke: #ff7f0e"/>
     <use xlink:href="#mbc0fd479dd" x="376.68595" y="82.87732" style="fill: #ff7f0e; stroke: #ff7f0e"/>
     <use xlink:href="#mbc0fd479dd" x="381.809917" y="82.852685" style="fill: #ff7f0e; stroke: #ff7f0e"/>
     <use xlink:href="#mbc0fd479dd" x="386.933884" y="82.830064" style="fill: #ff7f0e; stroke: #ff7f0e"/>
     <use xlink:href="#mbc0fd479dd" x="392.057851" y="82.809296" style="fill: #ff7f0e; stroke: #ff7f0e"/>
     <use xlink:href="#mbc0fd479dd" x="397.181818" y="82.79023" style="fill: #ff7f0e; stroke: #ff7f0e"/>
     <use xlink:href="#mbc0fd479dd" x="402.305785" y="82.77273" style="fill: #ff7f0e; stroke: #ff7f0e"/>
     <use xlink:href="#mbc0fd479dd" x="407.429752" y="82.756667" style="fill: #ff7f0e; stroke: #ff7f0e"/>
     <use xlink:href="#mbc0fd479dd" x="412.553719" y="82.741925" style="fill: #ff7f0e; stroke: #ff7f0e"/>
     <use xlink:href="#mbc0fd479dd" x="417.677686" y="82.728397" style="fill: #ff7f0e; stroke: #ff7f0e"/>
     <use xlink:href="#mbc0fd479dd" x="422.801653" y="82.715983" style="fill: #ff7f0e; stroke: #ff7f0e"/>
     <use xlink:href="#mbc0fd479dd" x="427.92562" y="82.704592" style="fill: #ff7f0e; stroke: #ff7f0e"/>
     <use xlink:href="#mbc0fd479dd" x="433.049587" y="82.694141" style="fill: #ff7f0e; stroke: #ff7f0e"/>
     <use xlink:href="#mbc0fd479dd" x="438.173554" y="82.684552" style="fill: #ff7f0e; stroke: #ff7f0e"/>
     <use xlink:href="#mbc0fd479dd" x="443.297521" y="82.675755" style="fill: #ff7f0e; stroke: #ff7f0e"/>
     <use xlink:href="#mbc0fd479dd" x="448.421488" y="82.667685" style="fill: #ff7f0e; stroke: #ff7f0e"/>
     <use xlink:href="#mbc0fd479dd" x="453.545455" y="82.660282" style="fill: #ff7f0e; stroke: #ff7f0e"/>
     <use xlink:href="#mbc0fd479dd" x="458.669421" y="82.653491" style="fill: #ff7f0e; stroke: #ff7f0e"/>
     <use xlink:href="#mbc0fd479dd" x="463.793388" y="82.647262" style="fill: #ff7f0e; stroke: #ff7f0e"/>
     <use xlink:href="#mbc0fd479dd" x="468.917355" y="82.641548" style="fill: #ff7f0e; stroke: #ff7f0e"/>
     <use xlink:href="#mbc0fd479dd" x="474.041322" y="82.636307" style="fill: #ff7f0e; stroke: #ff7f0e"/>
     <use xlink:href="#mbc0fd479dd" x="479.165289" y="82.6315" style="fill: #ff7f0e; stroke: #ff7f0e"/>
     <use xlink:href="#mbc0fd479dd" x="484.289256" y="82.627092" style="fill: #ff7f0e; stroke: #ff7f0e"/>
     <use xlink:href="#mbc0fd479dd" x="489.413223" y="82.623048" style="fill: #ff7f0e; stroke: #ff7f0e"/>
     <use xlink:href="#mbc0fd479dd" x="494.53719" y="82.61934" style="fill: #ff7f0e; stroke: #ff7f0e"/>
     <use xlink:href="#mbc0fd479dd" x="499.661157" y="82.615938" style="fill: #ff7f0e; stroke: #ff7f0e"/>
     <use xlink:href="#mbc0fd479dd" x="504.785124" y="82.612819" style="fill: #ff7f0e; stroke: #ff7f0e"/>
     <use xlink:href="#mbc0fd479dd" x="509.909091" y="82.609959" style="fill: #ff7f0e; stroke: #ff7f0e"/>
     <use xlink:href="#mbc0fd479dd" x="515.033058" y="82.607335" style="fill: #ff7f0e; stroke: #ff7f0e"/>
     <use xlink:href="#mbc0fd479dd" x="520.157025" y="82.604929" style="fill: #ff7f0e; stroke: #ff7f0e"/>
     <use xlink:href="#mbc0fd479dd" x="525.280992" y="82.602723" style="fill: #ff7f0e; stroke: #ff7f0e"/>
     <use xlink:href="#mbc0fd479dd" x="530.404959" y="82.6007" style="fill: #ff7f0e; stroke: #ff7f0e"/>
     <use xlink:href="#mbc0fd479dd" x="535.528926" y="82.598845" style="fill: #ff7f0e; stroke: #ff7f0e"/>
     <use xlink:href="#mbc0fd479dd" x="540.652893" y="82.597143" style="fill: #ff7f0e; stroke: #ff7f0e"/>
     <use xlink:href="#mbc0fd479dd" x="545.77686" y="82.595583" style="fill: #ff7f0e; stroke: #ff7f0e"/>
     <use xlink:href="#mbc0fd479dd" x="550.900826" y="82.594152" style="fill: #ff7f0e; stroke: #ff7f0e"/>
     <use xlink:href="#mbc0fd479dd" x="556.024793" y="82.59284" style="fill: #ff7f0e; stroke: #ff7f0e"/>
     <use xlink:href="#mbc0fd479dd" x="561.14876" y="82.591637" style="fill: #ff7f0e; stroke: #ff7f0e"/>
     <use xlink:href="#mbc0fd479dd" x="566.272727" y="82.590534" style="fill: #ff7f0e; stroke: #ff7f0e"/>
     <use xlink:href="#mbc0fd479dd" x="571.396694" y="82.589522" style="fill: #ff7f0e; stroke: #ff7f0e"/>
     <use xlink:href="#mbc0fd479dd" x="576.520661" y="82.588594" style="fill: #ff7f0e; stroke: #ff7f0e"/>
     <use xlink:href="#mbc0fd479dd" x="581.644628" y="82.587743" style="fill: #ff7f0e; stroke: #ff7f0e"/>
     <use xlink:href="#mbc0fd479dd" x="586.768595" y="82.586963" style="fill: #ff7f0e; stroke: #ff7f0e"/>
     <use xlink:href="#mbc0fd479dd" x="591.892562" y="82.586248" style="fill: #ff7f0e; stroke: #ff7f0e"/>
     <use xlink:href="#mbc0fd479dd" x="597.016529" y="82.585592" style="fill: #ff7f0e; stroke: #ff7f0e"/>
     <use xlink:href="#mbc0fd479dd" x="602.140496" y="82.584991" style="fill: #ff7f0e; stroke: #ff7f0e"/>
     <use xlink:href="#mbc0fd479dd" x="607.264463" y="82.584439" style="fill: #ff7f0e; stroke: #ff7f0e"/>
     <use xlink:href="#mbc0fd479dd" x="612.38843" y="82.583933" style="fill: #ff7f0e; stroke: #ff7f0e"/>
     <use xlink:href="#mbc0fd479dd" x="617.512397" y="82.58347" style="fill: #ff7f0e; stroke: #ff7f0e"/>
     <use xlink:href="#mbc0fd479dd" x="622.636364" y="82.583045" style="fill: #ff7f0e; stroke: #ff7f0e"/>
    </g>
   </g>
   <g id="patch_3">
    <path d="M 90 320.4 
L 90 43.2 
" style="fill: none; stroke: #000000; stroke-width: 0.8; stroke-linejoin: miter; stroke-linecap: square"/>
   </g>
   <g id="patch_4">
    <path d="M 648 320.4 
L 648 43.2 
" style="fill: none; stroke: #000000; stroke-width: 0.8; stroke-linejoin: miter; stroke-linecap: square"/>
   </g>
   <g id="patch_5">
    <path d="M 90 320.4 
L 648 320.4 
" style="fill: none; stroke: #000000; stroke-width: 0.8; stroke-linejoin: miter; stroke-linecap: square"/>
   </g>
   <g id="patch_6">
    <path d="M 90 43.2 
L 648 43.2 
" style="fill: none; stroke: #000000; stroke-width: 0.8; stroke-linejoin: miter; stroke-linecap: square"/>
   </g>
   <g id="text_14">
    <!-- RMSE Over Epochs -->
    <g transform="translate(312.308438 37.2) scale(0.12 -0.12)">
     <defs>
      <path id="DejaVuSans-20" transform="scale(0.015625)"/>
      <path id="DejaVuSans-4f" d="M 2522 4238 
Q 1834 4238 1429 3725 
Q 1025 3213 1025 2328 
Q 1025 1447 1429 934 
Q 1834 422 2522 422 
Q 3209 422 3611 934 
Q 4013 1447 4013 2328 
Q 4013 3213 3611 3725 
Q 3209 4238 2522 4238 
z
M 2522 4750 
Q 3503 4750 4090 4092 
Q 4678 3434 4678 2328 
Q 4678 1225 4090 567 
Q 3503 -91 2522 -91 
Q 1538 -91 948 565 
Q 359 1222 359 2328 
Q 359 3434 948 4092 
Q 1538 4750 2522 4750 
z
" transform="scale(0.015625)"/>
      <path id="DejaVuSans-76" d="M 191 3500 
L 800 3500 
L 1894 563 
L 2988 3500 
L 3597 3500 
L 2284 0 
L 1503 0 
L 191 3500 
z
" transform="scale(0.015625)"/>
      <path id="DejaVuSans-65" d="M 3597 1894 
L 3597 1613 
L 953 1613 
Q 991 1019 1311 708 
Q 1631 397 2203 397 
Q 2534 397 2845 478 
Q 3156 559 3463 722 
L 3463 178 
Q 3153 47 2828 -22 
Q 2503 -91 2169 -91 
Q 1331 -91 842 396 
Q 353 884 353 1716 
Q 353 2575 817 3079 
Q 1281 3584 2069 3584 
Q 2775 3584 3186 3129 
Q 3597 2675 3597 1894 
z
M 3022 2063 
Q 3016 2534 2758 2815 
Q 2500 3097 2075 3097 
Q 1594 3097 1305 2825 
Q 1016 2553 972 2059 
L 3022 2063 
z
" transform="scale(0.015625)"/>
      <path id="DejaVuSans-72" d="M 2631 2963 
Q 2534 3019 2420 3045 
Q 2306 3072 2169 3072 
Q 1681 3072 1420 2755 
Q 1159 2438 1159 1844 
L 1159 0 
L 581 0 
L 581 3500 
L 1159 3500 
L 1159 2956 
Q 1341 3275 1631 3429 
Q 1922 3584 2338 3584 
Q 2397 3584 2469 3576 
Q 2541 3569 2628 3553 
L 2631 2963 
z
" transform="scale(0.015625)"/>
      <path id="DejaVuSans-73" d="M 2834 3397 
L 2834 2853 
Q 2591 2978 2328 3040 
Q 2066 3103 1784 3103 
Q 1356 3103 1142 2972 
Q 928 2841 928 2578 
Q 928 2378 1081 2264 
Q 1234 2150 1697 2047 
L 1894 2003 
Q 2506 1872 2764 1633 
Q 3022 1394 3022 966 
Q 3022 478 2636 193 
Q 2250 -91 1575 -91 
Q 1294 -91 989 -36 
Q 684 19 347 128 
L 347 722 
Q 666 556 975 473 
Q 1284 391 1588 391 
Q 1994 391 2212 530 
Q 2431 669 2431 922 
Q 2431 1156 2273 1281 
Q 2116 1406 1581 1522 
L 1381 1569 
Q 847 1681 609 1914 
Q 372 2147 372 2553 
Q 372 3047 722 3315 
Q 1072 3584 1716 3584 
Q 2034 3584 2315 3537 
Q 2597 3491 2834 3397 
z
" transform="scale(0.015625)"/>
     </defs>
     <use xlink:href="#DejaVuSans-52"/>
     <use xlink:href="#DejaVuSans-4d" transform="translate(69.482422 0)"/>
     <use xlink:href="#DejaVuSans-53" transform="translate(155.761719 0)"/>
     <use xlink:href="#DejaVuSans-45" transform="translate(219.238281 0)"/>
     <use xlink:href="#DejaVuSans-20" transform="translate(282.421875 0)"/>
     <use xlink:href="#DejaVuSans-4f" transform="translate(314.208984 0)"/>
     <use xlink:href="#DejaVuSans-76" transform="translate(392.919922 0)"/>
     <use xlink:href="#DejaVuSans-65" transform="translate(452.099609 0)"/>
     <use xlink:href="#DejaVuSans-72" transform="translate(513.623047 0)"/>
     <use xlink:href="#DejaVuSans-20" transform="translate(554.736328 0)"/>
     <use xlink:href="#DejaVuSans-45" transform="translate(586.523438 0)"/>
     <use xlink:href="#DejaVuSans-70" transform="translate(649.707031 0)"/>
     <use xlink:href="#DejaVuSans-6f" transform="translate(713.183594 0)"/>
     <use xlink:href="#DejaVuSans-63" transform="translate(774.365234 0)"/>
     <use xlink:href="#DejaVuSans-68" transform="translate(829.345703 0)"/>
     <use xlink:href="#DejaVuSans-73" transform="translate(892.724609 0)"/>
    </g>
   </g>
   <g id="legend_1">
    <g id="patch_7">
     <path d="M 538.126562 80.55625 
L 641 80.55625 
Q 643 80.55625 643 78.55625 
L 643 50.2 
Q 643 48.2 641 48.2 
L 538.126562 48.2 
Q 536.126562 48.2 536.126562 50.2 
L 536.126562 78.55625 
Q 536.126562 80.55625 538.126562 80.55625 
z
" style="fill: #ffffff; opacity: 0.8; stroke: #cccccc; stroke-linejoin: miter"/>
    </g>
    <g id="line2d_14">
     <path d="M 540.126562 56.298437 
L 550.126562 56.298437 
L 560.126562 56.298437 
" style="fill: none; stroke: #1f77b4; stroke-width: 1.5; stroke-linecap: square"/>
     <g>
      <use xlink:href="#ma49af27132" x="550.126562" y="56.298437" style="fill: #1f77b4; stroke: #1f77b4"/>
     </g>
    </g>
    <g id="text_15">
     <!-- Training RMSE -->
     <g transform="translate(568.126562 59.798437) scale(0.1 -0.1)">
      <defs>
       <path id="DejaVuSans-54" d="M -19 4666 
L 3928 4666 
L 3928 4134 
L 2272 4134 
L 2272 0 
L 1638 0 
L 1638 4134 
L -19 4134 
L -19 4666 
z
" transform="scale(0.015625)"/>
       <path id="DejaVuSans-61" d="M 2194 1759 
Q 1497 1759 1228 1600 
Q 959 1441 959 1056 
Q 959 750 1161 570 
Q 1363 391 1709 391 
Q 2188 391 2477 730 
Q 2766 1069 2766 1631 
L 2766 1759 
L 2194 1759 
z
M 3341 1997 
L 3341 0 
L 2766 0 
L 2766 531 
Q 2569 213 2275 61 
Q 1981 -91 1556 -91 
Q 1019 -91 701 211 
Q 384 513 384 1019 
Q 384 1609 779 1909 
Q 1175 2209 1959 2209 
L 2766 2209 
L 2766 2266 
Q 2766 2663 2505 2880 
Q 2244 3097 1772 3097 
Q 1472 3097 1187 3025 
Q 903 2953 641 2809 
L 641 3341 
Q 956 3463 1253 3523 
Q 1550 3584 1831 3584 
Q 2591 3584 2966 3190 
Q 3341 2797 3341 1997 
z
" transform="scale(0.015625)"/>
       <path id="DejaVuSans-69" d="M 603 3500 
L 1178 3500 
L 1178 0 
L 603 0 
L 603 3500 
z
M 603 4863 
L 1178 4863 
L 1178 4134 
L 603 4134 
L 603 4863 
z
" transform="scale(0.015625)"/>
       <path id="DejaVuSans-6e" d="M 3513 2113 
L 3513 0 
L 2938 0 
L 2938 2094 
Q 2938 2591 2744 2837 
Q 2550 3084 2163 3084 
Q 1697 3084 1428 2787 
Q 1159 2491 1159 1978 
L 1159 0 
L 581 0 
L 581 3500 
L 1159 3500 
L 1159 2956 
Q 1366 3272 1645 3428 
Q 1925 3584 2291 3584 
Q 2894 3584 3203 3211 
Q 3513 2838 3513 2113 
z
" transform="scale(0.015625)"/>
       <path id="DejaVuSans-67" d="M 2906 1791 
Q 2906 2416 2648 2759 
Q 2391 3103 1925 3103 
Q 1463 3103 1205 2759 
Q 947 2416 947 1791 
Q 947 1169 1205 825 
Q 1463 481 1925 481 
Q 2391 481 2648 825 
Q 2906 1169 2906 1791 
z
M 3481 434 
Q 3481 -459 3084 -895 
Q 2688 -1331 1869 -1331 
Q 1566 -1331 1297 -1286 
Q 1028 -1241 775 -1147 
L 775 -588 
Q 1028 -725 1275 -790 
Q 1522 -856 1778 -856 
Q 2344 -856 2625 -561 
Q 2906 -266 2906 331 
L 2906 616 
Q 2728 306 2450 153 
Q 2172 0 1784 0 
Q 1141 0 747 490 
Q 353 981 353 1791 
Q 353 2603 747 3093 
Q 1141 3584 1784 3584 
Q 2172 3584 2450 3431 
Q 2728 3278 2906 2969 
L 2906 3500 
L 3481 3500 
L 3481 434 
z
" transform="scale(0.015625)"/>
      </defs>
      <use xlink:href="#DejaVuSans-54"/>
      <use xlink:href="#DejaVuSans-72" transform="translate(46.333984 0)"/>
      <use xlink:href="#DejaVuSans-61" transform="translate(87.447266 0)"/>
      <use xlink:href="#DejaVuSans-69" transform="translate(148.726562 0)"/>
      <use xlink:href="#DejaVuSans-6e" transform="translate(176.509766 0)"/>
      <use xlink:href="#DejaVuSans-69" transform="translate(239.888672 0)"/>
      <use xlink:href="#DejaVuSans-6e" transform="translate(267.671875 0)"/>
      <use xlink:href="#DejaVuSans-67" transform="translate(331.050781 0)"/>
      <use xlink:href="#DejaVuSans-20" transform="translate(394.527344 0)"/>
      <use xlink:href="#DejaVuSans-52" transform="translate(426.314453 0)"/>
      <use xlink:href="#DejaVuSans-4d" transform="translate(495.796875 0)"/>
      <use xlink:href="#DejaVuSans-53" transform="translate(582.076172 0)"/>
      <use xlink:href="#DejaVuSans-45" transform="translate(645.552734 0)"/>
     </g>
    </g>
    <g id="line2d_15">
     <path d="M 540.126562 70.976562 
L 550.126562 70.976562 
L 560.126562 70.976562 
" style="fill: none; stroke: #ff7f0e; stroke-width: 1.5; stroke-linecap: square"/>
     <g>
      <use xlink:href="#mbc0fd479dd" x="550.126562" y="70.976562" style="fill: #ff7f0e; stroke: #ff7f0e"/>
     </g>
    </g>
    <g id="text_16">
     <!-- Testing RMSE -->
     <g transform="translate(568.126562 74.476562) scale(0.1 -0.1)">
      <defs>
       <path id="DejaVuSans-74" d="M 1172 4494 
L 1172 3500 
L 2356 3500 
L 2356 3053 
L 1172 3053 
L 1172 1153 
Q 1172 725 1289 603 
Q 1406 481 1766 481 
L 2356 481 
L 2356 0 
L 1766 0 
Q 1100 0 847 248 
Q 594 497 594 1153 
L 594 3053 
L 172 3053 
L 172 3500 
L 594 3500 
L 594 4494 
L 1172 4494 
z
" transform="scale(0.015625)"/>
      </defs>
      <use xlink:href="#DejaVuSans-54"/>
      <use xlink:href="#DejaVuSans-65" transform="translate(44.083984 0)"/>
      <use xlink:href="#DejaVuSans-73" transform="translate(105.607422 0)"/>
      <use xlink:href="#DejaVuSans-74" transform="translate(157.707031 0)"/>
      <use xlink:href="#DejaVuSans-69" transform="translate(196.916016 0)"/>
      <use xlink:href="#DejaVuSans-6e" transform="translate(224.699219 0)"/>
      <use xlink:href="#DejaVuSans-67" transform="translate(288.078125 0)"/>
      <use xlink:href="#DejaVuSans-20" transform="translate(351.554688 0)"/>
      <use xlink:href="#DejaVuSans-52" transform="translate(383.341797 0)"/>
      <use xlink:href="#DejaVuSans-4d" transform="translate(452.824219 0)"/>
      <use xlink:href="#DejaVuSans-53" transform="translate(539.103516 0)"/>
      <use xlink:href="#DejaVuSans-45" transform="translate(602.580078 0)"/>
     </g>
    </g>
   </g>
  </g>
 </g>
 <defs>
  <clipPath id="p77eb854fd2">
   <rect x="90" y="43.2" width="558" height="277.2"/>
  </clipPath>
 </defs>
</svg>
