<?xml version="1.0" encoding="utf-8" standalone="no"?>
<!DOCTYPE svg PUBLIC "-//W3C//DTD SVG 1.1//EN"
  "http://www.w3.org/Graphics/SVG/1.1/DTD/svg11.dtd">
<svg xmlns:xlink="http://www.w3.org/1999/xlink" width="720pt" height="360pt" viewBox="0 0 720 360" xmlns="http://www.w3.org/2000/svg" version="1.1">
 <metadata>
  <rdf:RDF xmlns:dc="http://purl.org/dc/elements/1.1/" xmlns:cc="http://creativecommons.org/ns#" xmlns:rdf="http://www.w3.org/1999/02/22-rdf-syntax-ns#">
   <cc:Work>
    <dc:type rdf:resource="http://purl.org/dc/dcmitype/StillImage"/>
    <dc:date>2025-07-27T21:06:16.400662</dc:date>
    <dc:format>image/svg+xml</dc:format>
    <dc:creator>
     <cc:Agent>
      <dc:title>Matplotlib v3.10.3, https://matplotlib.org/</dc:title>
     </cc:Agent>
    </dc:creator>
   </cc:Work>
  </rdf:RDF>
 </metadata>
 <defs>
  <style type="text/css">*{stroke-linejoin: round; stroke-linecap: butt}</style>
 </defs>
 <g id="figure_1">
  <g id="patch_1">
   <path d="M 0 360 
L 720 360 
L 720 0 
L 0 0 
z
" style="fill: #ffffff"/>
  </g>
  <g id="axes_1">
   <g id="patch_2">
    <path d="M 90 320.4 
L 648 320.4 
L 648 43.2 
L 90 43.2 
z
" style="fill: #ffffff"/>
   </g>
   <g id="matplotlib.axis_1">
    <g id="xtick_1">
     <g id="line2d_1">
      <defs>
       <path id="m586de8e626" d="M 0 0 
L 0 3.5 
" style="stroke: #000000; stroke-width: 0.8"/>
      </defs>
      <g>
       <use xlink:href="#m586de8e626" x="105.011132" y="320.4" style="stroke: #000000; stroke-width: 0.8"/>
      </g>
     </g>
     <g id="text_1">
      <!-- 0 -->
      <g transform="translate(101.829882 334.998438) scale(0.1 -0.1)">
       <defs>
        <path id="DejaVuSans-30" d="M 2034 4250 
Q 1547 4250 1301 3770 
Q 1056 3291 1056 2328 
Q 1056 1369 1301 889 
Q 1547 409 2034 409 
Q 2525 409 2770 889 
Q 3016 1369 3016 2328 
Q 3016 3291 2770 3770 
Q 2525 4250 2034 4250 
z
M 2034 4750 
Q 2819 4750 3233 4129 
Q 3647 3509 3647 2328 
Q 3647 1150 3233 529 
Q 2819 -91 2034 -91 
Q 1250 -91 836 529 
Q 422 1150 422 2328 
Q 422 3509 836 4129 
Q 1250 4750 2034 4750 
z
" transform="scale(0.015625)"/>
       </defs>
       <use xlink:href="#DejaVuSans-30"/>
      </g>
     </g>
    </g>
    <g id="xtick_2">
     <g id="line2d_2">
      <g>
       <use xlink:href="#m586de8e626" x="208.536178" y="320.4" style="stroke: #000000; stroke-width: 0.8"/>
      </g>
     </g>
     <g id="text_2">
      <!-- 10 -->
      <g transform="translate(202.173678 334.998438) scale(0.1 -0.1)">
       <defs>
        <path id="DejaVuSans-31" d="M 794 531 
L 1825 531 
L 1825 4091 
L 703 3866 
L 703 4441 
L 1819 4666 
L 2450 4666 
L 2450 531 
L 3481 531 
L 3481 0 
L 794 0 
L 794 531 
z
" transform="scale(0.015625)"/>
       </defs>
       <use xlink:href="#DejaVuSans-31"/>
       <use xlink:href="#DejaVuSans-30" transform="translate(63.623047 0)"/>
      </g>
     </g>
    </g>
    <g id="xtick_3">
     <g id="line2d_3">
      <g>
       <use xlink:href="#m586de8e626" x="312.061224" y="320.4" style="stroke: #000000; stroke-width: 0.8"/>
      </g>
     </g>
     <g id="text_3">
      <!-- 20 -->
      <g transform="translate(305.698724 334.998438) scale(0.1 -0.1)">
       <defs>
        <path id="DejaVuSans-32" d="M 1228 531 
L 3431 531 
L 3431 0 
L 469 0 
L 469 531 
Q 828 903 1448 1529 
Q 2069 2156 2228 2338 
Q 2531 2678 2651 2914 
Q 2772 3150 2772 3378 
Q 2772 3750 2511 3984 
Q 2250 4219 1831 4219 
Q 1534 4219 1204 4116 
Q 875 4013 500 3803 
L 500 4441 
Q 881 4594 1212 4672 
Q 1544 4750 1819 4750 
Q 2544 4750 2975 4387 
Q 3406 4025 3406 3419 
Q 3406 3131 3298 2873 
Q 3191 2616 2906 2266 
Q 2828 2175 2409 1742 
Q 1991 1309 1228 531 
z
" transform="scale(0.015625)"/>
       </defs>
       <use xlink:href="#DejaVuSans-32"/>
       <use xlink:href="#DejaVuSans-30" transform="translate(63.623047 0)"/>
      </g>
     </g>
    </g>
    <g id="xtick_4">
     <g id="line2d_4">
      <g>
       <use xlink:href="#m586de8e626" x="415.586271" y="320.4" style="stroke: #000000; stroke-width: 0.8"/>
      </g>
     </g>
     <g id="text_4">
      <!-- 30 -->
      <g transform="translate(409.223771 334.998438) scale(0.1 -0.1)">
       <defs>
        <path id="DejaVuSans-33" d="M 2597 2516 
Q 3050 2419 3304 2112 
Q 3559 1806 3559 1356 
Q 3559 666 3084 287 
Q 2609 -91 1734 -91 
Q 1441 -91 1130 -33 
Q 819 25 488 141 
L 488 750 
Q 750 597 1062 519 
Q 1375 441 1716 441 
Q 2309 441 2620 675 
Q 2931 909 2931 1356 
Q 2931 1769 2642 2001 
Q 2353 2234 1838 2234 
L 1294 2234 
L 1294 2753 
L 1863 2753 
Q 2328 2753 2575 2939 
Q 2822 3125 2822 3475 
Q 2822 3834 2567 4026 
Q 2313 4219 1838 4219 
Q 1578 4219 1281 4162 
Q 984 4106 628 3988 
L 628 4550 
Q 988 4650 1302 4700 
Q 1616 4750 1894 4750 
Q 2613 4750 3031 4423 
Q 3450 4097 3450 3541 
Q 3450 3153 3228 2886 
Q 3006 2619 2597 2516 
z
" transform="scale(0.015625)"/>
       </defs>
       <use xlink:href="#DejaVuSans-33"/>
       <use xlink:href="#DejaVuSans-30" transform="translate(63.623047 0)"/>
      </g>
     </g>
    </g>
    <g id="xtick_5">
     <g id="line2d_5">
      <g>
       <use xlink:href="#m586de8e626" x="519.111317" y="320.4" style="stroke: #000000; stroke-width: 0.8"/>
      </g>
     </g>
     <g id="text_5">
      <!-- 40 -->
      <g transform="translate(512.748817 334.998438) scale(0.1 -0.1)">
       <defs>
        <path id="DejaVuSans-34" d="M 2419 4116 
L 825 1625 
L 2419 1625 
L 2419 4116 
z
M 2253 4666 
L 3047 4666 
L 3047 1625 
L 3713 1625 
L 3713 1100 
L 3047 1100 
L 3047 0 
L 2419 0 
L 2419 1100 
L 313 1100 
L 313 1709 
L 2253 4666 
z
" transform="scale(0.015625)"/>
       </defs>
       <use xlink:href="#DejaVuSans-34"/>
       <use xlink:href="#DejaVuSans-30" transform="translate(63.623047 0)"/>
      </g>
     </g>
    </g>
    <g id="xtick_6">
     <g id="line2d_6">
      <g>
       <use xlink:href="#m586de8e626" x="622.636364" y="320.4" style="stroke: #000000; stroke-width: 0.8"/>
      </g>
     </g>
     <g id="text_6">
      <!-- 50 -->
      <g transform="translate(616.273864 334.998438) scale(0.1 -0.1)">
       <defs>
        <path id="DejaVuSans-35" d="M 691 4666 
L 3169 4666 
L 3169 4134 
L 1269 4134 
L 1269 2991 
Q 1406 3038 1543 3061 
Q 1681 3084 1819 3084 
Q 2600 3084 3056 2656 
Q 3513 2228 3513 1497 
Q 3513 744 3044 326 
Q 2575 -91 1722 -91 
Q 1428 -91 1123 -41 
Q 819 9 494 109 
L 494 744 
Q 775 591 1075 516 
Q 1375 441 1709 441 
Q 2250 441 2565 725 
Q 2881 1009 2881 1497 
Q 2881 1984 2565 2268 
Q 2250 2553 1709 2553 
Q 1456 2553 1204 2497 
Q 953 2441 691 2322 
L 691 4666 
z
" transform="scale(0.015625)"/>
       </defs>
       <use xlink:href="#DejaVuSans-35"/>
       <use xlink:href="#DejaVuSans-30" transform="translate(63.623047 0)"/>
      </g>
     </g>
    </g>
    <g id="text_7">
     <!-- Epoch -->
     <g transform="translate(353.689062 348.676562) scale(0.1 -0.1)">
      <defs>
       <path id="DejaVuSans-45" d="M 628 4666 
L 3578 4666 
L 3578 4134 
L 1259 4134 
L 1259 2753 
L 3481 2753 
L 3481 2222 
L 1259 2222 
L 1259 531 
L 3634 531 
L 3634 0 
L 628 0 
L 628 4666 
z
" transform="scale(0.015625)"/>
       <path id="DejaVuSans-70" d="M 1159 525 
L 1159 -1331 
L 581 -1331 
L 581 3500 
L 1159 3500 
L 1159 2969 
Q 1341 3281 1617 3432 
Q 1894 3584 2278 3584 
Q 2916 3584 3314 3078 
Q 3713 2572 3713 1747 
Q 3713 922 3314 415 
Q 2916 -91 2278 -91 
Q 1894 -91 1617 61 
Q 1341 213 1159 525 
z
M 3116 1747 
Q 3116 2381 2855 2742 
Q 2594 3103 2138 3103 
Q 1681 3103 1420 2742 
Q 1159 2381 1159 1747 
Q 1159 1113 1420 752 
Q 1681 391 2138 391 
Q 2594 391 2855 752 
Q 3116 1113 3116 1747 
z
" transform="scale(0.015625)"/>
       <path id="DejaVuSans-6f" d="M 1959 3097 
Q 1497 3097 1228 2736 
Q 959 2375 959 1747 
Q 959 1119 1226 758 
Q 1494 397 1959 397 
Q 2419 397 2687 759 
Q 2956 1122 2956 1747 
Q 2956 2369 2687 2733 
Q 2419 3097 1959 3097 
z
M 1959 3584 
Q 2709 3584 3137 3096 
Q 3566 2609 3566 1747 
Q 3566 888 3137 398 
Q 2709 -91 1959 -91 
Q 1206 -91 779 398 
Q 353 888 353 1747 
Q 353 2609 779 3096 
Q 1206 3584 1959 3584 
z
" transform="scale(0.015625)"/>
       <path id="DejaVuSans-63" d="M 3122 3366 
L 3122 2828 
Q 2878 2963 2633 3030 
Q 2388 3097 2138 3097 
Q 1578 3097 1268 2742 
Q 959 2388 959 1747 
Q 959 1106 1268 751 
Q 1578 397 2138 397 
Q 2388 397 2633 464 
Q 2878 531 3122 666 
L 3122 134 
Q 2881 22 2623 -34 
Q 2366 -91 2075 -91 
Q 1284 -91 818 406 
Q 353 903 353 1747 
Q 353 2603 823 3093 
Q 1294 3584 2113 3584 
Q 2378 3584 2631 3529 
Q 2884 3475 3122 3366 
z
" transform="scale(0.015625)"/>
       <path id="DejaVuSans-68" d="M 3513 2113 
L 3513 0 
L 2938 0 
L 2938 2094 
Q 2938 2591 2744 2837 
Q 2550 3084 2163 3084 
Q 1697 3084 1428 2787 
Q 1159 2491 1159 1978 
L 1159 0 
L 581 0 
L 581 4863 
L 1159 4863 
L 1159 2956 
Q 1366 3272 1645 3428 
Q 1925 3584 2291 3584 
Q 2894 3584 3203 3211 
Q 3513 2838 3513 2113 
z
" transform="scale(0.015625)"/>
      </defs>
      <use xlink:href="#DejaVuSans-45"/>
      <use xlink:href="#DejaVuSans-70" transform="translate(63.183594 0)"/>
      <use xlink:href="#DejaVuSans-6f" transform="translate(126.660156 0)"/>
      <use xlink:href="#DejaVuSans-63" transform="translate(187.841797 0)"/>
      <use xlink:href="#DejaVuSans-68" transform="translate(242.822266 0)"/>
     </g>
    </g>
   </g>
   <g id="matplotlib.axis_2">
    <g id="ytick_1">
     <g id="line2d_7">
      <defs>
       <path id="m4e2541d368" d="M 0 0 
L -3.5 0 
" style="stroke: #000000; stroke-width: 0.8"/>
      </defs>
      <g>
       <use xlink:href="#m4e2541d368" x="90" y="309.20939" style="stroke: #000000; stroke-width: 0.8"/>
      </g>
     </g>
     <g id="text_8">
      <!-- 0.72 -->
      <g transform="translate(60.734375 313.008609) scale(0.1 -0.1)">
       <defs>
        <path id="DejaVuSans-2e" d="M 684 794 
L 1344 794 
L 1344 0 
L 684 0 
L 684 794 
z
" transform="scale(0.015625)"/>
        <path id="DejaVuSans-37" d="M 525 4666 
L 3525 4666 
L 3525 4397 
L 1831 0 
L 1172 0 
L 2766 4134 
L 525 4134 
L 525 4666 
z
" transform="scale(0.015625)"/>
       </defs>
       <use xlink:href="#DejaVuSans-30"/>
       <use xlink:href="#DejaVuSans-2e" transform="translate(63.623047 0)"/>
       <use xlink:href="#DejaVuSans-37" transform="translate(95.410156 0)"/>
       <use xlink:href="#DejaVuSans-32" transform="translate(159.033203 0)"/>
      </g>
     </g>
    </g>
    <g id="ytick_2">
     <g id="line2d_8">
      <g>
       <use xlink:href="#m4e2541d368" x="90" y="275.365059" style="stroke: #000000; stroke-width: 0.8"/>
      </g>
     </g>
     <g id="text_9">
      <!-- 0.74 -->
      <g transform="translate(60.734375 279.164277) scale(0.1 -0.1)">
       <use xlink:href="#DejaVuSans-30"/>
       <use xlink:href="#DejaVuSans-2e" transform="translate(63.623047 0)"/>
       <use xlink:href="#DejaVuSans-37" transform="translate(95.410156 0)"/>
       <use xlink:href="#DejaVuSans-34" transform="translate(159.033203 0)"/>
      </g>
     </g>
    </g>
    <g id="ytick_3">
     <g id="line2d_9">
      <g>
       <use xlink:href="#m4e2541d368" x="90" y="241.520727" style="stroke: #000000; stroke-width: 0.8"/>
      </g>
     </g>
     <g id="text_10">
      <!-- 0.76 -->
      <g transform="translate(60.734375 245.319946) scale(0.1 -0.1)">
       <defs>
        <path id="DejaVuSans-36" d="M 2113 2584 
Q 1688 2584 1439 2293 
Q 1191 2003 1191 1497 
Q 1191 994 1439 701 
Q 1688 409 2113 409 
Q 2538 409 2786 701 
Q 3034 994 3034 1497 
Q 3034 2003 2786 2293 
Q 2538 2584 2113 2584 
z
M 3366 4563 
L 3366 3988 
Q 3128 4100 2886 4159 
Q 2644 4219 2406 4219 
Q 1781 4219 1451 3797 
Q 1122 3375 1075 2522 
Q 1259 2794 1537 2939 
Q 1816 3084 2150 3084 
Q 2853 3084 3261 2657 
Q 3669 2231 3669 1497 
Q 3669 778 3244 343 
Q 2819 -91 2113 -91 
Q 1303 -91 875 529 
Q 447 1150 447 2328 
Q 447 3434 972 4092 
Q 1497 4750 2381 4750 
Q 2619 4750 2861 4703 
Q 3103 4656 3366 4563 
z
" transform="scale(0.015625)"/>
       </defs>
       <use xlink:href="#DejaVuSans-30"/>
       <use xlink:href="#DejaVuSans-2e" transform="translate(63.623047 0)"/>
       <use xlink:href="#DejaVuSans-37" transform="translate(95.410156 0)"/>
       <use xlink:href="#DejaVuSans-36" transform="translate(159.033203 0)"/>
      </g>
     </g>
    </g>
    <g id="ytick_4">
     <g id="line2d_10">
      <g>
       <use xlink:href="#m4e2541d368" x="90" y="207.676396" style="stroke: #000000; stroke-width: 0.8"/>
      </g>
     </g>
     <g id="text_11">
      <!-- 0.78 -->
      <g transform="translate(60.734375 211.475614) scale(0.1 -0.1)">
       <defs>
        <path id="DejaVuSans-38" d="M 2034 2216 
Q 1584 2216 1326 1975 
Q 1069 1734 1069 1313 
Q 1069 891 1326 650 
Q 1584 409 2034 409 
Q 2484 409 2743 651 
Q 3003 894 3003 1313 
Q 3003 1734 2745 1975 
Q 2488 2216 2034 2216 
z
M 1403 2484 
Q 997 2584 770 2862 
Q 544 3141 544 3541 
Q 544 4100 942 4425 
Q 1341 4750 2034 4750 
Q 2731 4750 3128 4425 
Q 3525 4100 3525 3541 
Q 3525 3141 3298 2862 
Q 3072 2584 2669 2484 
Q 3125 2378 3379 2068 
Q 3634 1759 3634 1313 
Q 3634 634 3220 271 
Q 2806 -91 2034 -91 
Q 1263 -91 848 271 
Q 434 634 434 1313 
Q 434 1759 690 2068 
Q 947 2378 1403 2484 
z
M 1172 3481 
Q 1172 3119 1398 2916 
Q 1625 2713 2034 2713 
Q 2441 2713 2670 2916 
Q 2900 3119 2900 3481 
Q 2900 3844 2670 4047 
Q 2441 4250 2034 4250 
Q 1625 4250 1398 4047 
Q 1172 3844 1172 3481 
z
" transform="scale(0.015625)"/>
       </defs>
       <use xlink:href="#DejaVuSans-30"/>
       <use xlink:href="#DejaVuSans-2e" transform="translate(63.623047 0)"/>
       <use xlink:href="#DejaVuSans-37" transform="translate(95.410156 0)"/>
       <use xlink:href="#DejaVuSans-38" transform="translate(159.033203 0)"/>
      </g>
     </g>
    </g>
    <g id="ytick_5">
     <g id="line2d_11">
      <g>
       <use xlink:href="#m4e2541d368" x="90" y="173.832064" style="stroke: #000000; stroke-width: 0.8"/>
      </g>
     </g>
     <g id="text_12">
      <!-- 0.80 -->
      <g transform="translate(60.734375 177.631283) scale(0.1 -0.1)">
       <use xlink:href="#DejaVuSans-30"/>
       <use xlink:href="#DejaVuSans-2e" transform="translate(63.623047 0)"/>
       <use xlink:href="#DejaVuSans-38" transform="translate(95.410156 0)"/>
       <use xlink:href="#DejaVuSans-30" transform="translate(159.033203 0)"/>
      </g>
     </g>
    </g>
    <g id="ytick_6">
     <g id="line2d_12">
      <g>
       <use xlink:href="#m4e2541d368" x="90" y="139.987732" style="stroke: #000000; stroke-width: 0.8"/>
      </g>
     </g>
     <g id="text_13">
      <!-- 0.82 -->
      <g transform="translate(60.734375 143.786951) scale(0.1 -0.1)">
       <use xlink:href="#DejaVuSans-30"/>
       <use xlink:href="#DejaVuSans-2e" transform="translate(63.623047 0)"/>
       <use xlink:href="#DejaVuSans-38" transform="translate(95.410156 0)"/>
       <use xlink:href="#DejaVuSans-32" transform="translate(159.033203 0)"/>
      </g>
     </g>
    </g>
    <g id="ytick_7">
     <g id="line2d_13">
      <g>
       <use xlink:href="#m4e2541d368" x="90" y="106.143401" style="stroke: #000000; stroke-width: 0.8"/>
      </g>
     </g>
     <g id="text_14">
      <!-- 0.84 -->
      <g transform="translate(60.734375 109.942619) scale(0.1 -0.1)">
       <use xlink:href="#DejaVuSans-30"/>
       <use xlink:href="#DejaVuSans-2e" transform="translate(63.623047 0)"/>
       <use xlink:href="#DejaVuSans-38" transform="translate(95.410156 0)"/>
       <use xlink:href="#DejaVuSans-34" transform="translate(159.033203 0)"/>
      </g>
     </g>
    </g>
    <g id="ytick_8">
     <g id="line2d_14">
      <g>
       <use xlink:href="#m4e2541d368" x="90" y="72.299069" style="stroke: #000000; stroke-width: 0.8"/>
      </g>
     </g>
     <g id="text_15">
      <!-- 0.86 -->
      <g transform="translate(60.734375 76.098288) scale(0.1 -0.1)">
       <use xlink:href="#DejaVuSans-30"/>
       <use xlink:href="#DejaVuSans-2e" transform="translate(63.623047 0)"/>
       <use xlink:href="#DejaVuSans-38" transform="translate(95.410156 0)"/>
       <use xlink:href="#DejaVuSans-36" transform="translate(159.033203 0)"/>
      </g>
     </g>
    </g>
    <g id="text_16">
     <!-- RMSE -->
     <g transform="translate(54.654688 195.921875) rotate(-90) scale(0.1 -0.1)">
      <defs>
       <path id="DejaVuSans-52" d="M 2841 2188 
Q 3044 2119 3236 1894 
Q 3428 1669 3622 1275 
L 4263 0 
L 3584 0 
L 2988 1197 
Q 2756 1666 2539 1819 
Q 2322 1972 1947 1972 
L 1259 1972 
L 1259 0 
L 628 0 
L 628 4666 
L 2053 4666 
Q 2853 4666 3247 4331 
Q 3641 3997 3641 3322 
Q 3641 2881 3436 2590 
Q 3231 2300 2841 2188 
z
M 1259 4147 
L 1259 2491 
L 2053 2491 
Q 2509 2491 2742 2702 
Q 2975 2913 2975 3322 
Q 2975 3731 2742 3939 
Q 2509 4147 2053 4147 
L 1259 4147 
z
" transform="scale(0.015625)"/>
       <path id="DejaVuSans-4d" d="M 628 4666 
L 1569 4666 
L 2759 1491 
L 3956 4666 
L 4897 4666 
L 4897 0 
L 4281 0 
L 4281 4097 
L 3078 897 
L 2444 897 
L 1241 4097 
L 1241 0 
L 628 0 
L 628 4666 
z
" transform="scale(0.015625)"/>
       <path id="DejaVuSans-53" d="M 3425 4513 
L 3425 3897 
Q 3066 4069 2747 4153 
Q 2428 4238 2131 4238 
Q 1616 4238 1336 4038 
Q 1056 3838 1056 3469 
Q 1056 3159 1242 3001 
Q 1428 2844 1947 2747 
L 2328 2669 
Q 3034 2534 3370 2195 
Q 3706 1856 3706 1288 
Q 3706 609 3251 259 
Q 2797 -91 1919 -91 
Q 1588 -91 1214 -16 
Q 841 59 441 206 
L 441 856 
Q 825 641 1194 531 
Q 1563 422 1919 422 
Q 2459 422 2753 634 
Q 3047 847 3047 1241 
Q 3047 1584 2836 1778 
Q 2625 1972 2144 2069 
L 1759 2144 
Q 1053 2284 737 2584 
Q 422 2884 422 3419 
Q 422 4038 858 4394 
Q 1294 4750 2059 4750 
Q 2388 4750 2728 4690 
Q 3069 4631 3425 4513 
z
" transform="scale(0.015625)"/>
      </defs>
      <use xlink:href="#DejaVuSans-52"/>
      <use xlink:href="#DejaVuSans-4d" transform="translate(69.482422 0)"/>
      <use xlink:href="#DejaVuSans-53" transform="translate(155.761719 0)"/>
      <use xlink:href="#DejaVuSans-45" transform="translate(219.238281 0)"/>
     </g>
    </g>
   </g>
   <g id="line2d_15">
    <path d="M 115.363636 98.758224 
L 125.716141 223.544633 
L 136.068646 268.91907 
L 146.42115 285.871377 
L 156.773655 293.768679 
L 167.12616 298.120248 
L 177.478664 300.691934 
L 187.831169 302.283066 
L 198.183673 303.320049 
L 208.536178 304.032745 
L 218.888683 304.546781 
L 229.241187 304.933532 
L 239.593692 305.235544 
L 249.946197 305.479359 
L 260.298701 305.682176 
L 270.651206 305.855471 
L 281.003711 306.007055 
L 291.356215 306.142316 
L 301.70872 306.264987 
L 312.061224 306.377648 
L 322.413729 306.482078 
L 332.766234 306.579496 
L 343.118738 306.67074 
L 353.471243 306.756393 
L 363.823748 306.836873 
L 374.176252 306.912494 
L 384.528757 306.983504 
L 394.881262 307.050114 
L 405.233766 307.11252 
L 415.586271 307.170911 
L 425.938776 307.225482 
L 436.29128 307.276433 
L 446.643785 307.323974 
L 456.996289 307.368322 
L 467.348794 307.409697 
L 477.701299 307.448317 
L 488.053803 307.484398 
L 498.406308 307.518145 
L 508.758813 307.549755 
L 519.111317 307.579413 
L 529.463822 307.607289 
L 539.816327 307.633542 
L 550.168831 307.658317 
L 560.521336 307.681745 
L 570.87384 307.703947 
L 581.226345 307.72503 
L 591.57885 307.745094 
L 601.931354 307.764225 
L 612.283859 307.782504 
L 622.636364 307.8 
" clip-path="url(#pea6682ff40)" style="fill: none; stroke: #1f77b4; stroke-width: 1.5; stroke-linecap: square"/>
    <defs>
     <path id="ma413924023" d="M 0 3 
C 0.795609 3 1.55874 2.683901 2.12132 2.12132 
C 2.683901 1.55874 3 0.795609 3 0 
C 3 -0.795609 2.683901 -1.55874 2.12132 -2.12132 
C 1.55874 -2.683901 0.795609 -3 0 -3 
C -0.795609 -3 -1.55874 -2.683901 -2.12132 -2.12132 
C -2.683901 -1.55874 -3 -0.795609 -3 0 
C -3 0.795609 -2.683901 1.55874 -2.12132 2.12132 
C -1.55874 2.683901 -0.795609 3 0 3 
z
" style="stroke: #1f77b4"/>
    </defs>
    <g clip-path="url(#pea6682ff40)">
     <use xlink:href="#ma413924023" x="115.363636" y="98.758224" style="fill: #1f77b4; stroke: #1f77b4"/>
     <use xlink:href="#ma413924023" x="125.716141" y="223.544633" style="fill: #1f77b4; stroke: #1f77b4"/>
     <use xlink:href="#ma413924023" x="136.068646" y="268.91907" style="fill: #1f77b4; stroke: #1f77b4"/>
     <use xlink:href="#ma413924023" x="146.42115" y="285.871377" style="fill: #1f77b4; stroke: #1f77b4"/>
     <use xlink:href="#ma413924023" x="156.773655" y="293.768679" style="fill: #1f77b4; stroke: #1f77b4"/>
     <use xlink:href="#ma413924023" x="167.12616" y="298.120248" style="fill: #1f77b4; stroke: #1f77b4"/>
     <use xlink:href="#ma413924023" x="177.478664" y="300.691934" style="fill: #1f77b4; stroke: #1f77b4"/>
     <use xlink:href="#ma413924023" x="187.831169" y="302.283066" style="fill: #1f77b4; stroke: #1f77b4"/>
     <use xlink:href="#ma413924023" x="198.183673" y="303.320049" style="fill: #1f77b4; stroke: #1f77b4"/>
     <use xlink:href="#ma413924023" x="208.536178" y="304.032745" style="fill: #1f77b4; stroke: #1f77b4"/>
     <use xlink:href="#ma413924023" x="218.888683" y="304.546781" style="fill: #1f77b4; stroke: #1f77b4"/>
     <use xlink:href="#ma413924023" x="229.241187" y="304.933532" style="fill: #1f77b4; stroke: #1f77b4"/>
     <use xlink:href="#ma413924023" x="239.593692" y="305.235544" style="fill: #1f77b4; stroke: #1f77b4"/>
     <use xlink:href="#ma413924023" x="249.946197" y="305.479359" style="fill: #1f77b4; stroke: #1f77b4"/>
     <use xlink:href="#ma413924023" x="260.298701" y="305.682176" style="fill: #1f77b4; stroke: #1f77b4"/>
     <use xlink:href="#ma413924023" x="270.651206" y="305.855471" style="fill: #1f77b4; stroke: #1f77b4"/>
     <use xlink:href="#ma413924023" x="281.003711" y="306.007055" style="fill: #1f77b4; stroke: #1f77b4"/>
     <use xlink:href="#ma413924023" x="291.356215" y="306.142316" style="fill: #1f77b4; stroke: #1f77b4"/>
     <use xlink:href="#ma413924023" x="301.70872" y="306.264987" style="fill: #1f77b4; stroke: #1f77b4"/>
     <use xlink:href="#ma413924023" x="312.061224" y="306.377648" style="fill: #1f77b4; stroke: #1f77b4"/>
     <use xlink:href="#ma413924023" x="322.413729" y="306.482078" style="fill: #1f77b4; stroke: #1f77b4"/>
     <use xlink:href="#ma413924023" x="332.766234" y="306.579496" style="fill: #1f77b4; stroke: #1f77b4"/>
     <use xlink:href="#ma413924023" x="343.118738" y="306.67074" style="fill: #1f77b4; stroke: #1f77b4"/>
     <use xlink:href="#ma413924023" x="353.471243" y="306.756393" style="fill: #1f77b4; stroke: #1f77b4"/>
     <use xlink:href="#ma413924023" x="363.823748" y="306.836873" style="fill: #1f77b4; stroke: #1f77b4"/>
     <use xlink:href="#ma413924023" x="374.176252" y="306.912494" style="fill: #1f77b4; stroke: #1f77b4"/>
     <use xlink:href="#ma413924023" x="384.528757" y="306.983504" style="fill: #1f77b4; stroke: #1f77b4"/>
     <use xlink:href="#ma413924023" x="394.881262" y="307.050114" style="fill: #1f77b4; stroke: #1f77b4"/>
     <use xlink:href="#ma413924023" x="405.233766" y="307.11252" style="fill: #1f77b4; stroke: #1f77b4"/>
     <use xlink:href="#ma413924023" x="415.586271" y="307.170911" style="fill: #1f77b4; stroke: #1f77b4"/>
     <use xlink:href="#ma413924023" x="425.938776" y="307.225482" style="fill: #1f77b4; stroke: #1f77b4"/>
     <use xlink:href="#ma413924023" x="436.29128" y="307.276433" style="fill: #1f77b4; stroke: #1f77b4"/>
     <use xlink:href="#ma413924023" x="446.643785" y="307.323974" style="fill: #1f77b4; stroke: #1f77b4"/>
     <use xlink:href="#ma413924023" x="456.996289" y="307.368322" style="fill: #1f77b4; stroke: #1f77b4"/>
     <use xlink:href="#ma413924023" x="467.348794" y="307.409697" style="fill: #1f77b4; stroke: #1f77b4"/>
     <use xlink:href="#ma413924023" x="477.701299" y="307.448317" style="fill: #1f77b4; stroke: #1f77b4"/>
     <use xlink:href="#ma413924023" x="488.053803" y="307.484398" style="fill: #1f77b4; stroke: #1f77b4"/>
     <use xlink:href="#ma413924023" x="498.406308" y="307.518145" style="fill: #1f77b4; stroke: #1f77b4"/>
     <use xlink:href="#ma413924023" x="508.758813" y="307.549755" style="fill: #1f77b4; stroke: #1f77b4"/>
     <use xlink:href="#ma413924023" x="519.111317" y="307.579413" style="fill: #1f77b4; stroke: #1f77b4"/>
     <use xlink:href="#ma413924023" x="529.463822" y="307.607289" style="fill: #1f77b4; stroke: #1f77b4"/>
     <use xlink:href="#ma413924023" x="539.816327" y="307.633542" style="fill: #1f77b4; stroke: #1f77b4"/>
     <use xlink:href="#ma413924023" x="550.168831" y="307.658317" style="fill: #1f77b4; stroke: #1f77b4"/>
     <use xlink:href="#ma413924023" x="560.521336" y="307.681745" style="fill: #1f77b4; stroke: #1f77b4"/>
     <use xlink:href="#ma413924023" x="570.87384" y="307.703947" style="fill: #1f77b4; stroke: #1f77b4"/>
     <use xlink:href="#ma413924023" x="581.226345" y="307.72503" style="fill: #1f77b4; stroke: #1f77b4"/>
     <use xlink:href="#ma413924023" x="591.57885" y="307.745094" style="fill: #1f77b4; stroke: #1f77b4"/>
     <use xlink:href="#ma413924023" x="601.931354" y="307.764225" style="fill: #1f77b4; stroke: #1f77b4"/>
     <use xlink:href="#ma413924023" x="612.283859" y="307.782504" style="fill: #1f77b4; stroke: #1f77b4"/>
     <use xlink:href="#ma413924023" x="622.636364" y="307.8" style="fill: #1f77b4; stroke: #1f77b4"/>
    </g>
   </g>
   <g id="line2d_16">
    <path d="M 115.363636 55.8 
L 125.716141 136.478569 
L 136.068646 178.690048 
L 146.42115 194.426607 
L 156.773655 201.690564 
L 167.12616 205.678558 
L 177.478664 208.014878 
L 187.831169 209.434866 
L 198.183673 210.340352 
L 208.536178 210.95172 
L 218.888683 211.389154 
L 229.241187 211.719502 
L 239.593692 211.981293 
L 249.946197 212.197631 
L 260.298701 212.382889 
L 270.651206 212.546288 
L 281.003711 212.693869 
L 291.356215 212.829638 
L 301.70872 212.956241 
L 312.061224 213.075394 
L 322.413729 213.188173 
L 332.766234 213.295211 
L 343.118738 213.39685 
L 353.471243 213.493253 
L 363.823748 213.584485 
L 374.176252 213.670575 
L 384.528757 213.751554 
L 394.881262 213.827489 
L 405.233766 213.898485 
L 415.586271 213.964697 
L 425.938776 214.026323 
L 436.29128 214.0836 
L 446.643785 214.136788 
L 456.996289 214.186167 
L 467.348794 214.232021 
L 477.701299 214.274636 
L 488.053803 214.314288 
L 498.406308 214.351242 
L 508.758813 214.385744 
L 519.111317 214.418026 
L 529.463822 214.4483 
L 539.816327 214.476758 
L 550.168831 214.503574 
L 560.521336 214.528907 
L 570.87384 214.552895 
L 581.226345 214.575665 
L 591.57885 214.597327 
L 601.931354 214.617979 
L 612.283859 214.63771 
L 622.636364 214.656594 
" clip-path="url(#pea6682ff40)" style="fill: none; stroke: #ff7f0e; stroke-width: 1.5; stroke-linecap: square"/>
    <defs>
     <path id="m85f3576f44" d="M -3 3 
L 3 -3 
M -3 -3 
L 3 3 
" style="stroke: #ff7f0e"/>
    </defs>
    <g clip-path="url(#pea6682ff40)">
     <use xlink:href="#m85f3576f44" x="115.363636" y="55.8" style="fill: #ff7f0e; stroke: #ff7f0e"/>
     <use xlink:href="#m85f3576f44" x="125.716141" y="136.478569" style="fill: #ff7f0e; stroke: #ff7f0e"/>
     <use xlink:href="#m85f3576f44" x="136.068646" y="178.690048" style="fill: #ff7f0e; stroke: #ff7f0e"/>
     <use xlink:href="#m85f3576f44" x="146.42115" y="194.426607" style="fill: #ff7f0e; stroke: #ff7f0e"/>
     <use xlink:href="#m85f3576f44" x="156.773655" y="201.690564" style="fill: #ff7f0e; stroke: #ff7f0e"/>
     <use xlink:href="#m85f3576f44" x="167.12616" y="205.678558" style="fill: #ff7f0e; stroke: #ff7f0e"/>
     <use xlink:href="#m85f3576f44" x="177.478664" y="208.014878" style="fill: #ff7f0e; stroke: #ff7f0e"/>
     <use xlink:href="#m85f3576f44" x="187.831169" y="209.434866" style="fill: #ff7f0e; stroke: #ff7f0e"/>
     <use xlink:href="#m85f3576f44" x="198.183673" y="210.340352" style="fill: #ff7f0e; stroke: #ff7f0e"/>
     <use xlink:href="#m85f3576f44" x="208.536178" y="210.95172" style="fill: #ff7f0e; stroke: #ff7f0e"/>
     <use xlink:href="#m85f3576f44" x="218.888683" y="211.389154" style="fill: #ff7f0e; stroke: #ff7f0e"/>
     <use xlink:href="#m85f3576f44" x="229.241187" y="211.719502" style="fill: #ff7f0e; stroke: #ff7f0e"/>
     <use xlink:href="#m85f3576f44" x="239.593692" y="211.981293" style="fill: #ff7f0e; stroke: #ff7f0e"/>
     <use xlink:href="#m85f3576f44" x="249.946197" y="212.197631" style="fill: #ff7f0e; stroke: #ff7f0e"/>
     <use xlink:href="#m85f3576f44" x="260.298701" y="212.382889" style="fill: #ff7f0e; stroke: #ff7f0e"/>
     <use xlink:href="#m85f3576f44" x="270.651206" y="212.546288" style="fill: #ff7f0e; stroke: #ff7f0e"/>
     <use xlink:href="#m85f3576f44" x="281.003711" y="212.693869" style="fill: #ff7f0e; stroke: #ff7f0e"/>
     <use xlink:href="#m85f3576f44" x="291.356215" y="212.829638" style="fill: #ff7f0e; stroke: #ff7f0e"/>
     <use xlink:href="#m85f3576f44" x="301.70872" y="212.956241" style="fill: #ff7f0e; stroke: #ff7f0e"/>
     <use xlink:href="#m85f3576f44" x="312.061224" y="213.075394" style="fill: #ff7f0e; stroke: #ff7f0e"/>
     <use xlink:href="#m85f3576f44" x="322.413729" y="213.188173" style="fill: #ff7f0e; stroke: #ff7f0e"/>
     <use xlink:href="#m85f3576f44" x="332.766234" y="213.295211" style="fill: #ff7f0e; stroke: #ff7f0e"/>
     <use xlink:href="#m85f3576f44" x="343.118738" y="213.39685" style="fill: #ff7f0e; stroke: #ff7f0e"/>
     <use xlink:href="#m85f3576f44" x="353.471243" y="213.493253" style="fill: #ff7f0e; stroke: #ff7f0e"/>
     <use xlink:href="#m85f3576f44" x="363.823748" y="213.584485" style="fill: #ff7f0e; stroke: #ff7f0e"/>
     <use xlink:href="#m85f3576f44" x="374.176252" y="213.670575" style="fill: #ff7f0e; stroke: #ff7f0e"/>
     <use xlink:href="#m85f3576f44" x="384.528757" y="213.751554" style="fill: #ff7f0e; stroke: #ff7f0e"/>
     <use xlink:href="#m85f3576f44" x="394.881262" y="213.827489" style="fill: #ff7f0e; stroke: #ff7f0e"/>
     <use xlink:href="#m85f3576f44" x="405.233766" y="213.898485" style="fill: #ff7f0e; stroke: #ff7f0e"/>
     <use xlink:href="#m85f3576f44" x="415.586271" y="213.964697" style="fill: #ff7f0e; stroke: #ff7f0e"/>
     <use xlink:href="#m85f3576f44" x="425.938776" y="214.026323" style="fill: #ff7f0e; stroke: #ff7f0e"/>
     <use xlink:href="#m85f3576f44" x="436.29128" y="214.0836" style="fill: #ff7f0e; stroke: #ff7f0e"/>
     <use xlink:href="#m85f3576f44" x="446.643785" y="214.136788" style="fill: #ff7f0e; stroke: #ff7f0e"/>
     <use xlink:href="#m85f3576f44" x="456.996289" y="214.186167" style="fill: #ff7f0e; stroke: #ff7f0e"/>
     <use xlink:href="#m85f3576f44" x="467.348794" y="214.232021" style="fill: #ff7f0e; stroke: #ff7f0e"/>
     <use xlink:href="#m85f3576f44" x="477.701299" y="214.274636" style="fill: #ff7f0e; stroke: #ff7f0e"/>
     <use xlink:href="#m85f3576f44" x="488.053803" y="214.314288" style="fill: #ff7f0e; stroke: #ff7f0e"/>
     <use xlink:href="#m85f3576f44" x="498.406308" y="214.351242" style="fill: #ff7f0e; stroke: #ff7f0e"/>
     <use xlink:href="#m85f3576f44" x="508.758813" y="214.385744" style="fill: #ff7f0e; stroke: #ff7f0e"/>
     <use xlink:href="#m85f3576f44" x="519.111317" y="214.418026" style="fill: #ff7f0e; stroke: #ff7f0e"/>
     <use xlink:href="#m85f3576f44" x="529.463822" y="214.4483" style="fill: #ff7f0e; stroke: #ff7f0e"/>
     <use xlink:href="#m85f3576f44" x="539.816327" y="214.476758" style="fill: #ff7f0e; stroke: #ff7f0e"/>
     <use xlink:href="#m85f3576f44" x="550.168831" y="214.503574" style="fill: #ff7f0e; stroke: #ff7f0e"/>
     <use xlink:href="#m85f3576f44" x="560.521336" y="214.528907" style="fill: #ff7f0e; stroke: #ff7f0e"/>
     <use xlink:href="#m85f3576f44" x="570.87384" y="214.552895" style="fill: #ff7f0e; stroke: #ff7f0e"/>
     <use xlink:href="#m85f3576f44" x="581.226345" y="214.575665" style="fill: #ff7f0e; stroke: #ff7f0e"/>
     <use xlink:href="#m85f3576f44" x="591.57885" y="214.597327" style="fill: #ff7f0e; stroke: #ff7f0e"/>
     <use xlink:href="#m85f3576f44" x="601.931354" y="214.617979" style="fill: #ff7f0e; stroke: #ff7f0e"/>
     <use xlink:href="#m85f3576f44" x="612.283859" y="214.63771" style="fill: #ff7f0e; stroke: #ff7f0e"/>
     <use xlink:href="#m85f3576f44" x="622.636364" y="214.656594" style="fill: #ff7f0e; stroke: #ff7f0e"/>
    </g>
   </g>
   <g id="patch_3">
    <path d="M 90 320.4 
L 90 43.2 
" style="fill: none; stroke: #000000; stroke-width: 0.8; stroke-linejoin: miter; stroke-linecap: square"/>
   </g>
   <g id="patch_4">
    <path d="M 648 320.4 
L 648 43.2 
" style="fill: none; stroke: #000000; stroke-width: 0.8; stroke-linejoin: miter; stroke-linecap: square"/>
   </g>
   <g id="patch_5">
    <path d="M 90 320.4 
L 648 320.4 
" style="fill: none; stroke: #000000; stroke-width: 0.8; stroke-linejoin: miter; stroke-linecap: square"/>
   </g>
   <g id="patch_6">
    <path d="M 90 43.2 
L 648 43.2 
" style="fill: none; stroke: #000000; stroke-width: 0.8; stroke-linejoin: miter; stroke-linecap: square"/>
   </g>
   <g id="text_17">
    <!-- RMSE Over Epochs -->
    <g transform="translate(312.308438 37.2) scale(0.12 -0.12)">
     <defs>
      <path id="DejaVuSans-20" transform="scale(0.015625)"/>
      <path id="DejaVuSans-4f" d="M 2522 4238 
Q 1834 4238 1429 3725 
Q 1025 3213 1025 2328 
Q 1025 1447 1429 934 
Q 1834 422 2522 422 
Q 3209 422 3611 934 
Q 4013 1447 4013 2328 
Q 4013 3213 3611 3725 
Q 3209 4238 2522 4238 
z
M 2522 4750 
Q 3503 4750 4090 4092 
Q 4678 3434 4678 2328 
Q 4678 1225 4090 567 
Q 3503 -91 2522 -91 
Q 1538 -91 948 565 
Q 359 1222 359 2328 
Q 359 3434 948 4092 
Q 1538 4750 2522 4750 
z
" transform="scale(0.015625)"/>
      <path id="DejaVuSans-76" d="M 191 3500 
L 800 3500 
L 1894 563 
L 2988 3500 
L 3597 3500 
L 2284 0 
L 1503 0 
L 191 3500 
z
" transform="scale(0.015625)"/>
      <path id="DejaVuSans-65" d="M 3597 1894 
L 3597 1613 
L 953 1613 
Q 991 1019 1311 708 
Q 1631 397 2203 397 
Q 2534 397 2845 478 
Q 3156 559 3463 722 
L 3463 178 
Q 3153 47 2828 -22 
Q 2503 -91 2169 -91 
Q 1331 -91 842 396 
Q 353 884 353 1716 
Q 353 2575 817 3079 
Q 1281 3584 2069 3584 
Q 2775 3584 3186 3129 
Q 3597 2675 3597 1894 
z
M 3022 2063 
Q 3016 2534 2758 2815 
Q 2500 3097 2075 3097 
Q 1594 3097 1305 2825 
Q 1016 2553 972 2059 
L 3022 2063 
z
" transform="scale(0.015625)"/>
      <path id="DejaVuSans-72" d="M 2631 2963 
Q 2534 3019 2420 3045 
Q 2306 3072 2169 3072 
Q 1681 3072 1420 2755 
Q 1159 2438 1159 1844 
L 1159 0 
L 581 0 
L 581 3500 
L 1159 3500 
L 1159 2956 
Q 1341 3275 1631 3429 
Q 1922 3584 2338 3584 
Q 2397 3584 2469 3576 
Q 2541 3569 2628 3553 
L 2631 2963 
z
" transform="scale(0.015625)"/>
      <path id="DejaVuSans-73" d="M 2834 3397 
L 2834 2853 
Q 2591 2978 2328 3040 
Q 2066 3103 1784 3103 
Q 1356 3103 1142 2972 
Q 928 2841 928 2578 
Q 928 2378 1081 2264 
Q 1234 2150 1697 2047 
L 1894 2003 
Q 2506 1872 2764 1633 
Q 3022 1394 3022 966 
Q 3022 478 2636 193 
Q 2250 -91 1575 -91 
Q 1294 -91 989 -36 
Q 684 19 347 128 
L 347 722 
Q 666 556 975 473 
Q 1284 391 1588 391 
Q 1994 391 2212 530 
Q 2431 669 2431 922 
Q 2431 1156 2273 1281 
Q 2116 1406 1581 1522 
L 1381 1569 
Q 847 1681 609 1914 
Q 372 2147 372 2553 
Q 372 3047 722 3315 
Q 1072 3584 1716 3584 
Q 2034 3584 2315 3537 
Q 2597 3491 2834 3397 
z
" transform="scale(0.015625)"/>
     </defs>
     <use xlink:href="#DejaVuSans-52"/>
     <use xlink:href="#DejaVuSans-4d" transform="translate(69.482422 0)"/>
     <use xlink:href="#DejaVuSans-53" transform="translate(155.761719 0)"/>
     <use xlink:href="#DejaVuSans-45" transform="translate(219.238281 0)"/>
     <use xlink:href="#DejaVuSans-20" transform="translate(282.421875 0)"/>
     <use xlink:href="#DejaVuSans-4f" transform="translate(314.208984 0)"/>
     <use xlink:href="#DejaVuSans-76" transform="translate(392.919922 0)"/>
     <use xlink:href="#DejaVuSans-65" transform="translate(452.099609 0)"/>
     <use xlink:href="#DejaVuSans-72" transform="translate(513.623047 0)"/>
     <use xlink:href="#DejaVuSans-20" transform="translate(554.736328 0)"/>
     <use xlink:href="#DejaVuSans-45" transform="translate(586.523438 0)"/>
     <use xlink:href="#DejaVuSans-70" transform="translate(649.707031 0)"/>
     <use xlink:href="#DejaVuSans-6f" transform="translate(713.183594 0)"/>
     <use xlink:href="#DejaVuSans-63" transform="translate(774.365234 0)"/>
     <use xlink:href="#DejaVuSans-68" transform="translate(829.345703 0)"/>
     <use xlink:href="#DejaVuSans-73" transform="translate(892.724609 0)"/>
    </g>
   </g>
   <g id="legend_1">
    <g id="patch_7">
     <path d="M 538.126562 80.55625 
L 641 80.55625 
Q 643 80.55625 643 78.55625 
L 643 50.2 
Q 643 48.2 641 48.2 
L 538.126562 48.2 
Q 536.126562 48.2 536.126562 50.2 
L 536.126562 78.55625 
Q 536.126562 80.55625 538.126562 80.55625 
z
" style="fill: #ffffff; opacity: 0.8; stroke: #cccccc; stroke-linejoin: miter"/>
    </g>
    <g id="line2d_17">
     <path d="M 540.126562 56.298437 
L 550.126562 56.298437 
L 560.126562 56.298437 
" style="fill: none; stroke: #1f77b4; stroke-width: 1.5; stroke-linecap: square"/>
     <g>
      <use xlink:href="#ma413924023" x="550.126562" y="56.298437" style="fill: #1f77b4; stroke: #1f77b4"/>
     </g>
    </g>
    <g id="text_18">
     <!-- Training RMSE -->
     <g transform="translate(568.126562 59.798437) scale(0.1 -0.1)">
      <defs>
       <path id="DejaVuSans-54" d="M -19 4666 
L 3928 4666 
L 3928 4134 
L 2272 4134 
L 2272 0 
L 1638 0 
L 1638 4134 
L -19 4134 
L -19 4666 
z
" transform="scale(0.015625)"/>
       <path id="DejaVuSans-61" d="M 2194 1759 
Q 1497 1759 1228 1600 
Q 959 1441 959 1056 
Q 959 750 1161 570 
Q 1363 391 1709 391 
Q 2188 391 2477 730 
Q 2766 1069 2766 1631 
L 2766 1759 
L 2194 1759 
z
M 3341 1997 
L 3341 0 
L 2766 0 
L 2766 531 
Q 2569 213 2275 61 
Q 1981 -91 1556 -91 
Q 1019 -91 701 211 
Q 384 513 384 1019 
Q 384 1609 779 1909 
Q 1175 2209 1959 2209 
L 2766 2209 
L 2766 2266 
Q 2766 2663 2505 2880 
Q 2244 3097 1772 3097 
Q 1472 3097 1187 3025 
Q 903 2953 641 2809 
L 641 3341 
Q 956 3463 1253 3523 
Q 1550 3584 1831 3584 
Q 2591 3584 2966 3190 
Q 3341 2797 3341 1997 
z
" transform="scale(0.015625)"/>
       <path id="DejaVuSans-69" d="M 603 3500 
L 1178 3500 
L 1178 0 
L 603 0 
L 603 3500 
z
M 603 4863 
L 1178 4863 
L 1178 4134 
L 603 4134 
L 603 4863 
z
" transform="scale(0.015625)"/>
       <path id="DejaVuSans-6e" d="M 3513 2113 
L 3513 0 
L 2938 0 
L 2938 2094 
Q 2938 2591 2744 2837 
Q 2550 3084 2163 3084 
Q 1697 3084 1428 2787 
Q 1159 2491 1159 1978 
L 1159 0 
L 581 0 
L 581 3500 
L 1159 3500 
L 1159 2956 
Q 1366 3272 1645 3428 
Q 1925 3584 2291 3584 
Q 2894 3584 3203 3211 
Q 3513 2838 3513 2113 
z
" transform="scale(0.015625)"/>
       <path id="DejaVuSans-67" d="M 2906 1791 
Q 2906 2416 2648 2759 
Q 2391 3103 1925 3103 
Q 1463 3103 1205 2759 
Q 947 2416 947 1791 
Q 947 1169 1205 825 
Q 1463 481 1925 481 
Q 2391 481 2648 825 
Q 2906 1169 2906 1791 
z
M 3481 434 
Q 3481 -459 3084 -895 
Q 2688 -1331 1869 -1331 
Q 1566 -1331 1297 -1286 
Q 1028 -1241 775 -1147 
L 775 -588 
Q 1028 -725 1275 -790 
Q 1522 -856 1778 -856 
Q 2344 -856 2625 -561 
Q 2906 -266 2906 331 
L 2906 616 
Q 2728 306 2450 153 
Q 2172 0 1784 0 
Q 1141 0 747 490 
Q 353 981 353 1791 
Q 353 2603 747 3093 
Q 1141 3584 1784 3584 
Q 2172 3584 2450 3431 
Q 2728 3278 2906 2969 
L 2906 3500 
L 3481 3500 
L 3481 434 
z
" transform="scale(0.015625)"/>
      </defs>
      <use xlink:href="#DejaVuSans-54"/>
      <use xlink:href="#DejaVuSans-72" transform="translate(46.333984 0)"/>
      <use xlink:href="#DejaVuSans-61" transform="translate(87.447266 0)"/>
      <use xlink:href="#DejaVuSans-69" transform="translate(148.726562 0)"/>
      <use xlink:href="#DejaVuSans-6e" transform="translate(176.509766 0)"/>
      <use xlink:href="#DejaVuSans-69" transform="translate(239.888672 0)"/>
      <use xlink:href="#DejaVuSans-6e" transform="translate(267.671875 0)"/>
      <use xlink:href="#DejaVuSans-67" transform="translate(331.050781 0)"/>
      <use xlink:href="#DejaVuSans-20" transform="translate(394.527344 0)"/>
      <use xlink:href="#DejaVuSans-52" transform="translate(426.314453 0)"/>
      <use xlink:href="#DejaVuSans-4d" transform="translate(495.796875 0)"/>
      <use xlink:href="#DejaVuSans-53" transform="translate(582.076172 0)"/>
      <use xlink:href="#DejaVuSans-45" transform="translate(645.552734 0)"/>
     </g>
    </g>
    <g id="line2d_18">
     <path d="M 540.126562 70.976562 
L 550.126562 70.976562 
L 560.126562 70.976562 
" style="fill: none; stroke: #ff7f0e; stroke-width: 1.5; stroke-linecap: square"/>
     <g>
      <use xlink:href="#m85f3576f44" x="550.126562" y="70.976562" style="fill: #ff7f0e; stroke: #ff7f0e"/>
     </g>
    </g>
    <g id="text_19">
     <!-- Testing RMSE -->
     <g transform="translate(568.126562 74.476562) scale(0.1 -0.1)">
      <defs>
       <path id="DejaVuSans-74" d="M 1172 4494 
L 1172 3500 
L 2356 3500 
L 2356 3053 
L 1172 3053 
L 1172 1153 
Q 1172 725 1289 603 
Q 1406 481 1766 481 
L 2356 481 
L 2356 0 
L 1766 0 
Q 1100 0 847 248 
Q 594 497 594 1153 
L 594 3053 
L 172 3053 
L 172 3500 
L 594 3500 
L 594 4494 
L 1172 4494 
z
" transform="scale(0.015625)"/>
      </defs>
      <use xlink:href="#DejaVuSans-54"/>
      <use xlink:href="#DejaVuSans-65" transform="translate(44.083984 0)"/>
      <use xlink:href="#DejaVuSans-73" transform="translate(105.607422 0)"/>
      <use xlink:href="#DejaVuSans-74" transform="translate(157.707031 0)"/>
      <use xlink:href="#DejaVuSans-69" transform="translate(196.916016 0)"/>
      <use xlink:href="#DejaVuSans-6e" transform="translate(224.699219 0)"/>
      <use xlink:href="#DejaVuSans-67" transform="translate(288.078125 0)"/>
      <use xlink:href="#DejaVuSans-20" transform="translate(351.554688 0)"/>
      <use xlink:href="#DejaVuSans-52" transform="translate(383.341797 0)"/>
      <use xlink:href="#DejaVuSans-4d" transform="translate(452.824219 0)"/>
      <use xlink:href="#DejaVuSans-53" transform="translate(539.103516 0)"/>
      <use xlink:href="#DejaVuSans-45" transform="translate(602.580078 0)"/>
     </g>
    </g>
   </g>
  </g>
 </g>
 <defs>
  <clipPath id="pea6682ff40">
   <rect x="90" y="43.2" width="558" height="277.2"/>
  </clipPath>
 </defs>
</svg>
