<?xml version="1.0" encoding="utf-8" standalone="no"?>
<!DOCTYPE svg PUBLIC "-//W3C//DTD SVG 1.1//EN"
  "http://www.w3.org/Graphics/SVG/1.1/DTD/svg11.dtd">
<svg xmlns:xlink="http://www.w3.org/1999/xlink" width="576pt" height="360pt" viewBox="0 0 576 360" xmlns="http://www.w3.org/2000/svg" version="1.1">
 <metadata>
  <rdf:RDF xmlns:dc="http://purl.org/dc/elements/1.1/" xmlns:cc="http://creativecommons.org/ns#" xmlns:rdf="http://www.w3.org/1999/02/22-rdf-syntax-ns#">
   <cc:Work>
    <dc:type rdf:resource="http://purl.org/dc/dcmitype/StillImage"/>
    <dc:date>2025-07-16T15:38:03.373139</dc:date>
    <dc:format>image/svg+xml</dc:format>
    <dc:creator>
     <cc:Agent>
      <dc:title>Matplotlib v3.10.3, https://matplotlib.org/</dc:title>
     </cc:Agent>
    </dc:creator>
   </cc:Work>
  </rdf:RDF>
 </metadata>
 <defs>
  <style type="text/css">*{stroke-linejoin: round; stroke-linecap: butt}</style>
 </defs>
 <g id="figure_1">
  <g id="patch_1">
   <path d="M 0 360 
L 576 360 
L 576 0 
L 0 0 
z
" style="fill: #ffffff"/>
  </g>
  <g id="axes_1">
   <g id="patch_2">
    <path d="M 72 320.4 
L 518.4 320.4 
L 518.4 43.2 
L 72 43.2 
z
" style="fill: #ffffff"/>
   </g>
   <g id="PathCollection_1">
    <defs>
     <path id="mfe7eea7d0d" d="M 0 3 
C 0.795609 3 1.55874 2.683901 2.12132 2.12132 
C 2.683901 1.55874 3 0.795609 3 0 
C 3 -0.795609 2.683901 -1.55874 2.12132 -2.12132 
C 1.55874 -2.683901 0.795609 -3 0 -3 
C -0.795609 -3 -1.55874 -2.683901 -2.12132 -2.12132 
C -2.683901 -1.55874 -3 -0.795609 -3 0 
C -3 0.795609 -2.683901 1.55874 -2.12132 2.12132 
C -1.55874 2.683901 -0.795609 3 0 3 
z
" style="stroke: #1f77b4"/>
    </defs>
    <g clip-path="url(#p6c82383ebf)">
     <use xlink:href="#mfe7eea7d0d" x="181.923164" y="307.8" style="fill: #1f77b4; stroke: #1f77b4"/>
     <use xlink:href="#mfe7eea7d0d" x="200.661859" y="258.670326" style="fill: #1f77b4; stroke: #1f77b4"/>
     <use xlink:href="#mfe7eea7d0d" x="214.657975" y="144.594757" style="fill: #1f77b4; stroke: #1f77b4"/>
     <use xlink:href="#mfe7eea7d0d" x="225.833657" y="106.984285" style="fill: #1f77b4; stroke: #1f77b4"/>
     <use xlink:href="#mfe7eea7d0d" x="235.137175" y="88.709581" style="fill: #1f77b4; stroke: #1f77b4"/>
     <use xlink:href="#mfe7eea7d0d" x="243.106697" y="55.8" style="fill: #1f77b4; stroke: #1f77b4"/>
     <use xlink:href="#mfe7eea7d0d" x="250.077239" y="79.648862" style="fill: #1f77b4; stroke: #1f77b4"/>
     <use xlink:href="#mfe7eea7d0d" x="256.271579" y="85.558878" style="fill: #1f77b4; stroke: #1f77b4"/>
     <use xlink:href="#mfe7eea7d0d" x="261.845392" y="102.932946" style="fill: #1f77b4; stroke: #1f77b4"/>
     <use xlink:href="#mfe7eea7d0d" x="266.91176" y="76.868931" style="fill: #1f77b4; stroke: #1f77b4"/>
     <use xlink:href="#mfe7eea7d0d" x="271.55542" y="85.558878" style="fill: #1f77b4; stroke: #1f77b4"/>
     <use xlink:href="#mfe7eea7d0d" x="275.841507" y="99.100708" style="fill: #1f77b4; stroke: #1f77b4"/>
     <use xlink:href="#mfe7eea7d0d" x="279.821175" y="115.855741" style="fill: #1f77b4; stroke: #1f77b4"/>
     <use xlink:href="#mfe7eea7d0d" x="283.535328" y="160.410979" style="fill: #1f77b4; stroke: #1f77b4"/>
     <use xlink:href="#mfe7eea7d0d" x="287.01719" y="102.932946" style="fill: #1f77b4; stroke: #1f77b4"/>
     <use xlink:href="#mfe7eea7d0d" x="290.294114" y="137.839254" style="fill: #1f77b4; stroke: #1f77b4"/>
     <use xlink:href="#mfe7eea7d0d" x="293.388891" y="144.594757" style="fill: #1f77b4; stroke: #1f77b4"/>
     <use xlink:href="#mfe7eea7d0d" x="296.320708" y="169.875569" style="fill: #1f77b4; stroke: #1f77b4"/>
     <use xlink:href="#mfe7eea7d0d" x="299.105871" y="137.839254" style="fill: #1f77b4; stroke: #1f77b4"/>
     <use xlink:href="#mfe7eea7d0d" x="301.758355" y="144.594757" style="fill: #1f77b4; stroke: #1f77b4"/>
     <use xlink:href="#mfe7eea7d0d" x="304.29023" y="144.594757" style="fill: #1f77b4; stroke: #1f77b4"/>
     <use xlink:href="#mfe7eea7d0d" x="306.711988" y="169.875569" style="fill: #1f77b4; stroke: #1f77b4"/>
     <use xlink:href="#mfe7eea7d0d" x="309.032809" y="193.724431" style="fill: #1f77b4; stroke: #1f77b4"/>
     <use xlink:href="#mfe7eea7d0d" x="311.260772" y="193.724431" style="fill: #1f77b4; stroke: #1f77b4"/>
     <use xlink:href="#mfe7eea7d0d" x="313.403023" y="137.839254" style="fill: #1f77b4; stroke: #1f77b4"/>
     <use xlink:href="#mfe7eea7d0d" x="315.465912" y="160.410979" style="fill: #1f77b4; stroke: #1f77b4"/>
     <use xlink:href="#mfe7eea7d0d" x="317.455111" y="160.410979" style="fill: #1f77b4; stroke: #1f77b4"/>
     <use xlink:href="#mfe7eea7d0d" x="319.375703" y="209.540653" style="fill: #1f77b4; stroke: #1f77b4"/>
     <use xlink:href="#mfe7eea7d0d" x="321.232264" y="160.410979" style="fill: #1f77b4; stroke: #1f77b4"/>
     <use xlink:href="#mfe7eea7d0d" x="323.028924" y="193.724431" style="fill: #1f77b4; stroke: #1f77b4"/>
     <use xlink:href="#mfe7eea7d0d" x="324.76943" y="160.410979" style="fill: #1f77b4; stroke: #1f77b4"/>
     <use xlink:href="#mfe7eea7d0d" x="326.457185" y="180.801636" style="fill: #1f77b4; stroke: #1f77b4"/>
     <use xlink:href="#mfe7eea7d0d" x="328.095293" y="169.875569" style="fill: #1f77b4; stroke: #1f77b4"/>
     <use xlink:href="#mfe7eea7d0d" x="329.686591" y="229.93131" style="fill: #1f77b4; stroke: #1f77b4"/>
     <use xlink:href="#mfe7eea7d0d" x="331.233681" y="209.540653" style="fill: #1f77b4; stroke: #1f77b4"/>
     <use xlink:href="#mfe7eea7d0d" x="332.738953" y="169.875569" style="fill: #1f77b4; stroke: #1f77b4"/>
     <use xlink:href="#mfe7eea7d0d" x="334.204607" y="258.670326" style="fill: #1f77b4; stroke: #1f77b4"/>
     <use xlink:href="#mfe7eea7d0d" x="335.632676" y="229.93131" style="fill: #1f77b4; stroke: #1f77b4"/>
     <use xlink:href="#mfe7eea7d0d" x="337.02504" y="169.875569" style="fill: #1f77b4; stroke: #1f77b4"/>
     <use xlink:href="#mfe7eea7d0d" x="338.38344" y="307.8" style="fill: #1f77b4; stroke: #1f77b4"/>
     <use xlink:href="#mfe7eea7d0d" x="339.709495" y="180.801636" style="fill: #1f77b4; stroke: #1f77b4"/>
     <use xlink:href="#mfe7eea7d0d" x="341.004708" y="258.670326" style="fill: #1f77b4; stroke: #1f77b4"/>
     <use xlink:href="#mfe7eea7d0d" x="342.270482" y="258.670326" style="fill: #1f77b4; stroke: #1f77b4"/>
     <use xlink:href="#mfe7eea7d0d" x="343.508125" y="229.93131" style="fill: #1f77b4; stroke: #1f77b4"/>
     <use xlink:href="#mfe7eea7d0d" x="344.718861" y="209.540653" style="fill: #1f77b4; stroke: #1f77b4"/>
     <use xlink:href="#mfe7eea7d0d" x="347.064119" y="209.540653" style="fill: #1f77b4; stroke: #1f77b4"/>
     <use xlink:href="#mfe7eea7d0d" x="348.200722" y="193.724431" style="fill: #1f77b4; stroke: #1f77b4"/>
     <use xlink:href="#mfe7eea7d0d" x="349.314593" y="307.8" style="fill: #1f77b4; stroke: #1f77b4"/>
     <use xlink:href="#mfe7eea7d0d" x="350.406621" y="229.93131" style="fill: #1f77b4; stroke: #1f77b4"/>
     <use xlink:href="#mfe7eea7d0d" x="351.477647" y="307.8" style="fill: #1f77b4; stroke: #1f77b4"/>
     <use xlink:href="#mfe7eea7d0d" x="352.528464" y="193.724431" style="fill: #1f77b4; stroke: #1f77b4"/>
     <use xlink:href="#mfe7eea7d0d" x="353.559821" y="258.670326" style="fill: #1f77b4; stroke: #1f77b4"/>
     <use xlink:href="#mfe7eea7d0d" x="354.572424" y="307.8" style="fill: #1f77b4; stroke: #1f77b4"/>
     <use xlink:href="#mfe7eea7d0d" x="355.566944" y="193.724431" style="fill: #1f77b4; stroke: #1f77b4"/>
     <use xlink:href="#mfe7eea7d0d" x="356.544016" y="209.540653" style="fill: #1f77b4; stroke: #1f77b4"/>
     <use xlink:href="#mfe7eea7d0d" x="357.50424" y="258.670326" style="fill: #1f77b4; stroke: #1f77b4"/>
     <use xlink:href="#mfe7eea7d0d" x="358.448189" y="258.670326" style="fill: #1f77b4; stroke: #1f77b4"/>
     <use xlink:href="#mfe7eea7d0d" x="359.376405" y="258.670326" style="fill: #1f77b4; stroke: #1f77b4"/>
     <use xlink:href="#mfe7eea7d0d" x="360.289403" y="258.670326" style="fill: #1f77b4; stroke: #1f77b4"/>
     <use xlink:href="#mfe7eea7d0d" x="361.187675" y="258.670326" style="fill: #1f77b4; stroke: #1f77b4"/>
     <use xlink:href="#mfe7eea7d0d" x="362.071688" y="307.8" style="fill: #1f77b4; stroke: #1f77b4"/>
     <use xlink:href="#mfe7eea7d0d" x="362.941888" y="307.8" style="fill: #1f77b4; stroke: #1f77b4"/>
     <use xlink:href="#mfe7eea7d0d" x="363.7987" y="258.670326" style="fill: #1f77b4; stroke: #1f77b4"/>
     <use xlink:href="#mfe7eea7d0d" x="364.642529" y="307.8" style="fill: #1f77b4; stroke: #1f77b4"/>
     <use xlink:href="#mfe7eea7d0d" x="365.473763" y="258.670326" style="fill: #1f77b4; stroke: #1f77b4"/>
     <use xlink:href="#mfe7eea7d0d" x="366.292772" y="307.8" style="fill: #1f77b4; stroke: #1f77b4"/>
     <use xlink:href="#mfe7eea7d0d" x="367.099912" y="307.8" style="fill: #1f77b4; stroke: #1f77b4"/>
     <use xlink:href="#mfe7eea7d0d" x="367.89552" y="160.410979" style="fill: #1f77b4; stroke: #1f77b4"/>
     <use xlink:href="#mfe7eea7d0d" x="368.679923" y="258.670326" style="fill: #1f77b4; stroke: #1f77b4"/>
     <use xlink:href="#mfe7eea7d0d" x="371.711509" y="307.8" style="fill: #1f77b4; stroke: #1f77b4"/>
     <use xlink:href="#mfe7eea7d0d" x="372.444305" y="229.93131" style="fill: #1f77b4; stroke: #1f77b4"/>
     <use xlink:href="#mfe7eea7d0d" x="373.167583" y="229.93131" style="fill: #1f77b4; stroke: #1f77b4"/>
     <use xlink:href="#mfe7eea7d0d" x="373.881588" y="229.93131" style="fill: #1f77b4; stroke: #1f77b4"/>
     <use xlink:href="#mfe7eea7d0d" x="374.586556" y="307.8" style="fill: #1f77b4; stroke: #1f77b4"/>
     <use xlink:href="#mfe7eea7d0d" x="375.28271" y="307.8" style="fill: #1f77b4; stroke: #1f77b4"/>
     <use xlink:href="#mfe7eea7d0d" x="376.649445" y="307.8" style="fill: #1f77b4; stroke: #1f77b4"/>
     <use xlink:href="#mfe7eea7d0d" x="377.983441" y="307.8" style="fill: #1f77b4; stroke: #1f77b4"/>
     <use xlink:href="#mfe7eea7d0d" x="378.638644" y="307.8" style="fill: #1f77b4; stroke: #1f77b4"/>
     <use xlink:href="#mfe7eea7d0d" x="379.286229" y="229.93131" style="fill: #1f77b4; stroke: #1f77b4"/>
     <use xlink:href="#mfe7eea7d0d" x="380.559236" y="307.8" style="fill: #1f77b4; stroke: #1f77b4"/>
     <use xlink:href="#mfe7eea7d0d" x="381.803794" y="229.93131" style="fill: #1f77b4; stroke: #1f77b4"/>
     <use xlink:href="#mfe7eea7d0d" x="383.619987" y="229.93131" style="fill: #1f77b4; stroke: #1f77b4"/>
     <use xlink:href="#mfe7eea7d0d" x="384.212457" y="307.8" style="fill: #1f77b4; stroke: #1f77b4"/>
     <use xlink:href="#mfe7eea7d0d" x="384.798691" y="307.8" style="fill: #1f77b4; stroke: #1f77b4"/>
     <use xlink:href="#mfe7eea7d0d" x="385.378817" y="307.8" style="fill: #1f77b4; stroke: #1f77b4"/>
     <use xlink:href="#mfe7eea7d0d" x="386.52125" y="258.670326" style="fill: #1f77b4; stroke: #1f77b4"/>
     <use xlink:href="#mfe7eea7d0d" x="387.640718" y="307.8" style="fill: #1f77b4; stroke: #1f77b4"/>
     <use xlink:href="#mfe7eea7d0d" x="389.814327" y="307.8" style="fill: #1f77b4; stroke: #1f77b4"/>
     <use xlink:href="#mfe7eea7d0d" x="391.390611" y="307.8" style="fill: #1f77b4; stroke: #1f77b4"/>
     <use xlink:href="#mfe7eea7d0d" x="392.417214" y="258.670326" style="fill: #1f77b4; stroke: #1f77b4"/>
     <use xlink:href="#mfe7eea7d0d" x="392.923505" y="307.8" style="fill: #1f77b4; stroke: #1f77b4"/>
     <use xlink:href="#mfe7eea7d0d" x="393.425235" y="307.8" style="fill: #1f77b4; stroke: #1f77b4"/>
     <use xlink:href="#mfe7eea7d0d" x="394.415335" y="229.93131" style="fill: #1f77b4; stroke: #1f77b4"/>
     <use xlink:href="#mfe7eea7d0d" x="394.903861" y="307.8" style="fill: #1f77b4; stroke: #1f77b4"/>
     <use xlink:href="#mfe7eea7d0d" x="395.38814" y="307.8" style="fill: #1f77b4; stroke: #1f77b4"/>
     <use xlink:href="#mfe7eea7d0d" x="396.344243" y="229.93131" style="fill: #1f77b4; stroke: #1f77b4"/>
     <use xlink:href="#mfe7eea7d0d" x="396.816209" y="307.8" style="fill: #1f77b4; stroke: #1f77b4"/>
     <use xlink:href="#mfe7eea7d0d" x="397.748309" y="258.670326" style="fill: #1f77b4; stroke: #1f77b4"/>
     <use xlink:href="#mfe7eea7d0d" x="398.665064" y="307.8" style="fill: #1f77b4; stroke: #1f77b4"/>
     <use xlink:href="#mfe7eea7d0d" x="399.117844" y="307.8" style="fill: #1f77b4; stroke: #1f77b4"/>
     <use xlink:href="#mfe7eea7d0d" x="399.566973" y="258.670326" style="fill: #1f77b4; stroke: #1f77b4"/>
     <use xlink:href="#mfe7eea7d0d" x="400.012509" y="307.8" style="fill: #1f77b4; stroke: #1f77b4"/>
     <use xlink:href="#mfe7eea7d0d" x="400.893027" y="307.8" style="fill: #1f77b4; stroke: #1f77b4"/>
     <use xlink:href="#mfe7eea7d0d" x="401.759841" y="258.670326" style="fill: #1f77b4; stroke: #1f77b4"/>
     <use xlink:href="#mfe7eea7d0d" x="403.035278" y="258.670326" style="fill: #1f77b4; stroke: #1f77b4"/>
     <use xlink:href="#mfe7eea7d0d" x="404.282158" y="258.670326" style="fill: #1f77b4; stroke: #1f77b4"/>
     <use xlink:href="#mfe7eea7d0d" x="405.098168" y="307.8" style="fill: #1f77b4; stroke: #1f77b4"/>
     <use xlink:href="#mfe7eea7d0d" x="405.501732" y="307.8" style="fill: #1f77b4; stroke: #1f77b4"/>
     <use xlink:href="#mfe7eea7d0d" x="406.300193" y="258.670326" style="fill: #1f77b4; stroke: #1f77b4"/>
     <use xlink:href="#mfe7eea7d0d" x="406.69517" y="307.8" style="fill: #1f77b4; stroke: #1f77b4"/>
     <use xlink:href="#mfe7eea7d0d" x="407.47682" y="307.8" style="fill: #1f77b4; stroke: #1f77b4"/>
     <use xlink:href="#mfe7eea7d0d" x="407.86357" y="307.8" style="fill: #1f77b4; stroke: #1f77b4"/>
     <use xlink:href="#mfe7eea7d0d" x="409.758026" y="307.8" style="fill: #1f77b4; stroke: #1f77b4"/>
     <use xlink:href="#mfe7eea7d0d" x="410.498125" y="307.8" style="fill: #1f77b4; stroke: #1f77b4"/>
     <use xlink:href="#mfe7eea7d0d" x="412.66118" y="307.8" style="fill: #1f77b4; stroke: #1f77b4"/>
     <use xlink:href="#mfe7eea7d0d" x="413.01366" y="258.670326" style="fill: #1f77b4; stroke: #1f77b4"/>
     <use xlink:href="#mfe7eea7d0d" x="414.401686" y="307.8" style="fill: #1f77b4; stroke: #1f77b4"/>
     <use xlink:href="#mfe7eea7d0d" x="416.420939" y="307.8" style="fill: #1f77b4; stroke: #1f77b4"/>
     <use xlink:href="#mfe7eea7d0d" x="418.049466" y="307.8" style="fill: #1f77b4; stroke: #1f77b4"/>
     <use xlink:href="#mfe7eea7d0d" x="418.687773" y="307.8" style="fill: #1f77b4; stroke: #1f77b4"/>
     <use xlink:href="#mfe7eea7d0d" x="419.004204" y="307.8" style="fill: #1f77b4; stroke: #1f77b4"/>
     <use xlink:href="#mfe7eea7d0d" x="419.942849" y="307.8" style="fill: #1f77b4; stroke: #1f77b4"/>
     <use xlink:href="#mfe7eea7d0d" x="420.252248" y="307.8" style="fill: #1f77b4; stroke: #1f77b4"/>
     <use xlink:href="#mfe7eea7d0d" x="423.255221" y="307.8" style="fill: #1f77b4; stroke: #1f77b4"/>
     <use xlink:href="#mfe7eea7d0d" x="427.476305" y="307.8" style="fill: #1f77b4; stroke: #1f77b4"/>
     <use xlink:href="#mfe7eea7d0d" x="428.283445" y="307.8" style="fill: #1f77b4; stroke: #1f77b4"/>
     <use xlink:href="#mfe7eea7d0d" x="428.815111" y="307.8" style="fill: #1f77b4; stroke: #1f77b4"/>
     <use xlink:href="#mfe7eea7d0d" x="429.34175" y="307.8" style="fill: #1f77b4; stroke: #1f77b4"/>
     <use xlink:href="#mfe7eea7d0d" x="430.122487" y="307.8" style="fill: #1f77b4; stroke: #1f77b4"/>
     <use xlink:href="#mfe7eea7d0d" x="430.380319" y="307.8" style="fill: #1f77b4; stroke: #1f77b4"/>
     <use xlink:href="#mfe7eea7d0d" x="435.770088" y="307.8" style="fill: #1f77b4; stroke: #1f77b4"/>
     <use xlink:href="#mfe7eea7d0d" x="436.696374" y="307.8" style="fill: #1f77b4; stroke: #1f77b4"/>
     <use xlink:href="#mfe7eea7d0d" x="441.109902" y="258.670326" style="fill: #1f77b4; stroke: #1f77b4"/>
     <use xlink:href="#mfe7eea7d0d" x="443.192076" y="258.670326" style="fill: #1f77b4; stroke: #1f77b4"/>
     <use xlink:href="#mfe7eea7d0d" x="445.199199" y="307.8" style="fill: #1f77b4; stroke: #1f77b4"/>
     <use xlink:href="#mfe7eea7d0d" x="449.921659" y="307.8" style="fill: #1f77b4; stroke: #1f77b4"/>
     <use xlink:href="#mfe7eea7d0d" x="452.401188" y="307.8" style="fill: #1f77b4; stroke: #1f77b4"/>
     <use xlink:href="#mfe7eea7d0d" x="453.938785" y="307.8" style="fill: #1f77b4; stroke: #1f77b4"/>
     <use xlink:href="#mfe7eea7d0d" x="455.762186" y="307.8" style="fill: #1f77b4; stroke: #1f77b4"/>
     <use xlink:href="#mfe7eea7d0d" x="459.239106" y="307.8" style="fill: #1f77b4; stroke: #1f77b4"/>
     <use xlink:href="#mfe7eea7d0d" x="461.343765" y="307.8" style="fill: #1f77b4; stroke: #1f77b4"/>
     <use xlink:href="#mfe7eea7d0d" x="468.530838" y="307.8" style="fill: #1f77b4; stroke: #1f77b4"/>
     <use xlink:href="#mfe7eea7d0d" x="480.187737" y="307.8" style="fill: #1f77b4; stroke: #1f77b4"/>
     <use xlink:href="#mfe7eea7d0d" x="485.500498" y="307.8" style="fill: #1f77b4; stroke: #1f77b4"/>
     <use xlink:href="#mfe7eea7d0d" x="498.109091" y="307.8" style="fill: #1f77b4; stroke: #1f77b4"/>
    </g>
   </g>
   <g id="matplotlib.axis_1">
    <g id="xtick_1">
     <g id="line2d_1">
      <defs>
       <path id="me7b62b5dc8" d="M 0 0 
L 0 3.5 
" style="stroke: #000000; stroke-width: 0.8"/>
      </defs>
      <g>
       <use xlink:href="#me7b62b5dc8" x="130.89342" y="320.4" style="stroke: #000000; stroke-width: 0.8"/>
      </g>
     </g>
     <g id="text_1">
      <!-- $\mathdefault{10^{1}}$ -->
      <g transform="translate(122.09342 334.998438) scale(0.1 -0.1)">
       <defs>
        <path id="DejaVuSans-31" d="M 794 531 
L 1825 531 
L 1825 4091 
L 703 3866 
L 703 4441 
L 1819 4666 
L 2450 4666 
L 2450 531 
L 3481 531 
L 3481 0 
L 794 0 
L 794 531 
z
" transform="scale(0.015625)"/>
        <path id="DejaVuSans-30" d="M 2034 4250 
Q 1547 4250 1301 3770 
Q 1056 3291 1056 2328 
Q 1056 1369 1301 889 
Q 1547 409 2034 409 
Q 2525 409 2770 889 
Q 3016 1369 3016 2328 
Q 3016 3291 2770 3770 
Q 2525 4250 2034 4250 
z
M 2034 4750 
Q 2819 4750 3233 4129 
Q 3647 3509 3647 2328 
Q 3647 1150 3233 529 
Q 2819 -91 2034 -91 
Q 1250 -91 836 529 
Q 422 1150 422 2328 
Q 422 3509 836 4129 
Q 1250 4750 2034 4750 
z
" transform="scale(0.015625)"/>
       </defs>
       <use xlink:href="#DejaVuSans-31" transform="translate(0 0.684375)"/>
       <use xlink:href="#DejaVuSans-30" transform="translate(63.623047 0.684375)"/>
       <use xlink:href="#DejaVuSans-31" transform="translate(128.203125 38.965625) scale(0.7)"/>
      </g>
     </g>
    </g>
    <g id="xtick_2">
     <g id="line2d_2">
      <g>
       <use xlink:href="#me7b62b5dc8" x="259.128187" y="320.4" style="stroke: #000000; stroke-width: 0.8"/>
      </g>
     </g>
     <g id="text_2">
      <!-- $\mathdefault{10^{2}}$ -->
      <g transform="translate(250.328187 334.998438) scale(0.1 -0.1)">
       <defs>
        <path id="DejaVuSans-32" d="M 1228 531 
L 3431 531 
L 3431 0 
L 469 0 
L 469 531 
Q 828 903 1448 1529 
Q 2069 2156 2228 2338 
Q 2531 2678 2651 2914 
Q 2772 3150 2772 3378 
Q 2772 3750 2511 3984 
Q 2250 4219 1831 4219 
Q 1534 4219 1204 4116 
Q 875 4013 500 3803 
L 500 4441 
Q 881 4594 1212 4672 
Q 1544 4750 1819 4750 
Q 2544 4750 2975 4387 
Q 3406 4025 3406 3419 
Q 3406 3131 3298 2873 
Q 3191 2616 2906 2266 
Q 2828 2175 2409 1742 
Q 1991 1309 1228 531 
z
" transform="scale(0.015625)"/>
       </defs>
       <use xlink:href="#DejaVuSans-31" transform="translate(0 0.765625)"/>
       <use xlink:href="#DejaVuSans-30" transform="translate(63.623047 0.765625)"/>
       <use xlink:href="#DejaVuSans-32" transform="translate(128.203125 39.046875) scale(0.7)"/>
      </g>
     </g>
    </g>
    <g id="xtick_3">
     <g id="line2d_3">
      <g>
       <use xlink:href="#me7b62b5dc8" x="387.362954" y="320.4" style="stroke: #000000; stroke-width: 0.8"/>
      </g>
     </g>
     <g id="text_3">
      <!-- $\mathdefault{10^{3}}$ -->
      <g transform="translate(378.562954 334.998438) scale(0.1 -0.1)">
       <defs>
        <path id="DejaVuSans-33" d="M 2597 2516 
Q 3050 2419 3304 2112 
Q 3559 1806 3559 1356 
Q 3559 666 3084 287 
Q 2609 -91 1734 -91 
Q 1441 -91 1130 -33 
Q 819 25 488 141 
L 488 750 
Q 750 597 1062 519 
Q 1375 441 1716 441 
Q 2309 441 2620 675 
Q 2931 909 2931 1356 
Q 2931 1769 2642 2001 
Q 2353 2234 1838 2234 
L 1294 2234 
L 1294 2753 
L 1863 2753 
Q 2328 2753 2575 2939 
Q 2822 3125 2822 3475 
Q 2822 3834 2567 4026 
Q 2313 4219 1838 4219 
Q 1578 4219 1281 4162 
Q 984 4106 628 3988 
L 628 4550 
Q 988 4650 1302 4700 
Q 1616 4750 1894 4750 
Q 2613 4750 3031 4423 
Q 3450 4097 3450 3541 
Q 3450 3153 3228 2886 
Q 3006 2619 2597 2516 
z
" transform="scale(0.015625)"/>
       </defs>
       <use xlink:href="#DejaVuSans-31" transform="translate(0 0.765625)"/>
       <use xlink:href="#DejaVuSans-30" transform="translate(63.623047 0.765625)"/>
       <use xlink:href="#DejaVuSans-33" transform="translate(128.203125 39.046875) scale(0.7)"/>
      </g>
     </g>
    </g>
    <g id="xtick_4">
     <g id="line2d_4">
      <g>
       <use xlink:href="#me7b62b5dc8" x="515.59772" y="320.4" style="stroke: #000000; stroke-width: 0.8"/>
      </g>
     </g>
     <g id="text_4">
      <!-- $\mathdefault{10^{4}}$ -->
      <g transform="translate(506.79772 334.998438) scale(0.1 -0.1)">
       <defs>
        <path id="DejaVuSans-34" d="M 2419 4116 
L 825 1625 
L 2419 1625 
L 2419 4116 
z
M 2253 4666 
L 3047 4666 
L 3047 1625 
L 3713 1625 
L 3713 1100 
L 3047 1100 
L 3047 0 
L 2419 0 
L 2419 1100 
L 313 1100 
L 313 1709 
L 2253 4666 
z
" transform="scale(0.015625)"/>
       </defs>
       <use xlink:href="#DejaVuSans-31" transform="translate(0 0.684375)"/>
       <use xlink:href="#DejaVuSans-30" transform="translate(63.623047 0.684375)"/>
       <use xlink:href="#DejaVuSans-34" transform="translate(128.203125 38.965625) scale(0.7)"/>
      </g>
     </g>
    </g>
    <g id="xtick_5">
     <g id="line2d_5">
      <defs>
       <path id="meb7ccf3a8f" d="M 0 0 
L 0 2 
" style="stroke: #000000; stroke-width: 0.6"/>
      </defs>
      <g>
       <use xlink:href="#meb7ccf3a8f" x="79.863676" y="320.4" style="stroke: #000000; stroke-width: 0.6"/>
      </g>
     </g>
    </g>
    <g id="xtick_6">
     <g id="line2d_6">
      <g>
       <use xlink:href="#meb7ccf3a8f" x="92.290909" y="320.4" style="stroke: #000000; stroke-width: 0.6"/>
      </g>
     </g>
    </g>
    <g id="xtick_7">
     <g id="line2d_7">
      <g>
       <use xlink:href="#meb7ccf3a8f" x="102.444698" y="320.4" style="stroke: #000000; stroke-width: 0.6"/>
      </g>
     </g>
    </g>
    <g id="xtick_8">
     <g id="line2d_8">
      <g>
       <use xlink:href="#meb7ccf3a8f" x="111.029604" y="320.4" style="stroke: #000000; stroke-width: 0.6"/>
      </g>
     </g>
    </g>
    <g id="xtick_9">
     <g id="line2d_9">
      <g>
       <use xlink:href="#meb7ccf3a8f" x="118.466187" y="320.4" style="stroke: #000000; stroke-width: 0.6"/>
      </g>
     </g>
    </g>
    <g id="xtick_10">
     <g id="line2d_10">
      <g>
       <use xlink:href="#meb7ccf3a8f" x="125.025719" y="320.4" style="stroke: #000000; stroke-width: 0.6"/>
      </g>
     </g>
    </g>
    <g id="xtick_11">
     <g id="line2d_11">
      <g>
       <use xlink:href="#meb7ccf3a8f" x="169.495932" y="320.4" style="stroke: #000000; stroke-width: 0.6"/>
      </g>
     </g>
    </g>
    <g id="xtick_12">
     <g id="line2d_12">
      <g>
       <use xlink:href="#meb7ccf3a8f" x="192.076953" y="320.4" style="stroke: #000000; stroke-width: 0.6"/>
      </g>
     </g>
    </g>
    <g id="xtick_13">
     <g id="line2d_13">
      <g>
       <use xlink:href="#meb7ccf3a8f" x="208.098443" y="320.4" style="stroke: #000000; stroke-width: 0.6"/>
      </g>
     </g>
    </g>
    <g id="xtick_14">
     <g id="line2d_14">
      <g>
       <use xlink:href="#meb7ccf3a8f" x="220.525676" y="320.4" style="stroke: #000000; stroke-width: 0.6"/>
      </g>
     </g>
    </g>
    <g id="xtick_15">
     <g id="line2d_15">
      <g>
       <use xlink:href="#meb7ccf3a8f" x="230.679464" y="320.4" style="stroke: #000000; stroke-width: 0.6"/>
      </g>
     </g>
    </g>
    <g id="xtick_16">
     <g id="line2d_16">
      <g>
       <use xlink:href="#meb7ccf3a8f" x="239.26437" y="320.4" style="stroke: #000000; stroke-width: 0.6"/>
      </g>
     </g>
    </g>
    <g id="xtick_17">
     <g id="line2d_17">
      <g>
       <use xlink:href="#meb7ccf3a8f" x="246.700954" y="320.4" style="stroke: #000000; stroke-width: 0.6"/>
      </g>
     </g>
    </g>
    <g id="xtick_18">
     <g id="line2d_18">
      <g>
       <use xlink:href="#meb7ccf3a8f" x="253.260486" y="320.4" style="stroke: #000000; stroke-width: 0.6"/>
      </g>
     </g>
    </g>
    <g id="xtick_19">
     <g id="line2d_19">
      <g>
       <use xlink:href="#meb7ccf3a8f" x="297.730698" y="320.4" style="stroke: #000000; stroke-width: 0.6"/>
      </g>
     </g>
    </g>
    <g id="xtick_20">
     <g id="line2d_20">
      <g>
       <use xlink:href="#meb7ccf3a8f" x="320.31172" y="320.4" style="stroke: #000000; stroke-width: 0.6"/>
      </g>
     </g>
    </g>
    <g id="xtick_21">
     <g id="line2d_21">
      <g>
       <use xlink:href="#meb7ccf3a8f" x="336.333209" y="320.4" style="stroke: #000000; stroke-width: 0.6"/>
      </g>
     </g>
    </g>
    <g id="xtick_22">
     <g id="line2d_22">
      <g>
       <use xlink:href="#meb7ccf3a8f" x="348.760442" y="320.4" style="stroke: #000000; stroke-width: 0.6"/>
      </g>
     </g>
    </g>
    <g id="xtick_23">
     <g id="line2d_23">
      <g>
       <use xlink:href="#meb7ccf3a8f" x="358.914231" y="320.4" style="stroke: #000000; stroke-width: 0.6"/>
      </g>
     </g>
    </g>
    <g id="xtick_24">
     <g id="line2d_24">
      <g>
       <use xlink:href="#meb7ccf3a8f" x="367.499137" y="320.4" style="stroke: #000000; stroke-width: 0.6"/>
      </g>
     </g>
    </g>
    <g id="xtick_25">
     <g id="line2d_25">
      <g>
       <use xlink:href="#meb7ccf3a8f" x="374.935721" y="320.4" style="stroke: #000000; stroke-width: 0.6"/>
      </g>
     </g>
    </g>
    <g id="xtick_26">
     <g id="line2d_26">
      <g>
       <use xlink:href="#meb7ccf3a8f" x="381.495252" y="320.4" style="stroke: #000000; stroke-width: 0.6"/>
      </g>
     </g>
    </g>
    <g id="xtick_27">
     <g id="line2d_27">
      <g>
       <use xlink:href="#meb7ccf3a8f" x="425.965465" y="320.4" style="stroke: #000000; stroke-width: 0.6"/>
      </g>
     </g>
    </g>
    <g id="xtick_28">
     <g id="line2d_28">
      <g>
       <use xlink:href="#meb7ccf3a8f" x="448.546486" y="320.4" style="stroke: #000000; stroke-width: 0.6"/>
      </g>
     </g>
    </g>
    <g id="xtick_29">
     <g id="line2d_29">
      <g>
       <use xlink:href="#meb7ccf3a8f" x="464.567976" y="320.4" style="stroke: #000000; stroke-width: 0.6"/>
      </g>
     </g>
    </g>
    <g id="xtick_30">
     <g id="line2d_30">
      <g>
       <use xlink:href="#meb7ccf3a8f" x="476.995209" y="320.4" style="stroke: #000000; stroke-width: 0.6"/>
      </g>
     </g>
    </g>
    <g id="xtick_31">
     <g id="line2d_31">
      <g>
       <use xlink:href="#meb7ccf3a8f" x="487.148998" y="320.4" style="stroke: #000000; stroke-width: 0.6"/>
      </g>
     </g>
    </g>
    <g id="xtick_32">
     <g id="line2d_32">
      <g>
       <use xlink:href="#meb7ccf3a8f" x="495.733903" y="320.4" style="stroke: #000000; stroke-width: 0.6"/>
      </g>
     </g>
    </g>
    <g id="xtick_33">
     <g id="line2d_33">
      <g>
       <use xlink:href="#meb7ccf3a8f" x="503.170487" y="320.4" style="stroke: #000000; stroke-width: 0.6"/>
      </g>
     </g>
    </g>
    <g id="xtick_34">
     <g id="line2d_34">
      <g>
       <use xlink:href="#meb7ccf3a8f" x="509.730019" y="320.4" style="stroke: #000000; stroke-width: 0.6"/>
      </g>
     </g>
    </g>
    <g id="text_5">
     <!-- Rating -->
     <g transform="translate(279.082031 348.676562) scale(0.1 -0.1)">
      <defs>
       <path id="DejaVuSans-52" d="M 2841 2188 
Q 3044 2119 3236 1894 
Q 3428 1669 3622 1275 
L 4263 0 
L 3584 0 
L 2988 1197 
Q 2756 1666 2539 1819 
Q 2322 1972 1947 1972 
L 1259 1972 
L 1259 0 
L 628 0 
L 628 4666 
L 2053 4666 
Q 2853 4666 3247 4331 
Q 3641 3997 3641 3322 
Q 3641 2881 3436 2590 
Q 3231 2300 2841 2188 
z
M 1259 4147 
L 1259 2491 
L 2053 2491 
Q 2509 2491 2742 2702 
Q 2975 2913 2975 3322 
Q 2975 3731 2742 3939 
Q 2509 4147 2053 4147 
L 1259 4147 
z
" transform="scale(0.015625)"/>
       <path id="DejaVuSans-61" d="M 2194 1759 
Q 1497 1759 1228 1600 
Q 959 1441 959 1056 
Q 959 750 1161 570 
Q 1363 391 1709 391 
Q 2188 391 2477 730 
Q 2766 1069 2766 1631 
L 2766 1759 
L 2194 1759 
z
M 3341 1997 
L 3341 0 
L 2766 0 
L 2766 531 
Q 2569 213 2275 61 
Q 1981 -91 1556 -91 
Q 1019 -91 701 211 
Q 384 513 384 1019 
Q 384 1609 779 1909 
Q 1175 2209 1959 2209 
L 2766 2209 
L 2766 2266 
Q 2766 2663 2505 2880 
Q 2244 3097 1772 3097 
Q 1472 3097 1187 3025 
Q 903 2953 641 2809 
L 641 3341 
Q 956 3463 1253 3523 
Q 1550 3584 1831 3584 
Q 2591 3584 2966 3190 
Q 3341 2797 3341 1997 
z
" transform="scale(0.015625)"/>
       <path id="DejaVuSans-74" d="M 1172 4494 
L 1172 3500 
L 2356 3500 
L 2356 3053 
L 1172 3053 
L 1172 1153 
Q 1172 725 1289 603 
Q 1406 481 1766 481 
L 2356 481 
L 2356 0 
L 1766 0 
Q 1100 0 847 248 
Q 594 497 594 1153 
L 594 3053 
L 172 3053 
L 172 3500 
L 594 3500 
L 594 4494 
L 1172 4494 
z
" transform="scale(0.015625)"/>
       <path id="DejaVuSans-69" d="M 603 3500 
L 1178 3500 
L 1178 0 
L 603 0 
L 603 3500 
z
M 603 4863 
L 1178 4863 
L 1178 4134 
L 603 4134 
L 603 4863 
z
" transform="scale(0.015625)"/>
       <path id="DejaVuSans-6e" d="M 3513 2113 
L 3513 0 
L 2938 0 
L 2938 2094 
Q 2938 2591 2744 2837 
Q 2550 3084 2163 3084 
Q 1697 3084 1428 2787 
Q 1159 2491 1159 1978 
L 1159 0 
L 581 0 
L 581 3500 
L 1159 3500 
L 1159 2956 
Q 1366 3272 1645 3428 
Q 1925 3584 2291 3584 
Q 2894 3584 3203 3211 
Q 3513 2838 3513 2113 
z
" transform="scale(0.015625)"/>
       <path id="DejaVuSans-67" d="M 2906 1791 
Q 2906 2416 2648 2759 
Q 2391 3103 1925 3103 
Q 1463 3103 1205 2759 
Q 947 2416 947 1791 
Q 947 1169 1205 825 
Q 1463 481 1925 481 
Q 2391 481 2648 825 
Q 2906 1169 2906 1791 
z
M 3481 434 
Q 3481 -459 3084 -895 
Q 2688 -1331 1869 -1331 
Q 1566 -1331 1297 -1286 
Q 1028 -1241 775 -1147 
L 775 -588 
Q 1028 -725 1275 -790 
Q 1522 -856 1778 -856 
Q 2344 -856 2625 -561 
Q 2906 -266 2906 331 
L 2906 616 
Q 2728 306 2450 153 
Q 2172 0 1784 0 
Q 1141 0 747 490 
Q 353 981 353 1791 
Q 353 2603 747 3093 
Q 1141 3584 1784 3584 
Q 2172 3584 2450 3431 
Q 2728 3278 2906 2969 
L 2906 3500 
L 3481 3500 
L 3481 434 
z
" transform="scale(0.015625)"/>
      </defs>
      <use xlink:href="#DejaVuSans-52"/>
      <use xlink:href="#DejaVuSans-61" transform="translate(67.232422 0)"/>
      <use xlink:href="#DejaVuSans-74" transform="translate(128.511719 0)"/>
      <use xlink:href="#DejaVuSans-69" transform="translate(167.720703 0)"/>
      <use xlink:href="#DejaVuSans-6e" transform="translate(195.503906 0)"/>
      <use xlink:href="#DejaVuSans-67" transform="translate(258.882812 0)"/>
     </g>
    </g>
   </g>
   <g id="matplotlib.axis_2">
    <g id="ytick_1">
     <g id="line2d_35">
      <defs>
       <path id="m80449077b4" d="M 0 0 
L -3.5 0 
" style="stroke: #000000; stroke-width: 0.8"/>
      </defs>
      <g>
       <use xlink:href="#m80449077b4" x="72" y="307.8" style="stroke: #000000; stroke-width: 0.8"/>
      </g>
     </g>
     <g id="text_6">
      <!-- $\mathdefault{10^{0}}$ -->
      <g transform="translate(47.4 311.599219) scale(0.1 -0.1)">
       <use xlink:href="#DejaVuSans-31" transform="translate(0 0.765625)"/>
       <use xlink:href="#DejaVuSans-30" transform="translate(63.623047 0.765625)"/>
       <use xlink:href="#DejaVuSans-30" transform="translate(128.203125 39.046875) scale(0.7)"/>
      </g>
     </g>
    </g>
    <g id="ytick_2">
     <g id="line2d_36">
      <g>
       <use xlink:href="#m80449077b4" x="72" y="144.594757" style="stroke: #000000; stroke-width: 0.8"/>
      </g>
     </g>
     <g id="text_7">
      <!-- $\mathdefault{10^{1}}$ -->
      <g transform="translate(47.4 148.393976) scale(0.1 -0.1)">
       <use xlink:href="#DejaVuSans-31" transform="translate(0 0.684375)"/>
       <use xlink:href="#DejaVuSans-30" transform="translate(63.623047 0.684375)"/>
       <use xlink:href="#DejaVuSans-31" transform="translate(128.203125 38.965625) scale(0.7)"/>
      </g>
     </g>
    </g>
    <g id="ytick_3">
     <g id="line2d_37">
      <defs>
       <path id="m95fd4fa84a" d="M 0 0 
L -2 0 
" style="stroke: #000000; stroke-width: 0.6"/>
      </defs>
      <g>
       <use xlink:href="#m95fd4fa84a" x="72" y="315.267862" style="stroke: #000000; stroke-width: 0.6"/>
      </g>
     </g>
    </g>
    <g id="ytick_4">
     <g id="line2d_38">
      <g>
       <use xlink:href="#m95fd4fa84a" x="72" y="258.670326" style="stroke: #000000; stroke-width: 0.6"/>
      </g>
     </g>
    </g>
    <g id="ytick_5">
     <g id="line2d_39">
      <g>
       <use xlink:href="#m95fd4fa84a" x="72" y="229.93131" style="stroke: #000000; stroke-width: 0.6"/>
      </g>
     </g>
    </g>
    <g id="ytick_6">
     <g id="line2d_40">
      <g>
       <use xlink:href="#m95fd4fa84a" x="72" y="209.540653" style="stroke: #000000; stroke-width: 0.6"/>
      </g>
     </g>
    </g>
    <g id="ytick_7">
     <g id="line2d_41">
      <g>
       <use xlink:href="#m95fd4fa84a" x="72" y="193.724431" style="stroke: #000000; stroke-width: 0.6"/>
      </g>
     </g>
    </g>
    <g id="ytick_8">
     <g id="line2d_42">
      <g>
       <use xlink:href="#m95fd4fa84a" x="72" y="180.801636" style="stroke: #000000; stroke-width: 0.6"/>
      </g>
     </g>
    </g>
    <g id="ytick_9">
     <g id="line2d_43">
      <g>
       <use xlink:href="#m95fd4fa84a" x="72" y="169.875569" style="stroke: #000000; stroke-width: 0.6"/>
      </g>
     </g>
    </g>
    <g id="ytick_10">
     <g id="line2d_44">
      <g>
       <use xlink:href="#m95fd4fa84a" x="72" y="160.410979" style="stroke: #000000; stroke-width: 0.6"/>
      </g>
     </g>
    </g>
    <g id="ytick_11">
     <g id="line2d_45">
      <g>
       <use xlink:href="#m95fd4fa84a" x="72" y="152.06262" style="stroke: #000000; stroke-width: 0.6"/>
      </g>
     </g>
    </g>
    <g id="ytick_12">
     <g id="line2d_46">
      <g>
       <use xlink:href="#m95fd4fa84a" x="72" y="95.465084" style="stroke: #000000; stroke-width: 0.6"/>
      </g>
     </g>
    </g>
    <g id="ytick_13">
     <g id="line2d_47">
      <g>
       <use xlink:href="#m95fd4fa84a" x="72" y="66.726067" style="stroke: #000000; stroke-width: 0.6"/>
      </g>
     </g>
    </g>
    <g id="ytick_14">
     <g id="line2d_48">
      <g>
       <use xlink:href="#m95fd4fa84a" x="72" y="46.33541" style="stroke: #000000; stroke-width: 0.6"/>
      </g>
     </g>
    </g>
    <g id="text_8">
     <!-- Frequency -->
     <g transform="translate(41.320312 207.629687) rotate(-90) scale(0.1 -0.1)">
      <defs>
       <path id="DejaVuSans-46" d="M 628 4666 
L 3309 4666 
L 3309 4134 
L 1259 4134 
L 1259 2759 
L 3109 2759 
L 3109 2228 
L 1259 2228 
L 1259 0 
L 628 0 
L 628 4666 
z
" transform="scale(0.015625)"/>
       <path id="DejaVuSans-72" d="M 2631 2963 
Q 2534 3019 2420 3045 
Q 2306 3072 2169 3072 
Q 1681 3072 1420 2755 
Q 1159 2438 1159 1844 
L 1159 0 
L 581 0 
L 581 3500 
L 1159 3500 
L 1159 2956 
Q 1341 3275 1631 3429 
Q 1922 3584 2338 3584 
Q 2397 3584 2469 3576 
Q 2541 3569 2628 3553 
L 2631 2963 
z
" transform="scale(0.015625)"/>
       <path id="DejaVuSans-65" d="M 3597 1894 
L 3597 1613 
L 953 1613 
Q 991 1019 1311 708 
Q 1631 397 2203 397 
Q 2534 397 2845 478 
Q 3156 559 3463 722 
L 3463 178 
Q 3153 47 2828 -22 
Q 2503 -91 2169 -91 
Q 1331 -91 842 396 
Q 353 884 353 1716 
Q 353 2575 817 3079 
Q 1281 3584 2069 3584 
Q 2775 3584 3186 3129 
Q 3597 2675 3597 1894 
z
M 3022 2063 
Q 3016 2534 2758 2815 
Q 2500 3097 2075 3097 
Q 1594 3097 1305 2825 
Q 1016 2553 972 2059 
L 3022 2063 
z
" transform="scale(0.015625)"/>
       <path id="DejaVuSans-71" d="M 947 1747 
Q 947 1113 1208 752 
Q 1469 391 1925 391 
Q 2381 391 2643 752 
Q 2906 1113 2906 1747 
Q 2906 2381 2643 2742 
Q 2381 3103 1925 3103 
Q 1469 3103 1208 2742 
Q 947 2381 947 1747 
z
M 2906 525 
Q 2725 213 2448 61 
Q 2172 -91 1784 -91 
Q 1150 -91 751 415 
Q 353 922 353 1747 
Q 353 2572 751 3078 
Q 1150 3584 1784 3584 
Q 2172 3584 2448 3432 
Q 2725 3281 2906 2969 
L 2906 3500 
L 3481 3500 
L 3481 -1331 
L 2906 -1331 
L 2906 525 
z
" transform="scale(0.015625)"/>
       <path id="DejaVuSans-75" d="M 544 1381 
L 544 3500 
L 1119 3500 
L 1119 1403 
Q 1119 906 1312 657 
Q 1506 409 1894 409 
Q 2359 409 2629 706 
Q 2900 1003 2900 1516 
L 2900 3500 
L 3475 3500 
L 3475 0 
L 2900 0 
L 2900 538 
Q 2691 219 2414 64 
Q 2138 -91 1772 -91 
Q 1169 -91 856 284 
Q 544 659 544 1381 
z
M 1991 3584 
L 1991 3584 
z
" transform="scale(0.015625)"/>
       <path id="DejaVuSans-63" d="M 3122 3366 
L 3122 2828 
Q 2878 2963 2633 3030 
Q 2388 3097 2138 3097 
Q 1578 3097 1268 2742 
Q 959 2388 959 1747 
Q 959 1106 1268 751 
Q 1578 397 2138 397 
Q 2388 397 2633 464 
Q 2878 531 3122 666 
L 3122 134 
Q 2881 22 2623 -34 
Q 2366 -91 2075 -91 
Q 1284 -91 818 406 
Q 353 903 353 1747 
Q 353 2603 823 3093 
Q 1294 3584 2113 3584 
Q 2378 3584 2631 3529 
Q 2884 3475 3122 3366 
z
" transform="scale(0.015625)"/>
       <path id="DejaVuSans-79" d="M 2059 -325 
Q 1816 -950 1584 -1140 
Q 1353 -1331 966 -1331 
L 506 -1331 
L 506 -850 
L 844 -850 
Q 1081 -850 1212 -737 
Q 1344 -625 1503 -206 
L 1606 56 
L 191 3500 
L 800 3500 
L 1894 763 
L 2988 3500 
L 3597 3500 
L 2059 -325 
z
" transform="scale(0.015625)"/>
      </defs>
      <use xlink:href="#DejaVuSans-46"/>
      <use xlink:href="#DejaVuSans-72" transform="translate(50.269531 0)"/>
      <use xlink:href="#DejaVuSans-65" transform="translate(89.132812 0)"/>
      <use xlink:href="#DejaVuSans-71" transform="translate(150.65625 0)"/>
      <use xlink:href="#DejaVuSans-75" transform="translate(214.132812 0)"/>
      <use xlink:href="#DejaVuSans-65" transform="translate(277.511719 0)"/>
      <use xlink:href="#DejaVuSans-6e" transform="translate(339.035156 0)"/>
      <use xlink:href="#DejaVuSans-63" transform="translate(402.414062 0)"/>
      <use xlink:href="#DejaVuSans-79" transform="translate(457.394531 0)"/>
     </g>
    </g>
   </g>
   <g id="patch_3">
    <path d="M 72 320.4 
L 72 43.2 
" style="fill: none; stroke: #000000; stroke-width: 0.8; stroke-linejoin: miter; stroke-linecap: square"/>
   </g>
   <g id="patch_4">
    <path d="M 518.4 320.4 
L 518.4 43.2 
" style="fill: none; stroke: #000000; stroke-width: 0.8; stroke-linejoin: miter; stroke-linecap: square"/>
   </g>
   <g id="patch_5">
    <path d="M 72 320.4 
L 518.4 320.4 
" style="fill: none; stroke: #000000; stroke-width: 0.8; stroke-linejoin: miter; stroke-linecap: square"/>
   </g>
   <g id="patch_6">
    <path d="M 72 43.2 
L 518.4 43.2 
" style="fill: none; stroke: #000000; stroke-width: 0.8; stroke-linejoin: miter; stroke-linecap: square"/>
   </g>
   <g id="text_9">
    <!-- User Rating Distribution -->
    <g transform="translate(223.366875 37.2) scale(0.12 -0.12)">
     <defs>
      <path id="DejaVuSans-55" d="M 556 4666 
L 1191 4666 
L 1191 1831 
Q 1191 1081 1462 751 
Q 1734 422 2344 422 
Q 2950 422 3222 751 
Q 3494 1081 3494 1831 
L 3494 4666 
L 4128 4666 
L 4128 1753 
Q 4128 841 3676 375 
Q 3225 -91 2344 -91 
Q 1459 -91 1007 375 
Q 556 841 556 1753 
L 556 4666 
z
" transform="scale(0.015625)"/>
      <path id="DejaVuSans-73" d="M 2834 3397 
L 2834 2853 
Q 2591 2978 2328 3040 
Q 2066 3103 1784 3103 
Q 1356 3103 1142 2972 
Q 928 2841 928 2578 
Q 928 2378 1081 2264 
Q 1234 2150 1697 2047 
L 1894 2003 
Q 2506 1872 2764 1633 
Q 3022 1394 3022 966 
Q 3022 478 2636 193 
Q 2250 -91 1575 -91 
Q 1294 -91 989 -36 
Q 684 19 347 128 
L 347 722 
Q 666 556 975 473 
Q 1284 391 1588 391 
Q 1994 391 2212 530 
Q 2431 669 2431 922 
Q 2431 1156 2273 1281 
Q 2116 1406 1581 1522 
L 1381 1569 
Q 847 1681 609 1914 
Q 372 2147 372 2553 
Q 372 3047 722 3315 
Q 1072 3584 1716 3584 
Q 2034 3584 2315 3537 
Q 2597 3491 2834 3397 
z
" transform="scale(0.015625)"/>
      <path id="DejaVuSans-20" transform="scale(0.015625)"/>
      <path id="DejaVuSans-44" d="M 1259 4147 
L 1259 519 
L 2022 519 
Q 2988 519 3436 956 
Q 3884 1394 3884 2338 
Q 3884 3275 3436 3711 
Q 2988 4147 2022 4147 
L 1259 4147 
z
M 628 4666 
L 1925 4666 
Q 3281 4666 3915 4102 
Q 4550 3538 4550 2338 
Q 4550 1131 3912 565 
Q 3275 0 1925 0 
L 628 0 
L 628 4666 
z
" transform="scale(0.015625)"/>
      <path id="DejaVuSans-62" d="M 3116 1747 
Q 3116 2381 2855 2742 
Q 2594 3103 2138 3103 
Q 1681 3103 1420 2742 
Q 1159 2381 1159 1747 
Q 1159 1113 1420 752 
Q 1681 391 2138 391 
Q 2594 391 2855 752 
Q 3116 1113 3116 1747 
z
M 1159 2969 
Q 1341 3281 1617 3432 
Q 1894 3584 2278 3584 
Q 2916 3584 3314 3078 
Q 3713 2572 3713 1747 
Q 3713 922 3314 415 
Q 2916 -91 2278 -91 
Q 1894 -91 1617 61 
Q 1341 213 1159 525 
L 1159 0 
L 581 0 
L 581 4863 
L 1159 4863 
L 1159 2969 
z
" transform="scale(0.015625)"/>
      <path id="DejaVuSans-6f" d="M 1959 3097 
Q 1497 3097 1228 2736 
Q 959 2375 959 1747 
Q 959 1119 1226 758 
Q 1494 397 1959 397 
Q 2419 397 2687 759 
Q 2956 1122 2956 1747 
Q 2956 2369 2687 2733 
Q 2419 3097 1959 3097 
z
M 1959 3584 
Q 2709 3584 3137 3096 
Q 3566 2609 3566 1747 
Q 3566 888 3137 398 
Q 2709 -91 1959 -91 
Q 1206 -91 779 398 
Q 353 888 353 1747 
Q 353 2609 779 3096 
Q 1206 3584 1959 3584 
z
" transform="scale(0.015625)"/>
     </defs>
     <use xlink:href="#DejaVuSans-55"/>
     <use xlink:href="#DejaVuSans-73" transform="translate(73.193359 0)"/>
     <use xlink:href="#DejaVuSans-65" transform="translate(125.292969 0)"/>
     <use xlink:href="#DejaVuSans-72" transform="translate(186.816406 0)"/>
     <use xlink:href="#DejaVuSans-20" transform="translate(227.929688 0)"/>
     <use xlink:href="#DejaVuSans-52" transform="translate(259.716797 0)"/>
     <use xlink:href="#DejaVuSans-61" transform="translate(326.949219 0)"/>
     <use xlink:href="#DejaVuSans-74" transform="translate(388.228516 0)"/>
     <use xlink:href="#DejaVuSans-69" transform="translate(427.4375 0)"/>
     <use xlink:href="#DejaVuSans-6e" transform="translate(455.220703 0)"/>
     <use xlink:href="#DejaVuSans-67" transform="translate(518.599609 0)"/>
     <use xlink:href="#DejaVuSans-20" transform="translate(582.076172 0)"/>
     <use xlink:href="#DejaVuSans-44" transform="translate(613.863281 0)"/>
     <use xlink:href="#DejaVuSans-69" transform="translate(690.865234 0)"/>
     <use xlink:href="#DejaVuSans-73" transform="translate(718.648438 0)"/>
     <use xlink:href="#DejaVuSans-74" transform="translate(770.748047 0)"/>
     <use xlink:href="#DejaVuSans-72" transform="translate(809.957031 0)"/>
     <use xlink:href="#DejaVuSans-69" transform="translate(851.070312 0)"/>
     <use xlink:href="#DejaVuSans-62" transform="translate(878.853516 0)"/>
     <use xlink:href="#DejaVuSans-75" transform="translate(942.330078 0)"/>
     <use xlink:href="#DejaVuSans-74" transform="translate(1005.708984 0)"/>
     <use xlink:href="#DejaVuSans-69" transform="translate(1044.917969 0)"/>
     <use xlink:href="#DejaVuSans-6f" transform="translate(1072.701172 0)"/>
     <use xlink:href="#DejaVuSans-6e" transform="translate(1133.882812 0)"/>
    </g>
   </g>
  </g>
 </g>
 <defs>
  <clipPath id="p6c82383ebf">
   <rect x="72" y="43.2" width="446.4" height="277.2"/>
  </clipPath>
 </defs>
</svg>
